<svg width="16" height="18" viewBox="0 0 16 18" fill="none" xmlns="http://www.w3.org/2000/svg">
<path d="M6.01571 15.75C6.54456 16.2168 7.23924 16.5 8.00008 16.5C8.76091 16.5 9.45559 16.2168 9.98444 15.75M12.5001 6C12.5001 4.80653 12.026 3.66193 11.1821 2.81802C10.3381 1.97411 9.19355 1.5 8.00008 1.5C6.8066 1.5 5.66201 1.97411 4.81809 2.81802C3.97418 3.66193 3.50007 4.80653 3.50007 6C3.50007 8.31764 2.91543 9.90447 2.26232 10.9541C1.71142 11.8394 1.43597 12.2821 1.44607 12.4056C1.45725 12.5423 1.48622 12.5944 1.59641 12.6762C1.69592 12.75 2.14452 12.75 3.04172 12.75H12.9584C13.8556 12.75 14.3042 12.75 14.4037 12.6762C14.5139 12.5944 14.5429 12.5423 14.5541 12.4056C14.5642 12.2821 14.2887 11.8394 13.7378 10.9541C13.0847 9.90447 12.5001 8.31764 12.5001 6Z" stroke="#333333" stroke-width="1.5" stroke-linecap="round" stroke-linejoin="round"/>
</svg>
