<svg width="48" height="44" viewBox="0 0 48 44" fill="none" xmlns="http://www.w3.org/2000/svg">
<path d="M32.6666 30.6667V9.43333C32.6666 7.00644 32.6666 5.79299 32.1943 4.86604C31.7789 4.05067 31.116 3.38776 30.3006 2.9723C29.3737 2.5 28.1602 2.5 25.7333 2.5H9.26665C6.83975 2.5 5.6263 2.5 4.69935 2.9723C3.88399 3.38776 3.22107 4.05067 2.80562 4.86604C2.33331 5.79299 2.33331 7.00644 2.33331 9.43333V23.7333C2.33331 26.1602 2.33331 27.3737 2.80562 28.3006C3.22107 29.116 3.88399 29.7789 4.69935 30.1944C5.6263 30.6667 6.83975 30.6667 9.26665 30.6667H32.6666ZM32.6666 30.6667H42.2C43.4134 30.6667 44.0201 30.6667 44.4836 30.4305C44.8913 30.2228 45.2228 29.8913 45.4305 29.4836C45.6666 29.0202 45.6666 28.4134 45.6666 27.2V21.2693C45.6666 20.7393 45.6666 20.4744 45.6068 20.225C45.5537 20.0039 45.4662 19.7926 45.3474 19.5987C45.2134 19.3801 45.026 19.1927 44.6513 18.818L40.182 14.3487C39.8073 13.974 39.6199 13.7866 39.4013 13.6526C39.2074 13.5338 38.9961 13.4463 38.775 13.3932C38.5256 13.3333 38.2606 13.3333 37.7307 13.3333H32.6666M17.5 36.0833C17.5 39.0749 15.0749 41.5 12.0833 41.5C9.09177 41.5 6.66665 39.0749 6.66665 36.0833C6.66665 33.0918 9.09177 30.6667 12.0833 30.6667C15.0749 30.6667 17.5 33.0918 17.5 36.0833ZM41.3333 36.0833C41.3333 39.0749 38.9082 41.5 35.9166 41.5C32.9251 41.5 30.5 39.0749 30.5 36.0833C30.5 33.0918 32.9251 30.6667 35.9166 30.6667C38.9082 30.6667 41.3333 33.0918 41.3333 36.0833Z" stroke="#333333" stroke-width="4.33333" stroke-linecap="round" stroke-linejoin="round"/>
</svg>
