<svg width="215" height="132" viewBox="0 0 215 132" fill="none" xmlns="http://www.w3.org/2000/svg">
<path d="M144.055 115.401C147.06 114.709 145.694 109.656 144.096 105.981C143.245 104.023 143.823 101.547 145.659 100.451C148.104 98.9929 151.21 100.749 151.21 103.59L151.21 113.287C151.21 116.223 149.549 121.64 141.961 120.451C138.588 119.923 135.621 115.401 131.84 115.049C128.059 114.697 127.361 118.278 126.896 119.688C126.431 121.097 123.581 120.803 124.337 118.278C125.093 115.754 128.525 110.469 133.353 111.291C138.181 112.113 138.704 116.634 144.055 115.401Z" fill="#C4C4C4"/>
<path d="M144.055 115.401C147.06 114.709 145.694 109.656 144.096 105.981C143.245 104.023 143.823 101.547 145.659 100.451C148.104 98.9929 151.21 100.749 151.21 103.59L151.21 113.287C151.21 116.223 149.549 121.64 141.961 120.451C138.588 119.923 135.621 115.401 131.84 115.049C128.059 114.697 127.361 118.278 126.896 119.688C126.431 121.097 123.581 120.803 124.337 118.278C125.093 115.754 128.525 110.469 133.353 111.291C138.181 112.113 138.704 116.634 144.055 115.401Z" fill="url(#paint0_linear_1_711)"/>
<path d="M149.829 120.565C155.103 120.565 155.367 120.565 168.553 120.565C181.739 120.565 182.53 119.778 182.53 95.1091C182.53 74.737 174.437 62.9558 171.618 59.4699C171.136 58.8742 170.254 58.9387 169.807 59.5609L167.32 63.0257C166.967 63.5176 166.293 63.7115 165.701 63.5811C164.689 63.3583 162.806 63.0922 159.587 63.0922C157.272 63.0922 155.833 63.1839 154.942 63.2906C154.18 63.3817 153.118 63.0441 152.678 62.4183L150.636 59.5157C150.208 58.9075 149.36 58.8186 148.866 59.3745C145.911 62.6992 137.17 74.3955 137.17 96.4213C137.17 122.927 138.225 120.565 149.829 120.565Z" fill="#7B22F3"/>
<path d="M149.829 120.565C155.103 120.565 155.367 120.565 168.553 120.565C181.739 120.565 182.53 119.778 182.53 95.1091C182.53 74.737 174.437 62.9558 171.618 59.4699C171.136 58.8742 170.254 58.9387 169.807 59.5609L167.32 63.0257C166.967 63.5176 166.293 63.7115 165.701 63.5811C164.689 63.3583 162.806 63.0922 159.587 63.0922C157.272 63.0922 155.833 63.1839 154.942 63.2906C154.18 63.3817 153.118 63.0441 152.678 62.4183L150.636 59.5157C150.208 58.9075 149.36 58.8186 148.866 59.3745C145.911 62.6992 137.17 74.3955 137.17 96.4213C137.17 122.927 138.225 120.565 149.829 120.565Z" fill="url(#paint1_linear_1_711)"/>
<path d="M171.212 77.0988C171.145 79.0932 169.778 80.6659 168.159 80.6117C166.54 80.5574 165.282 78.8966 165.349 76.9023C165.416 74.9079 166.783 73.3351 168.402 73.3894C170.021 73.4437 171.279 75.1044 171.212 77.0988Z" fill="white"/>
<path d="M156.469 77.0988C156.401 79.0932 155.034 80.6659 153.416 80.6117C151.797 80.5574 150.539 78.8966 150.606 76.9023C150.673 74.9079 152.04 73.3351 153.659 73.3894C155.278 73.4437 156.536 75.1044 156.469 77.0988Z" fill="white"/>
<path d="M170.446 77.8033C170.392 79.4027 169.322 80.6648 168.056 80.6223C166.79 80.5799 165.807 79.2489 165.861 77.6496C165.915 76.0503 166.985 74.7882 168.251 74.8306C169.517 74.8731 170.5 76.204 170.446 77.8033Z" fill="white"/>
<path d="M170.446 77.8033C170.392 79.4027 169.322 80.6648 168.056 80.6223C166.79 80.5799 165.807 79.2489 165.861 77.6496C165.915 76.0503 166.985 74.7882 168.251 74.8306C169.517 74.8731 170.5 76.204 170.446 77.8033Z" fill="url(#paint2_linear_1_711)"/>
<path d="M155.703 77.8033C155.65 79.4027 154.579 80.6648 153.313 80.6223C152.047 80.5799 151.064 79.2489 151.118 77.6496C151.172 76.0503 152.242 74.7882 153.509 74.8306C154.775 74.8731 155.757 76.204 155.703 77.8033Z" fill="white"/>
<path d="M155.703 77.8033C155.65 79.4027 154.579 80.6648 153.313 80.6223C152.047 80.5799 151.064 79.2489 151.118 77.6496C151.172 76.0503 152.242 74.7882 153.509 74.8306C154.775 74.8731 155.757 76.204 155.703 77.8033Z" fill="url(#paint3_linear_1_711)"/>
<path d="M170.04 75.7176C170.156 76.1497 169.986 76.5703 169.661 76.6571C169.336 76.744 168.979 76.4641 168.863 76.032C168.747 75.6 168.916 75.1794 169.241 75.0925C169.566 75.0057 169.923 75.2856 170.04 75.7176Z" fill="white"/>
<path d="M155.297 75.7176C155.413 76.1497 155.243 76.5703 154.918 76.6571C154.593 76.744 154.236 76.4641 154.12 76.032C154.004 75.6 154.173 75.1794 154.498 75.0925C154.823 75.0057 155.181 75.2856 155.297 75.7176Z" fill="white"/>
<path d="M160.325 85.1725L159.653 84.3372C158.862 83.3556 159.725 81.9234 160.966 82.159L162.38 82.4277C163.533 82.6466 163.884 84.1222 162.952 84.8334L162.21 85.3999C161.624 85.847 160.787 85.746 160.325 85.1725Z" fill="#FF1D66"/>
<path d="M171.027 118.292C171.917 112.088 173.21 103.021 173.796 98.7127C173.979 97.3652 173.001 96.2761 171.637 96.2761H164.46C162.946 96.2761 161.788 97.6237 162.021 99.1163L165.012 118.317C165.199 119.516 166.234 120.401 167.452 120.401H168.583C169.812 120.401 170.852 119.505 171.027 118.292Z" fill="url(#paint4_linear_1_711)"/>
<path d="M158.769 118.286C159.644 112.082 160.913 103.021 161.49 98.7134C161.67 97.3654 160.689 96.2761 159.325 96.2761H152.357C150.845 96.2761 149.688 97.6193 149.916 99.1099L152.856 118.31C153.04 119.513 154.077 120.401 155.297 120.401H156.325C157.555 120.401 158.597 119.502 158.769 118.286Z" fill="url(#paint5_linear_1_711)"/>
<path d="M119.645 62.257C127.079 62.257 129.646 59.4716 130 58.0789L132.779 58.9407C130.743 64.642 126.548 78.2382 126.548 88.37C126.548 98.5018 128.849 114.091 130 120.62H109.955C110.309 119.183 111.017 112.577 111.017 97.6401C111.017 82.7035 108.981 65.3906 107.964 58.6012L109.955 58.0789C110.088 59.4716 112.212 62.257 119.645 62.257Z" fill="#C4C4C4"/>
<path d="M119.645 62.257C127.079 62.257 129.646 59.4716 130 58.0789L132.779 58.9407C130.743 64.642 126.548 78.2382 126.548 88.37C126.548 98.5018 128.849 114.091 130 120.62H109.955C110.309 119.183 111.017 112.577 111.017 97.6401C111.017 82.7035 108.981 65.3906 107.964 58.6012L109.955 58.0789C110.088 59.4716 112.212 62.257 119.645 62.257Z" fill="url(#paint6_linear_1_711)"/>
<path d="M110.501 120.62H88.5553C87.6999 115.55 85.989 101.556 85.989 86.1373C85.989 70.7186 101.585 60.9197 108.272 58.0789C110.061 63.8041 111.418 78.0608 111.418 88.2351C111.418 98.4093 111.512 114.064 110.501 120.62Z" fill="#C4C4C4"/>
<path d="M110.501 120.62H88.5553C87.6999 115.55 85.989 101.556 85.989 86.1373C85.989 70.7186 101.585 60.9197 108.272 58.0789C110.061 63.8041 111.418 78.0608 111.418 88.2351C111.418 98.4093 111.512 114.064 110.501 120.62Z" fill="url(#paint7_linear_1_711)"/>
<path d="M68.7056 89.7455C68.6193 88.2698 84.3469 87.2499 88.9853 75.3144L90.927 89.7455L88.9853 93.6516C89.201 96.6536 89.2658 102.441 87.7988 101.572C86.3317 100.704 78.414 94.1942 74.6385 91.0475L68.7056 89.7455Z" fill="#D8ECFE"/>
<path d="M55.8662 83.4406C55.1385 75.5531 52.2276 73.0992 51.3179 73.0992C50.4082 73.0992 48.9528 76.6048 48.9528 78.1823L55.8662 83.4406Z" fill="#D17F6A"/>
<path d="M55.8662 83.4406C55.1385 75.5531 52.2276 73.0992 51.3179 73.0992C50.4082 73.0992 48.9528 76.6048 48.9528 78.1823L55.8662 83.4406Z" fill="url(#paint8_linear_1_711)"/>
<path d="M86.7758 102.49C84.4275 104.594 84.4134 106.88 84.8132 108.424C85.956 110.651 87.2321 113.14 87.7409 114.154C88.7505 116.164 91.4662 120.621 87.0241 120.621H76.5934C76.5934 120.621 76.5934 115.995 83.1878 115.995C83.1878 115.995 84.1065 113.952 78.2511 113.952C68.9632 113.952 72.3957 102.892 72.3957 102.892" fill="#146FF4"/>
<path d="M86.7758 102.49C84.4275 104.594 84.4134 106.88 84.8132 108.424C85.956 110.651 87.2321 113.14 87.7409 114.154C88.7505 116.164 91.4662 120.621 87.0241 120.621H76.5934C76.5934 120.621 76.5934 115.995 83.1878 115.995C83.1878 115.995 84.1065 113.952 78.2511 113.952C68.9632 113.952 72.3957 102.892 72.3957 102.892" fill="#0851C4"/>
<path d="M86.7758 102.49C84.4275 104.594 84.4134 106.88 84.8132 108.424C85.956 110.651 87.2321 113.14 87.7409 114.154C88.7505 116.164 91.4662 120.621 87.0241 120.621H76.5934C76.5934 120.621 76.5934 115.995 83.1878 115.995C83.1878 115.995 84.1065 113.952 78.2511 113.952C68.9632 113.952 72.3957 102.892 72.3957 102.892" fill="#D17F6A"/>
<path d="M86.7758 102.49C84.4275 104.594 84.4134 106.88 84.8132 108.424C85.956 110.651 87.2321 113.14 87.7409 114.154C88.7505 116.164 91.4662 120.621 87.0241 120.621H76.5934C76.5934 120.621 76.5934 115.995 83.1878 115.995C83.1878 115.995 84.1065 113.952 78.2511 113.952C68.9632 113.952 72.3957 102.892 72.3957 102.892" fill="url(#paint9_linear_1_711)"/>
<path d="M85.7995 110.33L78.1509 111.418C72.9755 112.155 67.7022 111.789 62.6791 110.346C59.2484 109.361 55.9791 107.886 52.9733 105.966L46.9199 102.101C46.9199 98.1685 48.4019 96.6937 41.2791 96.6937C33.1739 96.6937 32.9282 93.4982 32.9282 91.0401C32.9282 90.3027 32.1914 87.1072 38.823 87.1072C44.7177 87.1072 41.762 83.6659 44.4638 80.4704C47.1655 77.2749 52.8146 78.2582 52.8146 78.2582C52.8146 76.0459 54.7795 71.1298 56.0076 71.1298C57.2357 71.1298 61.1655 74.5711 62.148 85.6324C63.1304 96.6937 79.1174 87.235 87.4732 95.5974C89.9932 98.1194 91.1304 99.4738 94.5322 99.4738C98.4571 99.4738 100.847 94.1422 101.284 91.5342C101.333 91.2466 101.753 91.2712 101.77 91.5612C101.898 93.8694 101.53 97.7236 98.3072 100.627C95.4508 103.198 95.4336 105.993 95.9199 107.88" fill="#146FF4"/>
<path d="M85.7995 110.33L78.1509 111.418C72.9755 112.155 67.7022 111.789 62.6791 110.346C59.2484 109.361 55.9791 107.886 52.9733 105.966L46.9199 102.101C46.9199 98.1685 48.4019 96.6937 41.2791 96.6937C33.1739 96.6937 32.9282 93.4982 32.9282 91.0401C32.9282 90.3027 32.1914 87.1072 38.823 87.1072C44.7177 87.1072 41.762 83.6659 44.4638 80.4704C47.1655 77.2749 52.8146 78.2582 52.8146 78.2582C52.8146 76.0459 54.7795 71.1298 56.0076 71.1298C57.2357 71.1298 61.1655 74.5711 62.148 85.6324C63.1304 96.6937 79.1174 87.235 87.4732 95.5974C89.9932 98.1194 91.1304 99.4738 94.5322 99.4738C98.4571 99.4738 100.847 94.1422 101.284 91.5342C101.333 91.2466 101.753 91.2712 101.77 91.5612C101.898 93.8694 101.53 97.7236 98.3072 100.627C95.4508 103.198 95.4336 105.993 95.9199 107.88" fill="#0851C4"/>
<path d="M85.7995 110.33L78.1509 111.418C72.9755 112.155 67.7022 111.789 62.6791 110.346C59.2484 109.361 55.9791 107.886 52.9733 105.966L46.9199 102.101C46.9199 98.1685 48.4019 96.6937 41.2791 96.6937C33.1739 96.6937 32.9282 93.4982 32.9282 91.0401C32.9282 90.3027 32.1914 87.1072 38.823 87.1072C44.7177 87.1072 41.762 83.6659 44.4638 80.4704C47.1655 77.2749 52.8146 78.2582 52.8146 78.2582C52.8146 76.0459 54.7795 71.1298 56.0076 71.1298C57.2357 71.1298 61.1655 74.5711 62.148 85.6324C63.1304 96.6937 79.1174 87.235 87.4732 95.5974C89.9932 98.1194 91.1304 99.4738 94.5322 99.4738C98.4571 99.4738 100.847 94.1422 101.284 91.5342C101.333 91.2466 101.753 91.2712 101.77 91.5612C101.898 93.8694 101.53 97.7236 98.3072 100.627C95.4508 103.198 95.4336 105.993 95.9199 107.88" fill="#D17F6A"/>
<path d="M85.7995 110.33L78.1509 111.418C72.9755 112.155 67.7022 111.789 62.6791 110.346C59.2484 109.361 55.9791 107.886 52.9733 105.966L46.9199 102.101C46.9199 98.1685 48.4019 96.6937 41.2791 96.6937C33.1739 96.6937 32.9282 93.4982 32.9282 91.0401C32.9282 90.3027 32.1914 87.1072 38.823 87.1072C44.7177 87.1072 41.762 83.6659 44.4638 80.4704C47.1655 77.2749 52.8146 78.2582 52.8146 78.2582C52.8146 76.0459 54.7795 71.1298 56.0076 71.1298C57.2357 71.1298 61.1655 74.5711 62.148 85.6324C63.1304 96.6937 79.1174 87.235 87.4732 95.5974C89.9932 98.1194 91.1304 99.4738 94.5322 99.4738C98.4571 99.4738 100.847 94.1422 101.284 91.5342C101.333 91.2466 101.753 91.2712 101.77 91.5612C101.898 93.8694 101.53 97.7236 98.3072 100.627C95.4508 103.198 95.4336 105.993 95.9199 107.88" fill="url(#paint10_linear_1_711)"/>
<path d="M45.6376 97.1002C45.6376 97.1002 49.3967 111.368 44.8721 115.961C44.8721 115.961 40.2844 115.442 40.2844 120.621H50.7357C50.7357 120.621 57.9986 114.924 57.9986 101.076" fill="#146FF4"/>
<path d="M45.6376 97.1002C45.6376 97.1002 49.3967 111.368 44.8721 115.961C44.8721 115.961 40.2844 115.442 40.2844 120.621H50.7357C50.7357 120.621 57.9986 114.924 57.9986 101.076" fill="#0851C4"/>
<path d="M45.6376 97.1002C45.6376 97.1002 49.3967 111.368 44.8721 115.961C44.8721 115.961 40.2844 115.442 40.2844 120.621H50.7357C50.7357 120.621 57.9986 114.924 57.9986 101.076" fill="#D17F6A"/>
<path d="M45.6376 97.1002C45.6376 97.1002 49.3967 111.368 44.8721 115.961C44.8721 115.961 40.2844 115.442 40.2844 120.621H50.7357C50.7357 120.621 57.9986 114.924 57.9986 101.076" fill="url(#paint11_linear_1_711)"/>
<path d="M51.9535 97.9681C51.9535 97.9681 55.6212 111.709 51.2066 116.133C51.2066 116.133 46.7304 115.634 46.7304 120.621H56.9277C56.9277 120.621 64.014 115.134 64.014 101.797" fill="url(#paint12_linear_1_711)"/>
<path d="M97.6439 101.168C95.1236 103.424 95.1085 105.877 95.5375 107.534C96.7641 109.923 98.1336 112.594 98.6797 113.681C99.7632 115.838 102.678 120.619 97.9104 120.619H86.7156C86.7156 120.619 86.7156 115.657 93.7931 115.657C93.7931 115.657 94.7791 113.465 88.4947 113.465C78.5264 113.465 82.2103 101.599 82.2103 101.599" fill="url(#paint13_linear_1_711)"/>
<path d="M59.6506 83.4293C59.9876 83.7084 60.4907 83.4404 60.4417 83.0063C59.5084 74.7327 56.6161 72.1154 55.6842 72.1154C54.7483 72.1154 53.2732 75.8864 53.1574 77.8158C53.1486 77.9619 53.2155 78.0997 53.3284 78.1933L59.6506 83.4293Z" fill="url(#paint14_linear_1_711)"/>
<path d="M34.9606 89.8404C33.4243 89.8404 32.754 89.159 32.5178 88.3973C32.2498 87.5333 33.1402 86.8857 34.0471 86.8857C34.531 86.8857 35.0059 87.0526 35.3423 87.3995C36.3419 88.4301 37.1706 89.8404 34.9606 89.8404Z" fill="#4B1C3C"/>
<mask id="mask0_1_711" style="mask-type:alpha" maskUnits="userSpaceOnUse" x="32" y="71" width="70" height="50">
<path d="M86.7326 102.51C84.3847 104.616 84.3705 106.905 84.7703 108.452C85.9129 110.68 87.1888 113.173 87.6976 114.188C88.707 116.201 91.4223 120.663 86.9809 120.663H76.5516C76.5516 120.663 76.5516 116.032 83.1451 116.032C83.1451 116.032 84.0637 113.987 78.2091 113.987C68.9224 113.987 72.3545 102.913 72.3545 102.913" fill="#146FF4"/>
<path d="M86.7326 102.51C84.3847 104.616 84.3705 106.905 84.7703 108.452C85.9129 110.68 87.1888 113.173 87.6976 114.188C88.707 116.201 91.4223 120.663 86.9809 120.663H76.5516C76.5516 120.663 76.5516 116.032 83.1451 116.032C83.1451 116.032 84.0637 113.987 78.2091 113.987C68.9224 113.987 72.3545 102.913 72.3545 102.913" fill="#0851C4"/>
<path d="M86.7326 102.51C84.3847 104.616 84.3705 106.905 84.7703 108.452C85.9129 110.68 87.1888 113.173 87.6976 114.188C88.707 116.201 91.4223 120.663 86.9809 120.663H76.5516C76.5516 120.663 76.5516 116.032 83.1451 116.032C83.1451 116.032 84.0637 113.987 78.2091 113.987C68.9224 113.987 72.3545 102.913 72.3545 102.913" fill="#D17F6A"/>
<path d="M86.7326 102.51C84.3847 104.616 84.3705 106.905 84.7703 108.452C85.9129 110.68 87.1888 113.173 87.6976 114.188C88.707 116.201 91.4223 120.663 86.9809 120.663H76.5516C76.5516 120.663 76.5516 116.032 83.1451 116.032C83.1451 116.032 84.0637 113.987 78.2091 113.987C68.9224 113.987 72.3545 102.913 72.3545 102.913" fill="url(#paint15_linear_1_711)"/>
<path d="M85.7564 110.36L78.1089 111.449C72.9342 112.187 67.6616 111.821 62.6392 110.376C59.209 109.389 55.9402 107.912 52.9348 105.99L46.8822 102.121C46.8822 98.1827 48.3641 96.706 41.2423 96.706C33.1381 96.706 32.8925 93.5065 32.8925 91.0453C32.8925 90.3069 32.1558 87.1074 38.7865 87.1074C44.6804 87.1074 41.7251 83.6618 44.4264 80.4622C47.1278 77.2627 52.7762 78.2472 52.7762 78.2472C52.7762 76.0321 54.7408 71.1098 55.9687 71.1098C57.1966 71.1098 61.1259 74.5554 62.1082 85.6307C63.0905 96.706 79.0753 87.2354 87.4299 95.6083C89.9496 98.1335 91.0866 99.4896 94.4879 99.4896C98.4122 99.4896 100.802 94.1513 101.239 91.54C101.288 91.252 101.708 91.2767 101.725 91.5671C101.853 93.8781 101.484 97.7372 98.2624 100.644C95.4064 103.218 95.3892 106.017 95.8754 107.907" fill="#146FF4"/>
<path d="M85.7564 110.36L78.1089 111.449C72.9342 112.187 67.6616 111.821 62.6392 110.376C59.209 109.389 55.9402 107.912 52.9348 105.99L46.8822 102.121C46.8822 98.1827 48.3641 96.706 41.2423 96.706C33.1381 96.706 32.8925 93.5065 32.8925 91.0453C32.8925 90.3069 32.1558 87.1074 38.7865 87.1074C44.6804 87.1074 41.7251 83.6618 44.4264 80.4622C47.1278 77.2627 52.7762 78.2472 52.7762 78.2472C52.7762 76.0321 54.7408 71.1098 55.9687 71.1098C57.1966 71.1098 61.1259 74.5554 62.1082 85.6307C63.0905 96.706 79.0753 87.2354 87.4299 95.6083C89.9496 98.1335 91.0866 99.4896 94.4879 99.4896C98.4122 99.4896 100.802 94.1513 101.239 91.54C101.288 91.252 101.708 91.2767 101.725 91.5671C101.853 93.8781 101.484 97.7372 98.2624 100.644C95.4064 103.218 95.3892 106.017 95.8754 107.907" fill="#0851C4"/>
<path d="M85.7564 110.36L78.1089 111.449C72.9342 112.187 67.6616 111.821 62.6392 110.376C59.209 109.389 55.9402 107.912 52.9348 105.99L46.8822 102.121C46.8822 98.1827 48.3641 96.706 41.2423 96.706C33.1381 96.706 32.8925 93.5065 32.8925 91.0453C32.8925 90.3069 32.1558 87.1074 38.7865 87.1074C44.6804 87.1074 41.7251 83.6618 44.4264 80.4622C47.1278 77.2627 52.7762 78.2472 52.7762 78.2472C52.7762 76.0321 54.7408 71.1098 55.9687 71.1098C57.1966 71.1098 61.1259 74.5554 62.1082 85.6307C63.0905 96.706 79.0753 87.2354 87.4299 95.6083C89.9496 98.1335 91.0866 99.4896 94.4879 99.4896C98.4122 99.4896 100.802 94.1513 101.239 91.54C101.288 91.252 101.708 91.2767 101.725 91.5671C101.853 93.8781 101.484 97.7372 98.2624 100.644C95.4064 103.218 95.3892 106.017 95.8754 107.907" fill="#D17F6A"/>
<path d="M85.7564 110.36L78.1089 111.449C72.9342 112.187 67.6616 111.821 62.6392 110.376C59.209 109.389 55.9402 107.912 52.9348 105.99L46.8822 102.121C46.8822 98.1827 48.3641 96.706 41.2423 96.706C33.1381 96.706 32.8925 93.5065 32.8925 91.0453C32.8925 90.3069 32.1558 87.1074 38.7865 87.1074C44.6804 87.1074 41.7251 83.6618 44.4264 80.4622C47.1278 77.2627 52.7762 78.2472 52.7762 78.2472C52.7762 76.0321 54.7408 71.1098 55.9687 71.1098C57.1966 71.1098 61.1259 74.5554 62.1082 85.6307C63.0905 96.706 79.0753 87.2354 87.4299 95.6083C89.9496 98.1335 91.0866 99.4896 94.4879 99.4896C98.4122 99.4896 100.802 94.1513 101.239 91.54C101.288 91.252 101.708 91.2767 101.725 91.5671C101.853 93.8781 101.484 97.7372 98.2624 100.644C95.4064 103.218 95.3892 106.017 95.8754 107.907" fill="url(#paint16_linear_1_711)"/>
<path d="M45.6002 97.113C45.6002 97.113 49.3587 111.399 44.8347 115.997C44.8347 115.997 40.2476 115.478 40.2476 120.663H50.6975C50.6975 120.663 57.9594 114.959 57.9594 101.093" fill="#146FF4"/>
<path d="M45.6002 97.113C45.6002 97.113 49.3587 111.399 44.8347 115.997C44.8347 115.997 40.2476 115.478 40.2476 120.663H50.6975C50.6975 120.663 57.9594 114.959 57.9594 101.093" fill="#0851C4"/>
<path d="M45.6002 97.113C45.6002 97.113 49.3587 111.399 44.8347 115.997C44.8347 115.997 40.2476 115.478 40.2476 120.663H50.6975C50.6975 120.663 57.9594 114.959 57.9594 101.093" fill="#D17F6A"/>
<path d="M45.6002 97.113C45.6002 97.113 49.3587 111.399 44.8347 115.997C44.8347 115.997 40.2476 115.478 40.2476 120.663H50.6975C50.6975 120.663 57.9594 114.959 57.9594 101.093" fill="url(#paint17_linear_1_711)"/>
</mask>
<g mask="url(#mask0_1_711)">
<path fill-rule="evenodd" clip-rule="evenodd" d="M38.8523 99.5566C56.994 101.996 64.5785 91.8814 66.0436 86.1286L63.6505 85.5225C62.4916 90.0729 56.0706 99.3872 39.1823 97.1165L38.8523 99.5566Z" fill="#FED33C"/>
</g>
<path opacity="0.2" d="M38.5825 89.7164C38.5825 90.0564 38.9141 90.3319 39.3232 90.3319C39.7323 90.3319 40.064 90.0564 40.064 89.7164C40.064 89.3764 39.7323 89.1008 39.3232 89.1008C38.9141 89.1008 38.5825 89.3764 38.5825 89.7164Z" fill="url(#paint18_linear_1_711)"/>
<path opacity="0.2" d="M37.3484 90.9496C37.3484 91.0176 37.5695 91.0727 37.8422 91.0727C38.115 91.0727 38.3361 91.0176 38.3361 90.9496C38.3361 90.8816 38.115 90.8264 37.8422 90.8264C37.5695 90.8264 37.3484 90.8816 37.3484 90.9496Z" fill="url(#paint19_linear_1_711)"/>
<path opacity="0.2" d="M42.0394 90.9496C42.0394 91.0176 42.3157 91.0727 42.6567 91.0727C42.9976 91.0727 43.2739 91.0176 43.2739 90.9496C43.2739 90.8816 42.9976 90.8264 42.6567 90.8264C42.3157 90.8264 42.0394 90.8816 42.0394 90.9496Z" fill="url(#paint20_linear_1_711)"/>
<path d="M44.7552 84.4248C44.7552 84.9687 45.1974 85.4097 45.7428 85.4097C46.2883 85.4097 46.7305 84.9687 46.7305 84.4248C46.7305 83.8809 46.2883 83.4399 45.7428 83.4399C45.1974 83.4399 44.7552 83.8809 44.7552 84.4248Z" fill="#4B1C3C"/>
<path d="M129.028 120.619H152.133C153.13 115.548 155.123 101.551 155.123 86.1279C155.123 70.7051 139.539 61.1664 131.746 58.3249C129.662 64.0516 125.494 78.0493 125.494 88.2262C125.494 98.4031 127.85 114.062 129.028 120.619Z" fill="#C4C4C4"/>
<path d="M129.028 120.619H152.133C153.13 115.548 155.123 101.551 155.123 86.1279C155.123 70.7051 139.539 61.1664 131.746 58.3249C129.662 64.0516 125.494 78.0493 125.494 88.2262C125.494 98.4031 127.85 114.062 129.028 120.619Z" fill="url(#paint21_linear_1_711)"/>
<path d="M71.4215 89.1017C67.7396 89.1017 64.7549 90.3144 64.7549 91.8102C64.7549 93.306 67.7396 94.5186 71.4215 94.5186C75.1033 94.5186 78.088 93.306 78.088 91.8102C78.088 90.3144 75.1033 89.1017 71.4215 89.1017Z" fill="#FFCEC9"/>
<path d="M75.8066 90.5809C75.2608 91.1253 75.5927 92.3388 76.5479 93.2914C77.5032 94.244 78.7201 94.5749 79.2659 94.0306C79.8118 93.4862 79.4799 92.2727 78.5246 91.3201C77.5694 90.3675 76.3525 90.0366 75.8066 90.5809Z" fill="#FFCEC9"/>
<path opacity="0.2" d="M134.293 104.862L136.111 82.2094C135.505 82.2094 134.075 83.6205 133.202 89.2651C132.329 94.9096 133.565 102.015 134.293 104.862Z" fill="url(#paint22_linear_1_711)"/>
<path fill-rule="evenodd" clip-rule="evenodd" d="M173.542 81.8362L165.271 83.4367L165.224 83.1949L173.495 81.5945L173.542 81.8362ZM148.828 83.3158H156.852V83.562H148.828V83.3158ZM148.197 85.5325L157.209 84.5477L157.236 84.7924L148.224 85.7773L148.197 85.5325ZM174 85.7774L165.235 84.9157L165.259 84.6706L174.025 85.5324L174 85.7774ZM152.975 87.6355L156.555 86.035L156.656 86.2597L153.076 87.8602L152.975 87.6355ZM170.142 88.3555L165.204 86.5089L165.291 86.2783L170.229 88.125L170.142 88.3555Z" fill="black"/>
<path fill-rule="evenodd" clip-rule="evenodd" d="M110.306 67.3857C108.469 66.3169 106.11 66.9471 105.055 68.7889C104.554 69.6625 104.42 70.698 104.681 71.67L109.751 90.5396C109.87 90.9835 110.328 91.2469 110.773 91.128L111.156 92.555C109.921 92.8851 108.651 92.154 108.32 90.922L103.25 72.0524C102.888 70.7042 103.074 69.2678 103.768 68.0559C105.232 65.5013 108.504 64.6271 111.052 66.1096C112.261 66.8129 113.143 67.9639 113.505 69.3121L118.575 88.1817C118.906 89.4137 118.173 90.68 116.938 91.0101L116.554 89.5831C116.999 89.4642 117.264 89.0079 117.144 88.5641L112.074 69.6945C111.813 68.7225 111.177 67.8927 110.306 67.3857Z" fill="#6B85AC"/>
<path d="M112.305 91.4819C112.482 92.1386 112.091 92.8137 111.432 92.9897C110.774 93.1657 110.097 92.7759 109.92 92.1191C109.744 91.4624 110.134 90.7873 110.793 90.6113C111.452 90.4354 112.129 90.8251 112.305 91.4819Z" fill="#6B85AC"/>
<path d="M117.552 90.0796C117.729 90.7364 117.338 91.4115 116.679 91.5875C116.021 91.7634 115.344 91.3737 115.167 90.7169C114.991 90.0602 115.382 89.3851 116.04 89.2091C116.699 89.0331 117.376 89.4229 117.552 90.0796Z" fill="#6B85AC"/>
<path d="M127.717 78.6383C127.717 80.7461 126.004 82.4548 123.89 82.4548C121.776 82.4548 120.063 80.7461 120.063 78.6383C120.063 76.5306 121.776 74.8219 123.89 74.8219C126.004 74.8219 127.717 76.5306 127.717 78.6383Z" fill="#6B85AC"/>
<path fill-rule="evenodd" clip-rule="evenodd" d="M126.915 58.1971C126.722 58.2007 126.536 58.2042 126.359 58.2042H110.804C108.677 58.2042 107.538 58.6922 106.933 59.281C106.338 59.8598 106.124 60.6692 106.159 61.6405C106.193 62.6177 106.478 63.6558 106.77 64.5631C106.832 64.757 106.9 64.9612 106.966 65.1561C107.041 65.3814 107.112 65.5942 107.165 65.7644C107.218 65.935 107.267 66.1033 107.3 66.2552C107.33 66.3898 107.365 66.5852 107.343 66.7804L105.87 66.6173C105.868 66.6416 105.868 66.6559 105.868 66.6559C105.868 66.6559 105.866 66.6306 105.853 66.5699C105.833 66.4811 105.8 66.3612 105.751 66.2036C105.696 66.0281 105.636 65.8495 105.569 65.6488C105.506 65.4617 105.437 65.2553 105.359 65.0143C105.061 64.0865 104.72 62.8855 104.678 61.6929C104.635 60.4943 104.892 59.2031 105.898 58.2238C106.894 57.2545 108.486 56.7268 110.804 56.7268H126.359C126.49 56.7268 126.641 56.7238 126.81 56.7204C127.507 56.7063 128.488 56.6865 129.414 56.8541C130.587 57.0665 131.873 57.6101 132.536 58.9933C133.179 60.3324 133.135 62.2567 132.217 64.9726C131.292 67.7102 129.435 71.3852 126.241 76.3321L124.996 75.5324C128.16 70.6303 129.944 67.0724 130.813 64.5009C131.69 61.9076 131.591 60.4463 131.2 59.631C130.83 58.8598 130.102 58.48 129.149 58.3077C128.386 58.1696 127.607 58.1842 126.915 58.1971Z" fill="#6B85AC"/>
<path d="M106.071 22.2317C106.071 22.2317 108.816 31.9435 103.7 35.694C100.51 39.6762 106.627 37.2494 106.627 41.8825C106.627 46.5155 106.071 53.9063 117.937 51.7994C135.065 47.6076 133.063 30.1785 131.95 26.6486C130.838 23.1186 122.385 15.1762 107.704 18.9268C105.033 19.5909 106.071 22.2317 106.071 22.2317Z" fill="#FFCEC9"/>
<path d="M127.111 38.9716C127.111 38.9716 123.438 43.9899 128.441 53.7524C133.445 63.5148 124.689 62.4763 120.103 62.4763C115.516 62.4763 107.386 61.8531 110.722 54.9986C114.057 48.1442 114.057 43.3668 112.598 40.4588C111.139 37.5509 127.111 38.9716 127.111 38.9716Z" fill="#FFCEC9"/>
<path d="M130.128 55.451C130.445 55.7163 130.974 55.4967 131.103 55.1044C132.594 50.5592 143.519 46.1109 143.519 31.342C143.519 15.491 130.735 8.75438 124.943 8.75438C114.499 8.75438 110.561 13.8697 107.465 10.5376C105.853 8.80348 107.941 7.66978 109.39 7.13377C109.807 6.97946 109.853 6.44197 109.424 6.32643C107.98 5.93788 105.385 5.82718 102.971 8.75438C99.3751 13.1134 100.973 21.6333 106.566 21.6333C112.159 21.6333 127.939 20.6426 127.939 30.3513C127.939 39.8693 117.188 44.6265 130.128 55.451Z" fill="#0B8B00"/>
<path d="M130.128 55.451C130.445 55.7163 130.974 55.4967 131.103 55.1044C132.594 50.5592 143.519 46.1109 143.519 31.342C143.519 15.491 130.735 8.75438 124.943 8.75438C114.499 8.75438 110.561 13.8697 107.465 10.5376C105.853 8.80348 107.941 7.66978 109.39 7.13377C109.807 6.97946 109.853 6.44197 109.424 6.32643C107.98 5.93788 105.385 5.82718 102.971 8.75438C99.3751 13.1134 100.973 21.6333 106.566 21.6333C112.159 21.6333 127.939 20.6426 127.939 30.3513C127.939 39.8693 117.188 44.6265 130.128 55.451Z" fill="url(#paint23_linear_1_711)"/>
<path d="M130.128 55.451C130.445 55.7163 130.974 55.4967 131.103 55.1044C132.594 50.5592 143.519 46.1109 143.519 31.342C143.519 15.491 130.735 8.75438 124.943 8.75438C114.499 8.75438 110.561 13.8697 107.465 10.5376C105.853 8.80348 107.941 7.66978 109.39 7.13377C109.807 6.97946 109.853 6.44197 109.424 6.32643C107.98 5.93788 105.385 5.82718 102.971 8.75438C99.3751 13.1134 100.973 21.6333 106.566 21.6333C112.159 21.6333 127.939 20.6426 127.939 30.3513C127.939 39.8693 117.188 44.6265 130.128 55.451Z" fill="#0B8B00"/>
<path d="M130.128 55.451C130.445 55.7163 130.974 55.4967 131.103 55.1044C132.594 50.5592 143.519 46.1109 143.519 31.342C143.519 15.491 130.735 8.75438 124.943 8.75438C114.499 8.75438 110.561 13.8697 107.465 10.5376C105.853 8.80348 107.941 7.66978 109.39 7.13377C109.807 6.97946 109.853 6.44197 109.424 6.32643C107.98 5.93788 105.385 5.82718 102.971 8.75438C99.3751 13.1134 100.973 21.6333 106.566 21.6333C112.159 21.6333 127.939 20.6426 127.939 30.3513C127.939 39.8693 117.188 44.6265 130.128 55.451Z" fill="url(#paint24_linear_1_711)"/>
<mask id="mask1_1_711" style="mask-type:alpha" maskUnits="userSpaceOnUse" x="102" y="17" width="31" height="36">
<path d="M105.979 22.0402C105.979 22.0402 108.712 31.7995 103.617 35.5684C100.441 39.5701 106.532 37.1314 106.532 41.7871C106.532 46.4428 105.979 53.8698 117.793 51.7526C134.849 47.5402 132.856 30.0259 131.748 26.4787C130.64 22.9314 122.223 14.9502 107.604 18.7191C104.944 19.3864 105.979 22.0402 105.979 22.0402Z" fill="#FFCEC9"/>
</mask>
<g mask="url(#mask1_1_711)">
<path d="M102.822 32.3278C102.588 31.6604 102.692 30.9173 103.114 30.3434C104.367 28.6481 107.686 25.5691 113.722 28.9996C121.42 33.3734 106.136 41.774 102.822 32.3278Z" fill="url(#paint25_linear_1_711)" style="mix-blend-mode:multiply"/>
</g>
<path d="M113.095 15.53C112.727 14.8504 112.889 14.0938 113.554 13.5093C115.529 11.7832 120.758 8.64799 130.269 12.1411C142.398 16.5947 118.317 25.1485 113.095 15.53Z" fill="url(#paint26_linear_1_711)" style="mix-blend-mode:multiply"/>
<path d="M112.972 18.4252C113.65 17.0246 114.97 16.0289 116.522 15.791C121.116 15.0977 131.082 15.4567 135.121 30.1574C140.273 48.9034 103.392 38.2618 112.972 18.4252Z" fill="url(#paint27_linear_1_711)" style="mix-blend-mode:multiply"/>
<path d="M115.619 86.1477C115.619 86.2837 115.563 86.394 115.495 86.394C115.427 86.394 115.372 86.2837 115.372 86.1477C115.372 86.0118 115.427 85.9015 115.495 85.9015C115.563 85.9015 115.619 86.0118 115.619 86.1477Z" fill="#C4C4C4"/>
<defs>
<linearGradient id="paint0_linear_1_711" x1="130.179" y1="103.727" x2="124.365" y2="103.727" gradientUnits="userSpaceOnUse">
<stop stop-color="#7B22F3"/>
<stop offset="1" stop-color="#AD00FF"/>
</linearGradient>
<linearGradient id="paint1_linear_1_711" x1="159.85" y1="58.3685" x2="159.85" y2="120.619" gradientUnits="userSpaceOnUse">
<stop stop-color="#FF7D01"/>
<stop offset="1" stop-color="#FEB200"/>
</linearGradient>
<linearGradient id="paint2_linear_1_711" x1="166.286" y1="76.0466" x2="166.328" y2="74.7994" gradientUnits="userSpaceOnUse">
<stop/>
<stop offset="1"/>
</linearGradient>
<linearGradient id="paint3_linear_1_711" x1="151.544" y1="76.0466" x2="151.585" y2="74.7994" gradientUnits="userSpaceOnUse">
<stop/>
<stop offset="1"/>
</linearGradient>
<linearGradient id="paint4_linear_1_711" x1="167.842" y1="96.2761" x2="167.842" y2="120.401" gradientUnits="userSpaceOnUse">
<stop stop-color="#FEB200" stop-opacity="0"/>
<stop offset="1" stop-color="#FF7D01"/>
</linearGradient>
<linearGradient id="paint5_linear_1_711" x1="155.638" y1="96.2761" x2="155.638" y2="120.401" gradientUnits="userSpaceOnUse">
<stop stop-color="#FEB200" stop-opacity="0"/>
<stop offset="1" stop-color="#FF7D01"/>
</linearGradient>
<linearGradient id="paint6_linear_1_711" x1="120.309" y1="58.0789" x2="120.309" y2="120.62" gradientUnits="userSpaceOnUse">
<stop stop-color="#00D1FF"/>
<stop offset="1" stop-color="#83B4FF"/>
</linearGradient>
<linearGradient id="paint7_linear_1_711" x1="98.7037" y1="58.3417" x2="98.7037" y2="120.62" gradientUnits="userSpaceOnUse">
<stop stop-color="#E2F1FF"/>
<stop offset="1" stop-color="#C9E4FC"/>
</linearGradient>
<linearGradient id="paint8_linear_1_711" x1="52.4095" y1="74.8977" x2="52.4095" y2="90.9718" gradientUnits="userSpaceOnUse">
<stop stop-color="#D17F6A"/>
<stop offset="1" stop-color="#964651"/>
</linearGradient>
<linearGradient id="paint9_linear_1_711" x1="64.8874" y1="79.7369" x2="64.8874" y2="156.663" gradientUnits="userSpaceOnUse">
<stop stop-color="#D17F6A"/>
<stop offset="1" stop-color="#964651"/>
</linearGradient>
<linearGradient id="paint10_linear_1_711" x1="64.8874" y1="79.7369" x2="64.8874" y2="156.663" gradientUnits="userSpaceOnUse">
<stop stop-color="#D17F6A"/>
<stop offset="1" stop-color="#964651"/>
</linearGradient>
<linearGradient id="paint11_linear_1_711" x1="64.8874" y1="79.7369" x2="64.8874" y2="156.663" gradientUnits="userSpaceOnUse">
<stop stop-color="#D17F6A"/>
<stop offset="1" stop-color="#964651"/>
</linearGradient>
<linearGradient id="paint12_linear_1_711" x1="55.3722" y1="101.908" x2="55.3722" y2="120.621" gradientUnits="userSpaceOnUse">
<stop stop-color="#C27164" stop-opacity="0"/>
<stop offset="0.276042" stop-color="#C27164"/>
<stop offset="1" stop-color="#D17F6A"/>
</linearGradient>
<linearGradient id="paint13_linear_1_711" x1="91.0509" y1="100.681" x2="91.0509" y2="120.619" gradientUnits="userSpaceOnUse">
<stop stop-color="#C27164" stop-opacity="0"/>
<stop offset="0.276042" stop-color="#C27164"/>
<stop offset="1" stop-color="#D17F6A"/>
</linearGradient>
<linearGradient id="paint14_linear_1_711" x1="56.8538" y1="72.1154" x2="56.8538" y2="80.0782" gradientUnits="userSpaceOnUse">
<stop stop-color="#964651"/>
<stop offset="1" stop-color="#964651" stop-opacity="0"/>
</linearGradient>
<linearGradient id="paint15_linear_1_711" x1="64.8472" y1="79.7277" x2="64.8472" y2="156.751" gradientUnits="userSpaceOnUse">
<stop stop-color="#D17F6A"/>
<stop offset="1" stop-color="#964651"/>
</linearGradient>
<linearGradient id="paint16_linear_1_711" x1="64.8472" y1="79.7277" x2="64.8472" y2="156.751" gradientUnits="userSpaceOnUse">
<stop stop-color="#D17F6A"/>
<stop offset="1" stop-color="#964651"/>
</linearGradient>
<linearGradient id="paint17_linear_1_711" x1="64.8472" y1="79.7277" x2="64.8472" y2="156.751" gradientUnits="userSpaceOnUse">
<stop stop-color="#D17F6A"/>
<stop offset="1" stop-color="#964651"/>
</linearGradient>
<linearGradient id="paint18_linear_1_711" x1="40.064" y1="89.7164" x2="38.0887" y2="89.7164" gradientUnits="userSpaceOnUse">
<stop stop-color="#4B1C3C"/>
<stop offset="1" stop-color="#4B1C3C" stop-opacity="0"/>
</linearGradient>
<linearGradient id="paint19_linear_1_711" x1="38.3361" y1="90.9496" x2="37.1015" y2="90.9496" gradientUnits="userSpaceOnUse">
<stop stop-color="#4B1C3C"/>
<stop offset="1" stop-color="#4B1C3C" stop-opacity="0"/>
</linearGradient>
<linearGradient id="paint20_linear_1_711" x1="43.5826" y1="90.9496" x2="40.8048" y2="90.9496" gradientUnits="userSpaceOnUse">
<stop stop-color="#4B1C3C"/>
<stop offset="1" stop-color="#4B1C3C" stop-opacity="0"/>
</linearGradient>
<linearGradient id="paint21_linear_1_711" x1="140.309" y1="58.3249" x2="140.309" y2="120.619" gradientUnits="userSpaceOnUse">
<stop stop-color="#E2F1FF"/>
<stop offset="1" stop-color="#C9E4FC"/>
</linearGradient>
<linearGradient id="paint22_linear_1_711" x1="134.506" y1="82.2094" x2="134.506" y2="104.862" gradientUnits="userSpaceOnUse">
<stop stop-color="#A1AFFF"/>
<stop offset="1" stop-color="#0026FF"/>
</linearGradient>
<linearGradient id="paint23_linear_1_711" x1="120.768" y1="14.8185" x2="120.768" y2="92.5099" gradientUnits="userSpaceOnUse">
<stop stop-color="#D17F6A"/>
<stop offset="1" stop-color="#964651"/>
</linearGradient>
<linearGradient id="paint24_linear_1_711" x1="120.768" y1="14.8185" x2="120.768" y2="92.5099" gradientUnits="userSpaceOnUse">
<stop stop-color="#D17F6A"/>
<stop offset="1" stop-color="#964651"/>
</linearGradient>
<linearGradient id="paint25_linear_1_711" x1="109.281" y1="23.2731" x2="109.281" y2="31.7823" gradientUnits="userSpaceOnUse">
<stop offset="0.00774316" stop-color="#FFB4AB"/>
<stop offset="1" stop-color="#FFCEC9" stop-opacity="0"/>
</linearGradient>
<linearGradient id="paint26_linear_1_711" x1="123.272" y1="6.3101" x2="123.272" y2="14.9745" gradientUnits="userSpaceOnUse">
<stop offset="0.00774316" stop-color="#FFB4AB"/>
<stop offset="1" stop-color="#FFCEC9" stop-opacity="0"/>
</linearGradient>
<linearGradient id="paint27_linear_1_711" x1="137.146" y1="14.3602" x2="123.909" y2="27.6342" gradientUnits="userSpaceOnUse">
<stop offset="0.00774316" stop-color="#FFB4AB"/>
<stop offset="1" stop-color="#FFCEC9" stop-opacity="0"/>
</linearGradient>
</defs>
</svg>
