<svg width="214" height="133" viewBox="0 0 214 133" fill="none" xmlns="http://www.w3.org/2000/svg">
<g opacity="0.1">
<path d="M176.762 97.8602C176.762 97.619 176.959 97.4235 177.201 97.4235H189.494C189.737 97.4235 189.933 97.619 189.933 97.8602V119.478C189.933 119.719 189.737 119.915 189.494 119.915H177.201C176.959 119.915 176.762 119.719 176.762 119.478V97.8602Z" fill="black"/>
<path d="M151.957 97.8602C151.957 97.619 152.153 97.4235 152.396 97.4235H160.298C160.541 97.4235 160.737 97.619 160.737 97.8602V119.478C160.737 119.719 160.541 119.915 160.298 119.915H152.396C152.153 119.915 151.957 119.719 151.957 119.478V97.8602Z" fill="black"/>
<path d="M145.371 98.6245C145.371 97.9612 145.912 97.4235 146.578 97.4235H193.116C193.783 97.4235 194.324 97.9612 194.324 98.6245C194.324 99.2878 193.783 99.8255 193.116 99.8255H146.578C145.912 99.8255 145.371 99.2878 145.371 98.6245Z" fill="black"/>
<path d="M145.371 118.823C145.371 118.22 145.862 117.731 146.469 117.731H193.226C193.832 117.731 194.324 118.22 194.324 118.823C194.324 119.426 193.832 119.915 193.226 119.915H146.469C145.862 119.915 145.371 119.426 145.371 118.823Z" fill="black"/>
<path fill-rule="evenodd" clip-rule="evenodd" d="M147.566 77.9895C146.354 77.9895 145.371 78.9671 145.371 80.1731V97.6419C145.371 98.8478 146.354 99.8255 147.566 99.8255H192.129C193.341 99.8255 194.324 98.8478 194.324 97.6419V80.1731C194.324 78.9671 193.341 77.9895 192.129 77.9895H147.566ZM183.348 95.4583C186.985 95.4583 189.933 92.5254 189.933 88.9075C189.933 85.2896 186.985 82.3567 183.348 82.3567C179.711 82.3567 176.762 85.2896 176.762 88.9075C176.762 92.5254 179.711 95.4583 183.348 95.4583Z" fill="black"/>
</g>
<path d="M141.217 91.7407C142.974 95.3574 141.089 97.3619 139.16 99.3227C132.518 105.118 126.261 99.497 125.619 96.0546C124.976 92.6122 127.161 86.0325 127.847 86.0325C128.533 86.0325 129.647 88.8648 131.147 87.9498C132.076 87.3831 134.92 87.3833 135.38 87.3833L135.389 87.3833C135.818 87.3833 136.375 86.0325 136.803 86.0325C137.232 86.0325 139.46 88.1241 141.217 91.7407Z" fill="url(#paint0_linear_1_617)"/>
<path d="M89.1624 108.428L80.8023 95.4792C79.9542 90.798 79.0576 81.4356 82.2562 81.4356C85.4549 81.4356 92.0703 98.5797 94.9781 107.152L89.1624 108.428Z" fill="#FFCEC9"/>
<path d="M89.1624 108.428L80.8023 95.4792C79.9542 90.798 79.0576 81.4356 82.2562 81.4356C85.4549 81.4356 92.0703 98.5797 94.9781 107.152L89.1624 108.428Z" fill="url(#paint1_linear_1_617)" style="mix-blend-mode:multiply"/>
<path d="M82.6943 74.8328C77.8683 74.8328 71.7869 68.9731 69.3495 66.0433L77.5758 62.1978C77.5758 62.1978 79.221 68.4238 81.5975 68.9731C88.3612 68.9731 92.5658 68.9731 96.4047 69.5225C99.4449 69.9575 101.097 73.1848 101.889 74.2834H100.975C99.9998 73.7951 97.6112 72.8185 95.8562 72.8185C93.6626 72.8185 86.716 74.8328 82.6943 74.8328Z" fill="#FFCEC9"/>
<path d="M63.76 48.3223C63.1372 49.0649 62.6342 49.5157 62.4386 49.5157C62.4386 49.5157 62.76 48.7007 63.76 48.3223C65.3604 46.4139 67.752 42.5782 67.752 39.5099C70.079 39.9586 74.8726 40.9008 75.4311 41.0803C76.1292 41.3046 75.4653 44.0722 72.4402 45.6425C69.4151 47.2129 75.4311 54.0345 69.6136 50.0537C66.6266 48.0097 64.8154 47.9229 63.76 48.3223Z" fill="#FFCEC9"/>
<path d="M81.6616 32.5756C81.6616 32.5756 79.1337 36.8658 81.0444 39.294C82.0249 41.5921 79.4767 39.6704 78.8828 41.8806C78.2889 44.0908 77.6015 47.686 72.3255 45.199C64.8567 41.06 68.0265 32.9955 68.9989 31.4504C69.9712 29.9054 74.9404 27.1722 81.322 30.7951C82.4857 31.4456 81.6616 32.5756 81.6616 32.5756Z" fill="#FFCEC9"/>
<path d="M66.6707 45.1243C66.2413 45.3465 65.641 44.9239 65.4912 44.4652C64.7184 42.0989 61.0485 38.5975 62.7819 32.1464C64.8278 24.5322 71.7854 22.9228 74.544 23.66C79.5176 24.9889 80.7329 27.9473 82.6374 26.7407C83.3036 26.3186 83.139 25.8142 82.771 25.3947C82.4306 25.0065 82.5554 24.4353 83.0516 24.5807C83.7143 24.7749 84.475 25.2732 85.0079 26.456C86.1575 29.0074 84.2968 32.8967 81.6333 32.185C78.9698 31.4733 71.5827 28.9894 70.3296 33.6531C69.1364 38.0936 73.3521 41.6673 66.6707 45.1243Z" fill="#0B8B00"/>
<path d="M66.6707 45.1243C66.2413 45.3465 65.641 44.9239 65.4912 44.4652C64.7184 42.0989 61.0485 38.5975 62.7819 32.1464C64.8278 24.5322 71.7854 22.9228 74.544 23.66C79.5176 24.9889 80.7329 27.9473 82.6374 26.7407C83.3036 26.3186 83.139 25.8142 82.771 25.3947C82.4306 25.0065 82.5554 24.4353 83.0516 24.5807C83.7143 24.7749 84.475 25.2732 85.0079 26.456C86.1575 29.0074 84.2968 32.8967 81.6333 32.185C78.9698 31.4733 71.5827 28.9894 70.3296 33.6531C69.1364 38.0936 73.3521 41.6673 66.6707 45.1243Z" fill="url(#paint2_linear_1_617)"/>
<path d="M66.6707 45.1243C66.2413 45.3465 65.641 44.9239 65.4912 44.4652C64.7184 42.0989 61.0485 38.5975 62.7819 32.1464C64.8278 24.5322 71.7854 22.9228 74.544 23.66C79.5176 24.9889 80.7329 27.9473 82.6374 26.7407C83.3036 26.3186 83.139 25.8142 82.771 25.3947C82.4306 25.0065 82.5554 24.4353 83.0516 24.5807C83.7143 24.7749 84.475 25.2732 85.0079 26.456C86.1575 29.0074 84.2968 32.8967 81.6333 32.185C78.9698 31.4733 71.5827 28.9894 70.3296 33.6531C69.1364 38.0936 73.3521 41.6673 66.6707 45.1243Z" fill="#0B8B00"/>
<path d="M66.6707 45.1243C66.2413 45.3465 65.641 44.9239 65.4912 44.4652C64.7184 42.0989 61.0485 38.5975 62.7819 32.1464C64.8278 24.5322 71.7854 22.9228 74.544 23.66C79.5176 24.9889 80.7329 27.9473 82.6374 26.7407C83.3036 26.3186 83.139 25.8142 82.771 25.3947C82.4306 25.0065 82.5554 24.4353 83.0516 24.5807C83.7143 24.7749 84.475 25.2732 85.0079 26.456C86.1575 29.0074 84.2968 32.8967 81.6333 32.185C78.9698 31.4733 71.5827 28.9894 70.3296 33.6531C69.1364 38.0936 73.3521 41.6673 66.6707 45.1243Z" fill="url(#paint3_linear_1_617)"/>
<mask id="mask0_1_617" style="mask-type:alpha" maskUnits="userSpaceOnUse" x="67" y="28" width="16" height="19">
<path d="M81.823 32.5964C81.823 32.5964 79.2724 36.8965 81.2164 39.3397C82.217 41.6497 79.6281 39.7131 79.0323 41.9304C78.4366 44.1477 77.7499 47.7553 72.394 45.2435C64.8102 41.0669 68.0009 32.9793 68.9823 31.4309C69.9637 29.8825 74.9936 27.1525 81.4737 30.8079C82.6552 31.4642 81.823 32.5964 81.823 32.5964Z" fill="#FFCEC9"/>
</mask>
<g mask="url(#mask0_1_617)">
<path d="M82.0099 37.8958C82.2065 37.6076 82.2524 37.2406 82.1248 36.9135C81.745 35.9467 80.5583 34.058 77.2445 34.9236C73.0187 36.027 79.2225 41.9727 82.0099 37.8958Z" fill="url(#paint4_linear_1_617)" style="mix-blend-mode:multiply"/>
</g>
<path d="M79.1316 28.5666C79.3869 28.2984 79.4052 27.9287 79.1688 27.5762C78.4663 26.5339 76.4271 24.4369 71.5772 24.8703C65.3923 25.4225 75.5128 32.3616 79.1316 28.5666Z" fill="url(#paint5_linear_1_617)" style="mix-blend-mode:multiply"/>
<path d="M78.9554 29.9833C78.8118 29.23 78.3106 28.5879 77.6019 28.277C75.5028 27.3623 70.7103 26.265 66.9057 32.7523C62.0531 41.0244 80.9792 40.6496 78.9554 29.9833Z" fill="url(#paint6_linear_1_617)" style="mix-blend-mode:multiply"/>
<path d="M77.1754 83.4285C71.5942 83.4285 66.9977 90.5008 53.3181 90.5008C44.6832 90.5008 41.4989 80.1393 40.3246 72.4972C39.9431 70.0143 36.5422 69.0741 35.2183 71.211C26.0406 86.0251 8.26476 120.205 39.6386 120.205C59.6093 120.205 68.997 119.745 73.3902 119.284C75.2726 119.086 79.0334 117.244 80.5019 116.053C83.3232 113.765 86.9153 109.904 86.9153 105.081C86.9153 97.138 82.7565 83.4285 77.1754 83.4285Z" fill="#FE973C"/>
<path d="M77.1754 83.4285C71.5942 83.4285 66.9977 90.5008 53.3181 90.5008C44.6832 90.5008 41.4989 80.1393 40.3246 72.4972C39.9431 70.0143 36.5422 69.0741 35.2183 71.211C26.0406 86.0251 8.26476 120.205 39.6386 120.205C59.6093 120.205 68.997 119.745 73.3902 119.284C75.2726 119.086 79.0334 117.244 80.5019 116.053C83.3232 113.765 86.9153 109.904 86.9153 105.081C86.9153 97.138 82.7565 83.4285 77.1754 83.4285Z" fill="url(#paint7_linear_1_617)"/>
<path d="M57.5824 89.9125C41.7288 89.9125 42.6585 81.658 45.105 77.5308C51.5272 77.2273 64.3715 76.8025 64.3715 77.5308C64.3715 78.4412 66.2064 79.7158 74.647 79.7158C83.0875 79.7158 87.4913 81.9008 87.4913 85.3604C87.4913 88.82 85.2894 91.3691 83.8215 93.3721C82.6471 94.9744 76.3595 104.843 73.3625 109.577L68.2248 107.028C68.7141 106.3 69.8395 103.605 70.4267 98.6525C71.0079 93.7499 74.394 90.7029 76.0642 89.7587C75.435 89.8224 71.2355 89.9125 57.5824 89.9125Z" fill="#FFCEC9"/>
<path d="M47.0205 90.9118C41.8057 90.9118 41.5649 82.5499 42.2993 80.8413C48.4188 79.0716 61.5544 77.035 62.2888 77.9137C63.2067 79.0122 77.71 78.8291 77.8936 78.8291C78.0772 78.8291 86.8893 80.1106 79.9131 82.1244C75.2996 83.4561 73.4627 87.048 72.9299 89.5288C72.7666 90.2894 72.133 90.9118 71.353 90.9118H62.8395H47.0205Z" fill="url(#paint8_linear_1_617)"/>
<path d="M67.2177 46.6901C53.5053 46.6901 39.7109 66.2069 41.5905 85.1692C41.5905 85.1692 45.1987 80.824 51.947 82.4941C58.6954 84.1642 72.2182 84.1712 66.3866 79.4152C60.555 74.6592 64.1309 72.1552 66.3866 68.0069C66.6636 68.9727 68.0487 70.9043 68.0487 70.9043C74.1985 68.2553 77.8136 65.9373 78.8524 65.1095C74.4894 59.5216 74.9049 46.6901 67.2177 46.6901Z" fill="url(#paint9_linear_1_617)"/>
<path opacity="0.2" fill-rule="evenodd" clip-rule="evenodd" d="M107.912 120.081L121.158 76.1454L120.055 75.8147L106.808 119.75L107.912 120.081Z" fill="black"/>
<path opacity="0.2" fill-rule="evenodd" clip-rule="evenodd" d="M120.055 120.081L106.809 76.1454L107.912 75.8147L121.158 119.75L120.055 120.081Z" fill="black"/>
<path d="M94.402 73.9564H116.52V75.0411C116.52 75.4005 116.226 75.6919 115.863 75.6919H95.059C94.6962 75.6919 94.402 75.4005 94.402 75.0411V73.9564Z" fill="#6B85AC"/>
<path d="M114.111 75.6919L125.882 56.1652L126.901 56.7478C127.215 56.9276 127.323 57.3256 127.141 57.6369L116.798 75.3837C116.617 75.695 116.301 75.6919 116.301 75.6919H114.111Z" fill="#6B85AC"/>
<path d="M139.323 75.6956H88.9308V76.2699C88.9308 76.9043 89.4465 77.4185 90.0827 77.4185H138.172C138.808 77.4185 139.323 76.9043 139.323 76.2699V75.6956Z" fill="white"/>
<path d="M82.1383 120.201H64.4942C60.2436 120.201 66.4395 110.077 67.0673 109.002L72.5811 110.654C71.8459 111.695 71.0372 114.069 73.6838 115.244C76.9921 116.713 85.5478 117.895 84.5276 118.916C84.0085 119.435 84.16 120.201 82.1383 120.201Z" fill="url(#paint10_linear_1_617)"/>
<path d="M82.1383 120.201H64.4942C60.2436 120.201 66.4395 110.077 67.0673 109.002L72.5811 110.654C71.8459 111.695 71.0372 114.069 73.6838 115.244C76.9921 116.713 85.5478 117.895 84.5276 118.916C84.0085 119.435 84.16 120.201 82.1383 120.201Z" fill="url(#paint11_linear_1_617)"/>
<path d="M82.1383 120.201H64.4942C60.2436 120.201 66.4395 110.077 67.0673 109.002L72.5811 110.654C71.8459 111.695 71.0372 114.069 73.6838 115.244C76.9921 116.713 85.5478 117.895 84.5276 118.916C84.0085 119.435 84.16 120.201 82.1383 120.201Z" fill="url(#paint12_linear_1_617)"/>
<path d="M82.1383 120.201H64.4942C60.2436 120.201 66.4395 110.077 67.0673 109.002L72.5811 110.654C71.8459 111.695 71.0372 114.069 73.6838 115.244C76.9921 116.713 85.5478 117.895 84.5276 118.916C84.0085 119.435 84.16 120.201 82.1383 120.201Z" fill="url(#paint13_linear_1_617)"/>
<path d="M67.4248 106.905C67.6831 106.19 68.5147 105.944 69.1933 106.291L72.8317 108.148C73.5739 108.527 73.832 109.451 73.4689 110.2C73.3301 110.486 73.2055 110.772 73.1323 111.007C73.1142 111.065 73.0957 111.122 73.0769 111.177C72.8472 111.846 72.0843 112.072 71.4394 111.777L67.9055 110.162C67.0234 109.759 66.8088 108.607 67.1614 107.705C67.1989 107.609 67.2323 107.512 67.2602 107.414C67.3111 107.235 67.3671 107.065 67.4248 106.905Z" fill="#C4C4C4"/>
<path d="M67.4248 106.905C67.6831 106.19 68.5147 105.944 69.1933 106.291L72.8317 108.148C73.5739 108.527 73.832 109.451 73.4689 110.2C73.3301 110.486 73.2055 110.772 73.1323 111.007C73.1142 111.065 73.0957 111.122 73.0769 111.177C72.8472 111.846 72.0843 112.072 71.4394 111.777L67.9055 110.162C67.0234 109.759 66.8088 108.607 67.1614 107.705C67.1989 107.609 67.2323 107.512 67.2602 107.414C67.3111 107.235 67.3671 107.065 67.4248 106.905Z" fill="url(#paint14_linear_1_617)"/>
<path d="M67.4248 106.905C67.6831 106.19 68.5147 105.944 69.1933 106.291L72.8317 108.148C73.5739 108.527 73.832 109.451 73.4689 110.2C73.3301 110.486 73.2055 110.772 73.1323 111.007C73.1142 111.065 73.0957 111.122 73.0769 111.177C72.8472 111.846 72.0843 112.072 71.4394 111.777L67.9055 110.162C67.0234 109.759 66.8088 108.607 67.1614 107.705C67.1989 107.609 67.2323 107.512 67.2602 107.414C67.3111 107.235 67.3671 107.065 67.4248 106.905Z" fill="url(#paint15_linear_1_617)"/>
<path d="M67.4248 106.905C67.6831 106.19 68.5147 105.944 69.1933 106.291L72.8317 108.148C73.5739 108.527 73.832 109.451 73.4689 110.2C73.3301 110.486 73.2055 110.772 73.1323 111.007C73.1142 111.065 73.0957 111.122 73.0769 111.177C72.8472 111.846 72.0843 112.072 71.4394 111.777L67.9055 110.162C67.0234 109.759 66.8088 108.607 67.1614 107.705C67.1989 107.609 67.2323 107.512 67.2602 107.414C67.3111 107.235 67.3671 107.065 67.4248 106.905Z" fill="url(#paint16_linear_1_617)"/>
<path d="M97.9992 113.568C96.0703 112.678 95.3689 110.303 95.2593 109.227C92.7752 107.223 89.2556 107.574 89.3412 109.227C89.67 115.572 88.3549 115.906 88.3549 117.687C88.3549 119.468 89.5604 119.913 90.5467 119.913H104.904C107.095 119.913 106.767 119.468 106.767 119.023C106.767 116.908 100.41 114.681 97.9992 113.568Z" fill="url(#paint17_linear_1_617)"/>
<path d="M88.5887 109.25C88.3143 108.649 88.5152 107.847 89.1623 107.705L94.3917 106.557C95.1219 106.397 95.8537 106.821 96.0758 107.533L96.2317 108.033C96.4867 108.85 95.9725 109.707 95.1297 109.869L90.364 110.786C89.4894 110.955 88.9575 110.059 88.5887 109.25V109.25V109.25Z" fill="#C4C4C4"/>
<path d="M88.5887 109.25C88.3143 108.649 88.5152 107.847 89.1623 107.705L94.3917 106.557C95.1219 106.397 95.8537 106.821 96.0758 107.533L96.2317 108.033C96.4867 108.85 95.9725 109.707 95.1297 109.869L90.364 110.786C89.4894 110.955 88.9575 110.059 88.5887 109.25V109.25V109.25Z" fill="url(#paint18_linear_1_617)"/>
<path d="M88.5887 109.25C88.3143 108.649 88.5152 107.847 89.1623 107.705L94.3917 106.557C95.1219 106.397 95.8537 106.821 96.0758 107.533L96.2317 108.033C96.4867 108.85 95.9725 109.707 95.1297 109.869L90.364 110.786C89.4894 110.955 88.9575 110.059 88.5887 109.25V109.25V109.25Z" fill="url(#paint19_linear_1_617)"/>
<path d="M88.5887 109.25C88.3143 108.649 88.5152 107.847 89.1623 107.705L94.3917 106.557C95.1219 106.397 95.8537 106.821 96.0758 107.533L96.2317 108.033C96.4867 108.85 95.9725 109.707 95.1297 109.869L90.364 110.786C89.4894 110.955 88.9575 110.059 88.5887 109.25V109.25V109.25Z" fill="url(#paint20_linear_1_617)"/>
<path d="M153.541 106.476C153.541 100.398 157.177 100.398 157.177 98.3001C157.177 95.1324 151.615 96.0742 151.615 105.277C151.615 114.481 147.209 114.952 145.455 116.193C143.701 117.434 131.081 119.054 141.991 119.054C152.9 119.054 153.541 112.554 153.541 106.476Z" fill="url(#paint21_linear_1_617)"/>
<path d="M142.1 97.4122C151.318 101.577 151.706 108.447 151.706 108.92C151.706 125.022 143.779 118.322 132.149 119.517C131.196 119.615 130.813 109.907 127.884 106.343C125.541 103.492 126.247 99.2013 126.893 97.4122C128.889 96.0239 134.725 94.0802 142.1 97.4122Z" fill="url(#paint22_linear_1_617)"/>
<path d="M141.335 91.9103C143.105 95.4736 141.206 97.4485 139.263 99.3804C132.571 105.09 126.267 99.5521 125.62 96.1605C124.972 92.7689 127.174 86.2863 127.865 86.2863C128.556 86.2863 129.678 89.0768 131.189 88.1752C132.125 87.6169 134.991 87.6171 135.454 87.6171L135.463 87.6171C135.895 87.6171 136.456 85.7433 136.888 85.7433C137.32 85.7433 139.565 88.347 141.335 91.9103Z" fill="url(#paint23_linear_1_617)"/>
<path d="M129.708 108.714C129.708 108.714 132.142 114.461 131.348 117.237C131.239 117.617 130.813 117.759 130.417 117.787C129.915 117.822 129.276 118.073 129.045 119.057C128.937 119.52 129.344 119.913 129.821 119.913H131.936C132.201 119.913 132.449 119.792 132.587 119.566C133.182 118.592 134.716 115.51 134.716 109.644" fill="url(#paint24_linear_1_617)"/>
<path d="M136.582 109.002C136.582 109.002 138.876 114.559 138.148 117.275C138.044 117.663 137.61 117.807 137.209 117.847C136.743 117.893 136.173 118.148 135.957 119.059C135.847 119.522 136.255 119.914 136.732 119.914H138.67C138.939 119.914 139.19 119.79 139.326 119.559C139.898 118.592 141.339 115.59 141.339 109.908" fill="url(#paint25_linear_1_617)"/>
<path d="M128.247 94.4641C128.557 95.6078 129.631 96.2656 130.647 95.9335C131.663 95.6013 132.236 94.405 131.926 93.2614C131.616 92.1177 130.542 91.4599 129.526 91.792C128.51 92.1242 127.938 93.3205 128.247 94.4641Z" fill="white"/>
<path d="M134.816 93.747C135.125 94.8906 136.2 95.5484 137.216 95.2163C138.232 94.8841 138.804 93.6878 138.495 92.5442C138.185 91.4006 137.11 90.7427 136.095 91.0749C135.079 91.407 134.506 92.6034 134.816 93.747Z" fill="white"/>
<path d="M128.748 94.6085C128.996 95.5256 129.842 96.0585 130.636 95.7987C131.431 95.5389 131.874 94.5849 131.625 93.6678C131.377 92.7507 130.532 92.2178 129.737 92.4776C128.943 92.7374 128.5 93.6914 128.748 94.6085Z" fill="white"/>
<path d="M128.748 94.6085C128.996 95.5256 129.842 96.0585 130.636 95.7987C131.431 95.5389 131.874 94.5849 131.625 93.6678C131.377 92.7507 130.532 92.2178 129.737 92.4776C128.943 92.7374 128.5 93.6914 128.748 94.6085Z" fill="url(#paint26_linear_1_617)"/>
<path d="M135.317 93.8946C135.565 94.8117 136.41 95.3445 137.205 95.0848C137.999 94.825 138.442 93.871 138.194 92.9539C137.946 92.0368 137.1 91.5039 136.306 91.7637C135.511 92.0234 135.068 92.9775 135.317 93.8946Z" fill="white"/>
<path d="M135.317 93.8946C135.565 94.8117 136.41 95.3445 137.205 95.0848C137.999 94.825 138.442 93.871 138.194 92.9539C137.946 92.0368 137.1 91.5039 136.306 91.7637C135.511 92.0234 135.068 92.9775 135.317 93.8946Z" fill="url(#paint27_linear_1_617)"/>
<path d="M129.884 93.2365C129.903 93.0604 129.803 92.9176 129.662 92.9176C129.521 92.9176 129.392 93.0604 129.373 93.2365C129.355 93.4126 129.455 93.5553 129.596 93.5553C129.737 93.5553 129.866 93.4126 129.884 93.2365Z" fill="white"/>
<path d="M136.453 92.5247C136.471 92.3486 136.372 92.2059 136.231 92.2059C136.089 92.2059 135.96 92.3486 135.942 92.5247C135.924 92.7008 136.023 92.8436 136.164 92.8436C136.306 92.8436 136.435 92.7008 136.453 92.5247Z" fill="white"/>
<path d="M134.248 97.3397L134.39 97.1293C134.67 96.7113 134.315 96.1608 133.817 96.2431L133.509 96.294C133.042 96.3712 132.863 96.9473 133.204 97.2747L133.371 97.4343C133.629 97.6818 134.049 97.6365 134.248 97.3397Z" fill="#FF5E88"/>
<path fill-rule="evenodd" clip-rule="evenodd" d="M130.571 98.1642C131.287 98.039 132.013 97.9449 132.463 97.8967C132.502 97.8925 132.531 97.8571 132.527 97.8177C132.522 97.7783 132.487 97.7497 132.447 97.754C131.995 97.8025 131.265 97.8969 130.546 98.0228C129.83 98.1484 129.116 98.3065 128.699 98.484C128.663 98.4995 128.646 98.5417 128.661 98.5782C128.677 98.6146 128.719 98.6316 128.756 98.616C129.155 98.4458 129.854 98.2899 130.571 98.1642Z" fill="black"/>
<path fill-rule="evenodd" clip-rule="evenodd" d="M127.465 96.8951C129.306 96.8626 131.052 97.021 132.097 97.177C132.136 97.1829 132.173 97.1558 132.179 97.1166C132.185 97.0774 132.158 97.0409 132.118 97.035C131.067 96.8779 129.312 96.7189 127.462 96.7515C125.614 96.7841 123.662 97.0081 122.221 97.6224C122.184 97.6379 122.167 97.6801 122.183 97.7166C122.199 97.753 122.241 97.77 122.278 97.7544C123.693 97.1513 125.622 96.9276 127.465 96.8951Z" fill="black"/>
<path fill-rule="evenodd" clip-rule="evenodd" d="M129.59 97.7526C130.738 97.59 131.792 97.5527 132.411 97.5682C132.45 97.5692 132.483 97.5378 132.484 97.4982C132.485 97.4586 132.454 97.4256 132.414 97.4246C131.788 97.409 130.725 97.4467 129.57 97.6104C128.415 97.774 127.162 98.0641 126.158 98.5558C126.122 98.5733 126.107 98.6163 126.125 98.6519C126.142 98.6875 126.185 98.7022 126.221 98.6847C127.206 98.2026 128.442 97.9152 129.59 97.7526Z" fill="black"/>
<path fill-rule="evenodd" clip-rule="evenodd" d="M135.777 97.0222C135.734 97.0263 135.701 97.0293 135.681 97.031C135.641 97.0342 135.615 97.0684 135.623 97.1073C135.631 97.1461 135.669 97.175 135.709 97.1718C135.73 97.1701 135.763 97.167 135.806 97.1629C136.575 97.0909 140.77 96.6978 144.548 97.7119C144.588 97.7226 144.626 97.7009 144.632 97.6633C144.639 97.6258 144.612 97.5867 144.572 97.5761C140.764 96.5538 136.542 96.9504 135.777 97.0222Z" fill="black"/>
<path fill-rule="evenodd" clip-rule="evenodd" d="M135.28 97.3698C135.279 97.4085 135.311 97.4439 135.351 97.4488C136.108 97.5414 137.297 97.7688 138.403 98.1491C138.956 98.3393 139.486 98.5669 139.93 98.8336C140.374 99.1007 140.727 99.4036 140.933 99.7425C140.954 99.7777 140.999 99.7926 141.033 99.7757C141.068 99.7589 141.078 99.7167 141.057 99.6815C140.831 99.3106 140.453 98.9902 139.997 98.7159C139.539 98.4411 138.998 98.209 138.438 98.0166C137.319 97.6317 136.119 97.4023 135.354 97.3087C135.313 97.3037 135.28 97.3311 135.28 97.3698Z" fill="black"/>
<path fill-rule="evenodd" clip-rule="evenodd" d="M135.61 96.728C135.61 96.728 135.61 96.728 135.633 96.7963L135.61 96.728C135.572 96.7362 135.551 96.7737 135.564 96.8119C135.577 96.85 135.618 96.8743 135.656 96.8661L135.633 96.797C135.656 96.8661 135.656 96.8661 135.656 96.8661L135.657 96.8659L135.66 96.8654L135.67 96.8633C135.678 96.8615 135.692 96.8588 135.709 96.8552C135.744 96.8481 135.797 96.8377 135.865 96.8246C136.002 96.7985 136.205 96.7616 136.465 96.7188C136.986 96.6332 137.74 96.5237 138.668 96.4288C140.525 96.2388 143.081 96.1069 145.878 96.3386C145.918 96.3419 145.95 96.3131 145.949 96.2743C145.948 96.2354 145.914 96.2012 145.874 96.1978C143.066 95.9652 140.5 96.0977 138.637 96.2882C137.705 96.3835 136.949 96.4934 136.426 96.5794C136.164 96.6225 135.96 96.6595 135.822 96.6859C135.753 96.6991 135.7 96.7096 135.664 96.7168C135.646 96.7204 135.633 96.7232 135.624 96.7251L135.614 96.7272L135.61 96.728Z" fill="black"/>
<path opacity="0.2" d="M137.965 87.5455L137.47 86.4495C137.308 86.0896 136.836 86.0033 136.641 86.3464C136.504 86.5856 136.411 86.8233 136.304 87.0585C136.099 87.5075 136.329 88.1903 136.818 88.2661L137.352 88.3489C137.804 88.419 138.153 87.9613 137.965 87.5455Z" fill="url(#paint28_linear_1_617)"/>
<path opacity="0.2" d="M129.737 87.8648L128.706 86.7768C128.399 86.4528 127.858 86.5866 127.742 87.0172C127.596 87.5616 127.439 88.1493 127.28 88.7046C127.142 89.1883 127.641 89.636 128.102 89.4307L129.554 88.7836C129.916 88.6222 130.01 88.1524 129.737 87.8648Z" fill="url(#paint29_linear_1_617)"/>
<path d="M133.564 99.2403C133.564 99.5575 133.758 99.8146 133.996 99.8146C134.235 99.8146 134.428 99.5575 134.428 99.2403C134.428 98.9231 134.235 98.666 133.996 98.666C133.758 98.666 133.564 98.9231 133.564 99.2403Z" fill="url(#paint30_linear_1_617)"/>
<defs>
<linearGradient id="paint0_linear_1_617" x1="133.708" y1="86.0325" x2="133.708" y2="101.826" gradientUnits="userSpaceOnUse">
<stop stop-color="#FF7D01"/>
<stop offset="1" stop-color="#FEB200"/>
</linearGradient>
<linearGradient id="paint1_linear_1_617" x1="87.4913" y1="80.1295" x2="87.4913" y2="102.66" gradientUnits="userSpaceOnUse">
<stop offset="0.00774316" stop-color="#FFB4AB"/>
<stop offset="1" stop-color="#FFCEC9" stop-opacity="0"/>
</linearGradient>
<linearGradient id="paint2_linear_1_617" x1="75.7493" y1="27.1037" x2="65.7735" y2="64.4379" gradientUnits="userSpaceOnUse">
<stop stop-color="#D17F6A"/>
<stop offset="1" stop-color="#964651"/>
</linearGradient>
<linearGradient id="paint3_linear_1_617" x1="75.7493" y1="27.1037" x2="65.7735" y2="64.4379" gradientUnits="userSpaceOnUse">
<stop stop-color="#D17F6A"/>
<stop offset="1" stop-color="#964651"/>
</linearGradient>
<linearGradient id="paint4_linear_1_617" x1="80.0922" y1="32.7614" x2="79.0089" y2="36.8154" gradientUnits="userSpaceOnUse">
<stop offset="0.00774316" stop-color="#FFB4AB"/>
<stop offset="1" stop-color="#FFCEC9" stop-opacity="0"/>
</linearGradient>
<linearGradient id="paint5_linear_1_617" x1="75.5499" y1="23.045" x2="74.4801" y2="27.0487" gradientUnits="userSpaceOnUse">
<stop offset="0.00774316" stop-color="#FFB4AB"/>
<stop offset="1" stop-color="#FFCEC9" stop-opacity="0"/>
</linearGradient>
<linearGradient id="paint6_linear_1_617" x1="67.9627" y1="24.9711" x2="72.5713" y2="32.9756" gradientUnits="userSpaceOnUse">
<stop offset="0.00774316" stop-color="#FFB4AB"/>
<stop offset="1" stop-color="#FFCEC9" stop-opacity="0"/>
</linearGradient>
<linearGradient id="paint7_linear_1_617" x1="42.3719" y1="65.381" x2="42.3719" y2="114.438" gradientUnits="userSpaceOnUse">
<stop stop-color="#FF7D01"/>
<stop offset="1" stop-color="#FEB200"/>
</linearGradient>
<linearGradient id="paint8_linear_1_617" x1="65.8175" y1="87.095" x2="63.5813" y2="77.6399" gradientUnits="userSpaceOnUse">
<stop stop-color="#FF1C66"/>
<stop offset="1" stop-color="#FF5E88"/>
</linearGradient>
<linearGradient id="paint9_linear_1_617" x1="62.9786" y1="71.955" x2="50.2087" y2="53.3287" gradientUnits="userSpaceOnUse">
<stop stop-color="#7B22F3"/>
<stop offset="1" stop-color="#AD00FF"/>
</linearGradient>
<linearGradient id="paint10_linear_1_617" x1="66.4176" y1="118.897" x2="71.0762" y2="107.96" gradientUnits="userSpaceOnUse">
<stop stop-color="#FFAD72"/>
<stop offset="0.5" stop-color="#FFC388"/>
<stop offset="1" stop-color="#FFC98E"/>
</linearGradient>
<linearGradient id="paint11_linear_1_617" x1="73.8024" y1="109.002" x2="73.8024" y2="120.201" gradientUnits="userSpaceOnUse">
<stop stop-color="#FF7D01"/>
<stop offset="1" stop-color="#FEB200"/>
</linearGradient>
<linearGradient id="paint12_linear_1_617" x1="73.8024" y1="109.002" x2="73.8024" y2="120.201" gradientUnits="userSpaceOnUse">
<stop offset="0.666667" stop-color="#FF7D01"/>
<stop offset="1" stop-color="#FEB200"/>
</linearGradient>
<linearGradient id="paint13_linear_1_617" x1="75.6376" y1="116.965" x2="72.8354" y2="109.561" gradientUnits="userSpaceOnUse">
<stop stop-color="#FF1C66"/>
<stop offset="1" stop-color="#FF5E88"/>
</linearGradient>
<linearGradient id="paint14_linear_1_617" x1="66.9348" y1="108.398" x2="69.5803" y2="105.92" gradientUnits="userSpaceOnUse">
<stop stop-color="#FFAD72"/>
<stop offset="0.5" stop-color="#FFC388"/>
<stop offset="1" stop-color="#FFC98E"/>
</linearGradient>
<linearGradient id="paint15_linear_1_617" x1="71.0113" y1="107.399" x2="69.3739" y2="110.243" gradientUnits="userSpaceOnUse">
<stop stop-color="#FF7D01"/>
<stop offset="1" stop-color="#FEB200"/>
</linearGradient>
<linearGradient id="paint16_linear_1_617" x1="70.5033" y1="109.799" x2="71.1129" y2="107.486" gradientUnits="userSpaceOnUse">
<stop stop-color="#FF1C66"/>
<stop offset="1" stop-color="#FF5E88"/>
</linearGradient>
<linearGradient id="paint17_linear_1_617" x1="95.9706" y1="116.428" x2="99.5071" y2="108.995" gradientUnits="userSpaceOnUse">
<stop stop-color="#FF1C66"/>
<stop offset="1" stop-color="#FF5E88"/>
</linearGradient>
<linearGradient id="paint18_linear_1_617" x1="89.0217" y1="109.749" x2="88.8234" y2="107.14" gradientUnits="userSpaceOnUse">
<stop stop-color="#FFAD72"/>
<stop offset="0.5" stop-color="#FFC388"/>
<stop offset="1" stop-color="#FFC98E"/>
</linearGradient>
<linearGradient id="paint19_linear_1_617" x1="91.8329" y1="106.887" x2="92.4286" y2="109.117" gradientUnits="userSpaceOnUse">
<stop stop-color="#FF7D01"/>
<stop offset="1" stop-color="#FEB200"/>
</linearGradient>
<linearGradient id="paint20_linear_1_617" x1="93.1005" y1="108.247" x2="92.3884" y2="106.681" gradientUnits="userSpaceOnUse">
<stop stop-color="#FF1C66"/>
<stop offset="1" stop-color="#FF5E88"/>
</linearGradient>
<linearGradient id="paint21_linear_1_617" x1="146.872" y1="96.6559" x2="146.872" y2="120.131" gradientUnits="userSpaceOnUse">
<stop stop-color="#FF7D01"/>
<stop offset="1" stop-color="#FEB200"/>
</linearGradient>
<linearGradient id="paint22_linear_1_617" x1="133.77" y1="86.2863" x2="133.77" y2="101.847" gradientUnits="userSpaceOnUse">
<stop stop-color="#FF7D01"/>
<stop offset="1" stop-color="#FEB200"/>
</linearGradient>
<linearGradient id="paint23_linear_1_617" x1="133.77" y1="86.2863" x2="133.77" y2="101.847" gradientUnits="userSpaceOnUse">
<stop stop-color="#FF7D01"/>
<stop offset="1" stop-color="#FEB200"/>
</linearGradient>
<linearGradient id="paint24_linear_1_617" x1="131.837" y1="107.555" x2="131.837" y2="119.913" gradientUnits="userSpaceOnUse">
<stop stop-color="#FEB200" stop-opacity="0"/>
<stop offset="0.692708" stop-color="#FF7D01"/>
</linearGradient>
<linearGradient id="paint25_linear_1_617" x1="138.604" y1="107.873" x2="138.604" y2="119.914" gradientUnits="userSpaceOnUse">
<stop stop-color="#FEB200" stop-opacity="0"/>
<stop offset="0.692708" stop-color="#FF7D01"/>
</linearGradient>
<linearGradient id="paint26_linear_1_617" x1="131.142" y1="92.8175" x2="130.912" y2="92.1143" gradientUnits="userSpaceOnUse">
<stop/>
<stop offset="1"/>
</linearGradient>
<linearGradient id="paint27_linear_1_617" x1="137.71" y1="92.1036" x2="137.48" y2="91.4003" gradientUnits="userSpaceOnUse">
<stop/>
<stop offset="1"/>
</linearGradient>
<linearGradient id="paint28_linear_1_617" x1="137.054" y1="86.1207" x2="137.096" y2="87.7201" gradientUnits="userSpaceOnUse">
<stop/>
<stop offset="1" stop-opacity="0"/>
</linearGradient>
<linearGradient id="paint29_linear_1_617" x1="127.791" y1="87.4161" x2="128.646" y2="88.7697" gradientUnits="userSpaceOnUse">
<stop/>
<stop offset="1" stop-opacity="0"/>
</linearGradient>
<linearGradient id="paint30_linear_1_617" x1="133.996" y1="98.666" x2="133.996" y2="99.8146" gradientUnits="userSpaceOnUse">
<stop/>
<stop offset="1" stop-opacity="0"/>
</linearGradient>
</defs>
</svg>
