<svg width="215" height="117" viewBox="0 0 215 117" fill="none" xmlns="http://www.w3.org/2000/svg">
<path d="M119.974 93.2733H135.232C135.232 93.2733 138.056 93.1868 142.157 90.4963C146.258 87.8058 169.091 72.8298 169.091 72.8298L167.749 70.8416C167.749 70.8416 152.123 74.4074 147.763 76.7089C143.402 79.0104 140.177 82.1115 137.807 82.6842C135.437 83.2568 119.985 80.3178 119.985 80.3178V93.2733H119.974Z" fill="#FFCEC9"/>
<path d="M167.749 70.8416C167.749 70.8416 167.327 69.21 167.749 67.7081C168.171 66.2062 170.281 66.9085 171.753 67.1679C173.225 67.4272 176.374 67.1679 179.414 67.1354C182.455 67.103 184.349 68.1619 182.369 68.5725C180.377 68.9939 172.489 71.4251 169.091 72.8298C166.981 71.9654 167.749 70.8416 167.749 70.8416Z" fill="#FFCEC9"/>
<path d="M73.5319 67.6103C73.5953 67.3253 87.0845 69.5261 97.2093 71.0619C107.556 72.6294 108.635 76.5243 109.349 81.4325C110.302 88.0666 108.905 92.9748 108.905 92.9748H89.1951C89.1951 92.9748 71.8021 74.6085 73.5319 67.6103Z" fill="#E0D5D8"/>
<path d="M73.5319 67.6103C73.5953 67.3253 87.0845 69.5261 97.2093 71.0619C107.556 72.6294 108.635 76.5243 109.349 81.4325C110.302 88.0666 108.905 92.9748 108.905 92.9748H89.1951C89.1951 92.9748 71.8021 74.6085 73.5319 67.6103Z" fill="url(#paint0_linear_1_764)"/>
<path d="M108.02 92.9711H161.303C161.303 92.9711 162.554 90.8331 162.633 84.1183C162.728 77.4034 161.034 72.0822 161.034 72.0822C161.034 72.0822 154.537 70.2867 152.187 69.4949C149.837 68.703 144.226 60.9891 125.786 67.5369C107.347 74.0848 87.4354 69.4949 87.4354 69.4949L108.02 92.9711Z" fill="#F15F46"/>
<path d="M108.02 92.9711H161.303C161.303 92.9711 162.554 90.8331 162.633 84.1183C162.728 77.4034 161.034 72.0822 161.034 72.0822C161.034 72.0822 154.537 70.2867 152.187 69.4949C149.837 68.703 144.226 60.9891 125.786 67.5369C107.347 74.0848 87.4354 69.4949 87.4354 69.4949L108.02 92.9711Z" fill="url(#paint1_linear_1_764)"/>
<path d="M73.7709 69.1623C73.7709 69.1623 93.4493 71.0112 101.761 80.3823C110.072 89.7534 97.8821 93.3248 94.1617 92.9456C90.4414 92.5663 21.7332 92.4399 21.7332 92.4399C21.7332 92.4399 16.5722 91.4917 15.8756 84.7913C15.179 78.0909 39.7176 69.2255 51.9236 68.5143C64.1296 67.8032 73.7709 69.1623 73.7709 69.1623Z" fill="#EFE6E8"/>
<path d="M73.7709 69.1623C73.7709 69.1623 93.4493 71.0112 101.761 80.3823C110.072 89.7534 97.8821 93.3248 94.1617 92.9456C90.4414 92.5663 21.7332 92.4399 21.7332 92.4399C21.7332 92.4399 16.5722 91.4917 15.8756 84.7913C15.179 78.0909 39.7176 69.2255 51.9236 68.5143C64.1296 67.8032 73.7709 69.1623 73.7709 69.1623Z" fill="url(#paint2_linear_1_764)"/>
<path d="M76.2082 88.1613C76.2082 88.1613 37.9301 81.7 26.5896 82.3826C15.2333 83.0653 15.0427 92.9716 25.049 92.9716C35.0553 92.9716 76.7959 92.9716 76.7959 92.9716L76.2082 88.1613Z" fill="#FFCEC9"/>
<path d="M76.2082 88.1613C76.2082 88.1613 37.9301 81.7 26.5896 82.3826C15.2333 83.0653 15.0427 92.9716 25.049 92.9716C35.0553 92.9716 76.7959 92.9716 76.7959 92.9716L76.2082 88.1613Z" fill="url(#paint3_linear_1_764)" style="mix-blend-mode:multiply"/>
<path d="M41.8358 88.1613C41.8358 88.1613 79.9607 81.7 91.2558 82.3826C102.551 83.0653 102.757 92.9716 92.7903 92.9716C82.824 92.9716 41.2505 92.9716 41.2505 92.9716L41.8358 88.1613Z" fill="#FFCEC9"/>
<path d="M41.7619 88.1948C41.7619 88.1948 34.9817 87.4986 32.085 87.6885C29.1883 87.8784 19.3682 90.6317 20.8484 92.0242C22.3286 93.4325 29.8568 91.8976 31.2256 92.0242C32.5943 92.1508 37.0349 93.8123 41.173 92.9894C45.3271 92.1508 41.7619 88.1948 41.7619 88.1948Z" fill="#FFCEC9"/>
<path d="M76.555 64.9719C73.0652 75.1979 64.2613 83.2461 57.583 80.9894C50.9047 78.7328 48.8743 67.0076 52.3641 56.7816C55.8539 46.5556 63.5633 41.6951 70.2416 43.9518C76.9199 46.2084 80.0607 54.7301 76.555 64.9719Z" fill="#FFCEC9"/>
<path d="M101.861 47.1875C102.817 41.5882 101.242 39.3442 100.607 39.1741C99.9721 39.0041 98.3059 41.1601 98.0131 42.2527L101.861 47.1875Z" fill="#D17F6A"/>
<path d="M101.861 47.1875C102.817 41.5882 101.242 39.3442 100.607 39.1741C99.9721 39.0041 98.3059 41.1601 98.0131 42.2527L101.861 47.1875Z" fill="url(#paint4_linear_1_764)"/>
<path d="M119.673 66.0435C117.658 67.0683 117.223 68.6527 117.212 69.7988C117.588 71.5558 118.008 73.5204 118.172 74.3182C118.496 75.9012 119.546 79.4977 116.473 78.6743L109.257 76.7408C109.257 76.7408 110.117 73.5304 114.679 74.7528C114.679 74.7528 115.695 73.5049 111.644 72.4196C105.219 70.6979 109.651 63.6571 109.651 63.6571" fill="#146FF4"/>
<path d="M119.673 66.0435C117.658 67.0683 117.223 68.6527 117.212 69.7988C117.588 71.5558 118.008 73.5204 118.172 74.3182C118.496 75.9012 119.546 79.4977 116.473 78.6743L109.257 76.7408C109.257 76.7408 110.117 73.5304 114.679 74.7528C114.679 74.7528 115.695 73.5049 111.644 72.4196C105.219 70.6979 109.651 63.6571 109.651 63.6571" fill="#0851C4"/>
<path d="M119.673 66.0435C117.658 67.0683 117.223 68.6527 117.212 69.7988C117.588 71.5558 118.008 73.5204 118.172 74.3182C118.496 75.9012 119.546 79.4977 116.473 78.6743L109.257 76.7408C109.257 76.7408 110.117 73.5304 114.679 74.7528C114.679 74.7528 115.695 73.5049 111.644 72.4196C105.219 70.6979 109.651 63.6571 109.651 63.6571" fill="#D17F6A"/>
<path d="M119.673 66.0435C117.658 67.0683 117.223 68.6527 117.212 69.7988C117.588 71.5558 118.008 73.5204 118.172 74.3182C118.496 75.9012 119.546 79.4977 116.473 78.6743L109.257 76.7408C109.257 76.7408 110.117 73.5304 114.679 74.7528C114.679 74.7528 115.695 73.5049 111.644 72.4196C105.219 70.6979 109.651 63.6571 109.651 63.6571" fill="url(#paint5_linear_1_764)"/>
<path d="M117.54 71.3046L112.046 70.6421C108.329 70.1938 104.749 68.9627 101.542 67.0301C99.3523 65.7101 97.3651 64.08 95.6427 62.1907L92.1739 58.3858C92.9053 55.6559 94.2049 54.9068 89.2774 53.5865C83.6703 52.0841 84.0947 49.8205 84.5519 48.1143C84.6891 47.6024 84.7737 45.2478 89.3613 46.477C93.4392 47.5697 92.0345 44.6331 94.4979 42.9158C96.9613 41.1986 100.686 42.9282 100.686 42.9282C101.098 41.3926 103.372 38.3444 104.221 38.572C105.071 38.7997 107.149 41.9168 105.772 49.7769C104.394 57.637 117.213 54.0349 121.438 61.3883C122.712 63.606 123.247 64.7569 125.6 65.3874C128.315 66.115 130.96 62.8572 131.748 61.1279C131.835 60.9374 132.121 61.0323 132.079 61.2369C131.738 62.8627 130.766 65.4697 127.997 66.8874C125.543 68.1426 125.011 70.0794 124.997 71.4799" fill="#146FF4"/>
<path d="M117.54 71.3046L112.046 70.6421C108.329 70.1938 104.749 68.9627 101.542 67.0301C99.3523 65.7101 97.3651 64.08 95.6427 62.1907L92.1739 58.3858C92.9053 55.6559 94.2049 54.9068 89.2774 53.5865C83.6703 52.0841 84.0947 49.8205 84.5519 48.1143C84.6891 47.6024 84.7737 45.2478 89.3613 46.477C93.4392 47.5697 92.0345 44.6331 94.4979 42.9158C96.9613 41.1986 100.686 42.9282 100.686 42.9282C101.098 41.3926 103.372 38.3444 104.221 38.572C105.071 38.7997 107.149 41.9168 105.772 49.7769C104.394 57.637 117.213 54.0349 121.438 61.3883C122.712 63.606 123.247 64.7569 125.6 65.3874C128.315 66.115 130.96 62.8572 131.748 61.1279C131.835 60.9374 132.121 61.0323 132.079 61.2369C131.738 62.8627 130.766 65.4697 127.997 66.8874C125.543 68.1426 125.011 70.0794 124.997 71.4799" fill="#0851C4"/>
<path d="M117.54 71.3046L112.046 70.6421C108.329 70.1938 104.749 68.9627 101.542 67.0301C99.3523 65.7101 97.3651 64.08 95.6427 62.1907L92.1739 58.3858C92.9053 55.6559 94.2049 54.9068 89.2774 53.5865C83.6703 52.0841 84.0947 49.8205 84.5519 48.1143C84.6891 47.6024 84.7737 45.2478 89.3613 46.477C93.4392 47.5697 92.0345 44.6331 94.4979 42.9158C96.9613 41.1986 100.686 42.9282 100.686 42.9282C101.098 41.3926 103.372 38.3444 104.221 38.572C105.071 38.7997 107.149 41.9168 105.772 49.7769C104.394 57.637 117.213 54.0349 121.438 61.3883C122.712 63.606 123.247 64.7569 125.6 65.3874C128.315 66.115 130.96 62.8572 131.748 61.1279C131.835 60.9374 132.121 61.0323 132.079 61.2369C131.738 62.8627 130.766 65.4697 127.997 66.8874C125.543 68.1426 125.011 70.0794 124.997 71.4799" fill="#D17F6A"/>
<path d="M117.54 71.3046L112.046 70.6421C108.329 70.1938 104.749 68.9627 101.542 67.0301C99.3523 65.7101 97.3651 64.08 95.6427 62.1907L92.1739 58.3858C92.9053 55.6559 94.2049 54.9068 89.2774 53.5865C83.6703 52.0841 84.0947 49.8205 84.5519 48.1143C84.6891 47.6024 84.7737 45.2478 89.3613 46.477C93.4392 47.5697 92.0345 44.6331 94.4979 42.9158C96.9613 41.1986 100.686 42.9282 100.686 42.9282C101.098 41.3926 103.372 38.3444 104.221 38.572C105.071 38.7997 107.149 41.9168 105.772 49.7769C104.394 57.637 117.213 54.0349 121.438 61.3883C122.712 63.606 123.247 64.7569 125.6 65.3874C128.315 66.115 130.96 62.8572 131.748 61.1279C131.835 60.9374 132.121 61.0323 132.079 61.2369C131.738 62.8627 130.766 65.4697 127.997 66.8874C125.543 68.1426 125.011 70.0794 124.997 71.4799" fill="url(#paint6_linear_1_764)"/>
<path d="M92.217 54.6766C92.217 54.6766 92.1638 65.277 88.1795 67.6263C88.1795 67.6263 85.1022 66.4161 84.1391 70.0105L91.3692 71.9478C91.3692 71.9478 97.4531 69.3399 100.029 59.7273" fill="#146FF4"/>
<path d="M92.217 54.6766C92.217 54.6766 92.1638 65.277 88.1795 67.6263C88.1795 67.6263 85.1022 66.4161 84.1391 70.0105L91.3692 71.9478C91.3692 71.9478 97.4531 69.3399 100.029 59.7273" fill="#0851C4"/>
<path d="M92.217 54.6766C92.217 54.6766 92.1638 65.277 88.1795 67.6263C88.1795 67.6263 85.1022 66.4161 84.1391 70.0105L91.3692 71.9478C91.3692 71.9478 97.4531 69.3399 100.029 59.7273" fill="#D17F6A"/>
<path d="M92.217 54.6766C92.217 54.6766 92.1638 65.277 88.1795 67.6263C88.1795 67.6263 85.1022 66.4161 84.1391 70.0105L91.3692 71.9478C91.3692 71.9478 97.4531 69.3399 100.029 59.7273" fill="url(#paint7_linear_1_764)"/>
<path d="M96.4504 56.5511C96.4504 56.5511 96.4207 66.7128 92.5779 68.9567C92.5779 68.9567 89.6037 67.7903 88.6809 71.2339L95.667 73.1058C95.667 73.1058 101.537 70.6183 104.005 61.4088" fill="url(#paint8_linear_1_764)"/>
<path d="M127.4 67.1889C125.237 68.2819 124.773 69.9751 124.762 71.2003C125.169 73.079 125.622 75.1796 125.798 76.0326C126.148 77.7252 127.28 81.5712 123.98 80.6872L116.233 78.6114C116.233 78.6114 117.153 75.1806 122.05 76.4929C122.05 76.4929 123.139 75.1602 118.79 73.9949C111.892 72.1466 116.639 64.6255 116.639 64.6255" fill="url(#paint9_linear_1_764)"/>
<path d="M104.292 47.5465C104.54 47.896 105.082 47.7721 105.141 47.3475C105.93 41.6857 104.458 39.4213 103.826 39.2519C103.189 39.0812 101.513 41.3416 101.046 42.6623C100.997 42.7981 101.026 42.9464 101.109 43.0639L104.292 47.5465Z" fill="url(#paint10_linear_1_764)"/>
<path d="M86.2523 47.7056C85.1862 47.4199 84.8364 46.8334 84.8038 46.2681C84.7656 45.6066 85.5215 45.3163 86.1615 45.4878C86.5 45.5785 86.8016 45.783 86.9743 46.088C87.4854 46.9899 87.8054 48.1218 86.2523 47.7056Z" fill="#4B1C3C"/>
<mask id="mask0_1_764" style="mask-type:alpha" maskUnits="userSpaceOnUse" x="84" y="38" width="49" height="41">
<path d="M119.643 66.0871C117.629 67.1119 117.194 68.6957 117.183 69.8414C117.559 71.5976 117.978 73.5613 118.141 74.3588C118.465 75.941 119.513 79.5359 116.444 78.7134L109.236 76.7822C109.236 76.7822 110.096 73.5729 114.653 74.7939C114.653 74.7939 115.667 73.5463 111.621 72.4622C105.203 70.7425 109.632 63.7037 109.632 63.7037" fill="#146FF4"/>
<path d="M119.643 66.0871C117.629 67.1119 117.194 68.6957 117.183 69.8414C117.559 71.5976 117.978 73.5613 118.141 74.3588C118.465 75.941 119.513 79.5359 116.444 78.7134L109.236 76.7822C109.236 76.7822 110.096 73.5729 114.653 74.7939C114.653 74.7939 115.667 73.5463 111.621 72.4622C105.203 70.7425 109.632 63.7037 109.632 63.7037" fill="#0851C4"/>
<path d="M119.643 66.0871C117.629 67.1119 117.194 68.6957 117.183 69.8414C117.559 71.5976 117.978 73.5613 118.141 74.3588C118.465 75.941 119.513 79.5359 116.444 78.7134L109.236 76.7822C109.236 76.7822 110.096 73.5729 114.653 74.7939C114.653 74.7939 115.667 73.5463 111.621 72.4622C105.203 70.7425 109.632 63.7037 109.632 63.7037" fill="#D17F6A"/>
<path d="M119.643 66.0871C117.629 67.1119 117.194 68.6957 117.183 69.8414C117.559 71.5976 117.978 73.5613 118.141 74.3588C118.465 75.941 119.513 79.5359 116.444 78.7134L109.236 76.7822C109.236 76.7822 110.096 73.5729 114.653 74.7939C114.653 74.7939 115.667 73.5463 111.621 72.4622C105.203 70.7425 109.632 63.7037 109.632 63.7037" fill="url(#paint11_linear_1_764)"/>
<path d="M117.511 71.3465L112.023 70.6854C108.31 70.238 104.734 69.0081 101.532 67.0769C99.3443 65.7579 97.3596 64.1289 95.6394 62.2407L92.1752 58.438C92.9065 55.709 94.2047 54.9601 89.283 53.6413C83.6823 52.1406 84.1067 49.8778 84.5638 48.1722C84.7009 47.6605 84.7858 45.3068 89.3682 46.5346C93.4414 47.626 92.0388 44.6909 94.4998 42.9738C96.9608 41.2567 100.681 42.9849 100.681 42.9849C101.093 41.4499 103.365 38.4024 104.213 38.6298C105.062 38.8572 107.137 41.9727 105.76 49.8298C104.382 57.687 117.187 54.0838 121.406 61.4334C122.679 63.6499 123.213 64.8003 125.563 65.4301C128.275 66.1568 130.918 62.8998 131.705 61.1711C131.792 60.9806 132.078 61.0754 132.036 61.2799C131.695 62.9051 130.724 65.5113 127.957 66.929C125.506 68.1842 124.974 70.1203 124.959 71.5202" fill="#146FF4"/>
<path d="M117.511 71.3465L112.023 70.6854C108.31 70.238 104.734 69.0081 101.532 67.0769C99.3443 65.7579 97.3596 64.1289 95.6394 62.2407L92.1752 58.438C92.9065 55.709 94.2047 54.9601 89.283 53.6413C83.6823 52.1406 84.1067 49.8778 84.5638 48.1722C84.7009 47.6605 84.7858 45.3068 89.3682 46.5346C93.4414 47.626 92.0388 44.6909 94.4998 42.9738C96.9608 41.2567 100.681 42.9849 100.681 42.9849C101.093 41.4499 103.365 38.4024 104.213 38.6298C105.062 38.8572 107.137 41.9727 105.76 49.8298C104.382 57.687 117.187 54.0838 121.406 61.4334C122.679 63.6499 123.213 64.8003 125.563 65.4301C128.275 66.1568 130.918 62.8998 131.705 61.1711C131.792 60.9806 132.078 61.0754 132.036 61.2799C131.695 62.9051 130.724 65.5113 127.957 66.929C125.506 68.1842 124.974 70.1203 124.959 71.5202" fill="#0851C4"/>
<path d="M117.511 71.3465L112.023 70.6854C108.31 70.238 104.734 69.0081 101.532 67.0769C99.3443 65.7579 97.3596 64.1289 95.6394 62.2407L92.1752 58.438C92.9065 55.709 94.2047 54.9601 89.283 53.6413C83.6823 52.1406 84.1067 49.8778 84.5638 48.1722C84.7009 47.6605 84.7858 45.3068 89.3682 46.5346C93.4414 47.626 92.0388 44.6909 94.4998 42.9738C96.9608 41.2567 100.681 42.9849 100.681 42.9849C101.093 41.4499 103.365 38.4024 104.213 38.6298C105.062 38.8572 107.137 41.9727 105.76 49.8298C104.382 57.687 117.187 54.0838 121.406 61.4334C122.679 63.6499 123.213 64.8003 125.563 65.4301C128.275 66.1568 130.918 62.8998 131.705 61.1711C131.792 60.9806 132.078 61.0754 132.036 61.2799C131.695 62.9051 130.724 65.5113 127.957 66.929C125.506 68.1842 124.974 70.1203 124.959 71.5202" fill="#D17F6A"/>
<path d="M117.511 71.3465L112.023 70.6854C108.31 70.238 104.734 69.0081 101.532 67.0769C99.3443 65.7579 97.3596 64.1289 95.6394 62.2407L92.1752 58.438C92.9065 55.709 94.2047 54.9601 89.283 53.6413C83.6823 52.1406 84.1067 49.8778 84.5638 48.1722C84.7009 47.6605 84.7858 45.3068 89.3682 46.5346C93.4414 47.626 92.0388 44.6909 94.4998 42.9738C96.9608 41.2567 100.681 42.9849 100.681 42.9849C101.093 41.4499 103.365 38.4024 104.213 38.6298C105.062 38.8572 107.137 41.9727 105.76 49.8298C104.382 57.687 117.187 54.0838 121.406 61.4334C122.679 63.6499 123.213 64.8003 125.563 65.4301C128.275 66.1568 130.918 62.8998 131.705 61.1711C131.792 60.9806 132.078 61.0754 132.036 61.2799C131.695 62.9051 130.724 65.5113 127.957 66.929C125.506 68.1842 124.974 70.1203 124.959 71.5202" fill="url(#paint12_linear_1_764)"/>
<path d="M92.2191 54.7303C92.2191 54.7303 92.1638 65.3265 88.1834 67.6756C88.1834 67.6756 85.1097 66.4665 84.147 70.0596L91.3687 71.9947C91.3687 71.9947 97.4464 69.3866 100.021 59.7774" fill="#146FF4"/>
<path d="M92.2191 54.7303C92.2191 54.7303 92.1638 65.3265 88.1834 67.6756C88.1834 67.6756 85.1097 66.4665 84.147 70.0596L91.3687 71.9947C91.3687 71.9947 97.4464 69.3866 100.021 59.7774" fill="#0851C4"/>
<path d="M92.2191 54.7303C92.2191 54.7303 92.1638 65.3265 88.1834 67.6756C88.1834 67.6756 85.1097 66.4665 84.147 70.0596L91.3687 71.9947C91.3687 71.9947 97.4464 69.3866 100.021 59.7774" fill="#D17F6A"/>
<path d="M92.2191 54.7303C92.2191 54.7303 92.1638 65.3265 88.1834 67.6756C88.1834 67.6756 85.1097 66.4665 84.147 70.0596L91.3687 71.9947C91.3687 71.9947 97.4464 69.3866 100.021 59.7774" fill="url(#paint13_linear_1_764)"/>
</mask>
<g mask="url(#mask0_1_764)">
<path fill-rule="evenodd" clip-rule="evenodd" d="M86.9755 55.4805C99.2138 60.5946 106.509 54.9271 108.67 51.0684L106.56 49.8869C104.995 52.6826 99.0034 57.886 87.9078 53.2494L86.9755 55.4805Z" fill="#146FF4"/>
</g>
<path opacity="0.2" d="M88.7183 48.2846C88.6642 48.4864 88.8494 48.7114 89.132 48.7871C89.4146 48.8629 89.6875 48.7606 89.7416 48.5588C89.7956 48.3569 89.6104 48.132 89.3278 48.0562C89.0453 47.9805 88.7724 48.0828 88.7183 48.2846Z" fill="url(#paint14_linear_1_764)"/>
<path opacity="0.2" d="M87.6064 48.9275C87.5956 48.9679 87.7505 49.0445 87.9523 49.0986C88.1541 49.1526 88.3265 49.1638 88.3373 49.1234C88.3482 49.083 88.1933 49.0065 87.9915 48.9524C87.7896 48.8983 87.6173 48.8872 87.6064 48.9275Z" fill="url(#paint15_linear_1_764)"/>
<path opacity="0.2" d="M90.9675 49.8325C90.9567 49.8729 91.1116 49.9495 91.3134 50.0036C91.5152 50.0576 91.6876 50.0688 91.6984 50.0284C91.7092 49.988 91.5544 49.9114 91.3526 49.8574C91.1507 49.8033 90.9783 49.7922 90.9675 49.8325Z" fill="url(#paint16_linear_1_764)"/>
<path d="M93.9372 45.7685C93.8399 46.1318 94.0882 46.514 94.4919 46.6222C94.8955 46.7303 95.3017 46.5235 95.3991 46.1602C95.4964 45.7969 95.2481 45.4147 94.8444 45.3065C94.4407 45.1984 94.0346 45.4052 93.9372 45.7685Z" fill="#4B1C3C"/>
<path d="M167.339 60.68C165.275 64.8903 167.49 67.2237 169.756 69.5063C177.561 76.2529 184.913 69.7092 185.669 65.7019C186.424 61.6945 183.856 54.0349 183.05 54.0349C182.244 54.0349 180.935 57.3321 179.173 56.2668C178.081 55.6071 174.738 55.6073 174.199 55.6074L174.188 55.6074C173.684 55.6074 173.029 54.0349 172.526 54.0349C172.022 54.0349 169.404 56.4697 167.339 60.68Z" fill="url(#paint17_linear_1_764)"/>
<path d="M153.139 77.7286C153.139 70.5379 148.854 70.5379 148.854 68.0566C148.854 64.3093 155.407 65.4233 155.407 76.3107C155.407 87.1981 160.599 87.7552 162.666 89.2237C164.733 90.6922 179.602 92.6086 166.748 92.6086C153.894 92.6086 153.139 84.9194 153.139 77.7286Z" fill="url(#paint18_linear_1_764)"/>
<path d="M166.396 67.0409C155.616 71.9403 155.163 80.0217 155.163 80.5773C155.163 99.5181 164.433 91.6372 178.033 93.0424C179.147 93.1575 179.595 81.739 183.02 77.5468C185.76 74.193 184.934 69.1454 184.179 67.0409C181.845 65.4078 175.021 63.1214 166.396 67.0409Z" fill="url(#paint19_linear_1_764)"/>
<path d="M167.291 60.569C165.221 64.7605 167.442 67.0835 169.714 69.3561C177.54 76.0726 184.911 69.5581 185.668 65.5685C186.425 61.579 183.851 53.9534 183.043 53.9534C182.235 53.9534 180.922 57.2359 179.155 56.1754C178.061 55.5187 174.709 55.5189 174.168 55.5189L174.157 55.5189C173.652 55.5189 172.996 53.3147 172.491 53.3147C171.986 53.3147 169.361 56.3774 167.291 60.569Z" fill="url(#paint20_linear_1_764)"/>
<path d="M176.658 80.7105C176.658 80.7105 173.716 87.6626 174.824 90.7912C174.935 91.1048 175.289 91.2293 175.621 91.2208C176.259 91.2043 177.243 91.4373 177.477 92.9638C177.537 93.3598 177.203 93.6887 176.802 93.6887H173.945C173.723 93.6887 173.515 93.588 173.395 93.4005C172.767 92.4134 170.858 88.8333 170.858 81.7884" fill="url(#paint21_linear_1_764)"/>
<path d="M181.494 80.7105C181.494 80.7105 178.552 87.6626 179.66 90.7912C179.771 91.1048 180.125 91.2293 180.457 91.2208C181.095 91.2043 182.08 91.4373 182.313 92.9638C182.374 93.3598 182.039 93.6887 181.639 93.6887H178.781C178.559 93.6887 178.351 93.588 178.231 93.4005C177.603 92.4134 175.695 88.8333 175.695 81.7884" fill="url(#paint22_linear_1_764)"/>
<path d="M182.717 63.7229C182.356 65.0621 181.101 65.8325 179.915 65.4435C178.728 65.0546 178.06 63.6536 178.421 62.3144C178.783 60.9751 180.038 60.2048 181.224 60.5937C182.41 60.9827 183.079 62.3837 182.717 63.7229Z" fill="white"/>
<path d="M175.047 62.8865C174.685 64.2257 173.43 64.9961 172.244 64.6071C171.057 64.2181 170.389 62.8172 170.75 61.4779C171.112 60.1387 172.367 59.3683 173.553 59.7573C174.74 60.1462 175.408 61.5472 175.047 62.8865Z" fill="white"/>
<path d="M182.132 63.8954C181.842 64.9694 180.855 65.5934 179.927 65.2892C178.999 64.985 178.482 63.8678 178.772 62.7939C179.062 61.7199 180.049 61.0959 180.977 61.4001C181.905 61.7042 182.422 62.8215 182.132 63.8954Z" fill="white"/>
<path d="M182.132 63.8954C181.842 64.9694 180.855 65.5934 179.927 65.2892C178.999 64.985 178.482 63.8678 178.772 62.7939C179.062 61.7199 180.049 61.0959 180.977 61.4001C181.905 61.7042 182.422 62.8215 182.132 63.8954Z" fill="url(#paint23_linear_1_764)"/>
<path d="M174.461 63.0619C174.171 64.1359 173.184 64.7599 172.256 64.4557C171.329 64.1515 170.812 63.0343 171.101 61.9604C171.391 60.8864 172.379 60.2624 173.306 60.5665C174.234 60.8707 174.751 61.988 174.461 63.0619Z" fill="white"/>
<path d="M174.461 63.0619C174.171 64.1359 173.184 64.7599 172.256 64.4557C171.329 64.1515 170.812 63.0343 171.101 61.9604C171.391 60.8864 172.379 60.2624 173.306 60.5665C174.234 60.8707 174.751 61.988 174.461 63.0619Z" fill="url(#paint24_linear_1_764)"/>
<path d="M180.805 62.2866C180.784 62.0804 180.9 61.9133 181.065 61.9133C181.23 61.9133 181.381 62.0804 181.402 62.2866C181.423 62.4929 181.307 62.66 181.142 62.66C180.977 62.66 180.826 62.4929 180.805 62.2866Z" fill="white"/>
<path d="M173.134 61.4563C173.113 61.2501 173.229 61.0829 173.394 61.0829C173.559 61.0829 173.71 61.2501 173.731 61.4563C173.752 61.6625 173.636 61.8297 173.471 61.8297C173.306 61.8297 173.156 61.6625 173.134 61.4563Z" fill="white"/>
<path d="M175.834 67.2839L175.3 66.4873C175.065 66.1353 175.363 65.6718 175.781 65.7411L176.944 65.9337C177.336 65.9987 177.487 66.4838 177.2 66.7595L176.571 67.3635C176.354 67.5719 176.001 67.5338 175.834 67.2839Z" fill="#FF5E88"/>
<path fill-rule="evenodd" clip-rule="evenodd" d="M180.007 68.0355C179.171 67.8887 178.322 67.7785 177.796 67.722C177.763 67.7184 177.739 67.6886 177.743 67.6554C177.746 67.6222 177.776 67.5982 177.809 67.6018C178.337 67.6585 179.189 67.769 180.028 67.9164C180.865 68.0634 181.696 68.2482 182.179 68.4548C182.21 68.468 182.224 68.5035 182.211 68.5342C182.198 68.5649 182.163 68.5791 182.132 68.566C181.663 68.3656 180.844 68.1826 180.007 68.0355Z" fill="black"/>
<path fill-rule="evenodd" clip-rule="evenodd" d="M183.632 66.5467C181.48 66.5086 179.439 66.6942 178.218 66.8771C178.185 66.8821 178.154 66.8593 178.149 66.8263C178.144 66.7933 178.167 66.7625 178.2 66.7575C179.427 66.5738 181.475 66.3876 183.634 66.4258C185.791 66.464 188.067 66.7263 189.745 67.4437C189.776 67.4568 189.79 67.4924 189.777 67.5231C189.764 67.5538 189.729 67.568 189.698 67.5549C188.041 66.8468 185.785 66.5848 183.632 66.5467Z" fill="black"/>
<path fill-rule="evenodd" clip-rule="evenodd" d="M181.152 67.5515C179.811 67.3609 178.578 67.3172 177.854 67.3353C177.821 67.3362 177.793 67.3098 177.793 67.2764C177.792 67.243 177.818 67.2153 177.851 67.2145C178.582 67.1962 179.821 67.2403 181.169 67.4318C182.516 67.6232 183.977 67.9625 185.147 68.5367C185.177 68.5514 185.189 68.5876 185.175 68.6176C185.16 68.6476 185.124 68.6599 185.094 68.6452C183.94 68.0791 182.494 67.7421 181.152 67.5515Z" fill="black"/>
<path fill-rule="evenodd" clip-rule="evenodd" d="M173.92 66.7417C173.971 66.7464 174.008 66.75 174.032 66.752C174.065 66.7547 174.087 66.7834 174.081 66.8162C174.074 66.8489 174.042 66.8732 174.008 66.8705C173.984 66.8685 173.946 66.865 173.895 66.8602C172.999 66.7759 168.095 66.3149 163.678 67.5038C163.644 67.5128 163.613 67.4945 163.607 67.4629C163.601 67.4313 163.624 67.3984 163.657 67.3894C168.099 66.1937 173.026 66.6575 173.92 66.7417Z" fill="black"/>
<path fill-rule="evenodd" clip-rule="evenodd" d="M174.481 67.128C174.481 67.1606 174.454 67.1904 174.42 67.1946C173.536 67.3032 172.145 67.5698 170.851 68.0159C170.204 68.2389 169.584 68.5062 169.063 68.8198C168.542 69.1338 168.126 69.4915 167.883 69.8936C167.865 69.9232 167.827 69.9357 167.798 69.9216C167.77 69.9074 167.761 69.8719 167.779 69.8422C168.039 69.4131 168.476 69.0408 169.007 68.7207C169.539 68.4003 170.169 68.1292 170.822 67.9043C172.126 67.4543 173.527 67.186 174.418 67.0765C174.452 67.0724 174.48 67.0954 174.481 67.128Z" fill="black"/>
<path fill-rule="evenodd" clip-rule="evenodd" d="M174.111 66.3931C174.111 66.3931 174.111 66.3931 174.091 66.4513C174.072 66.5094 174.072 66.5094 174.072 66.5094L174.071 66.5092L174.068 66.5086L174.056 66.5062C174.046 66.504 174.031 66.5008 174.01 66.4966C173.969 66.4883 173.908 66.4761 173.828 66.4608C173.667 66.4301 173.431 66.3869 173.126 66.3367C172.517 66.2364 171.637 66.1082 170.552 65.9969C168.383 65.7744 165.396 65.6198 162.129 65.8913C162.095 65.8941 162.068 65.8698 162.069 65.8371C162.07 65.8044 162.098 65.7756 162.132 65.7727C165.409 65.5004 168.404 65.6555 170.578 65.8786C171.666 65.9901 172.549 66.1187 173.16 66.2194C173.465 66.2697 173.703 66.3131 173.864 66.344C173.945 66.3594 174.006 66.3716 174.048 66.3801C174.069 66.3843 174.084 66.3875 174.095 66.3897L174.107 66.3923L174.11 66.3929L174.111 66.3931ZM174.15 66.4638C174.139 66.4959 174.104 66.5163 174.072 66.5094L174.091 66.4513L174.111 66.3931C174.143 66.4 174.16 66.4317 174.15 66.4638Z" fill="black"/>
<path opacity="0.2" d="M171.225 55.9454L172.055 54.1021C172.192 53.799 172.588 53.7232 172.775 53.998C173.104 54.4813 173.23 54.9599 173.495 55.4289C173.699 55.7907 173.53 56.3435 173.119 56.4073L171.74 56.6219C171.36 56.6809 171.067 56.2954 171.225 55.9454Z" fill="url(#paint25_linear_1_764)"/>
<path opacity="0.2" d="M180.794 56.1945L182.41 54.4849C182.668 54.2121 183.123 54.3246 183.221 54.687C183.452 55.5447 183.71 56.5294 183.969 57.4037C184.089 57.8099 183.673 58.1857 183.286 58.0129L180.949 56.9682C180.644 56.8323 180.566 56.4367 180.794 56.1945Z" fill="url(#paint26_linear_1_764)"/>
<path d="M176.794 69.2683C176.794 69.6167 176.551 69.8992 176.253 69.8992C175.954 69.8992 175.712 69.6167 175.712 69.2683C175.712 68.9199 175.954 68.6374 176.253 68.6374C176.551 68.6374 176.794 68.9199 176.794 69.2683Z" fill="url(#paint27_linear_1_764)"/>
<path d="M141.115 50.4906C141.692 44.281 144 42.3492 144.722 42.3492C145.443 42.3492 146.598 45.109 146.598 46.3509L141.115 50.4906Z" fill="#D17F6A"/>
<path d="M141.115 50.4906C141.692 44.281 144 42.3492 144.722 42.3492C145.443 42.3492 146.598 45.109 146.598 46.3509L141.115 50.4906Z" fill="url(#paint28_linear_1_764)"/>
<path d="M116.866 65.4313C118.713 67.0908 118.724 68.8946 118.409 70.113C117.511 71.8693 116.508 73.8333 116.107 74.6329C115.314 76.2194 113.178 79.7351 116.671 79.7351H124.873C124.873 79.7351 124.873 76.0862 119.687 76.0862C119.687 76.0862 118.965 74.4743 123.569 74.4743C130.872 74.4743 128.173 65.7486 128.173 65.7486" fill="#146FF4"/>
<path d="M116.866 65.4313C118.713 67.0908 118.724 68.8946 118.409 70.113C117.511 71.8693 116.508 73.8333 116.107 74.6329C115.314 76.2194 113.178 79.7351 116.671 79.7351H124.873C124.873 79.7351 124.873 76.0862 119.687 76.0862C119.687 76.0862 118.965 74.4743 123.569 74.4743C130.872 74.4743 128.173 65.7486 128.173 65.7486" fill="#0851C4"/>
<path d="M116.866 65.4313C118.713 67.0908 118.724 68.8946 118.409 70.113C117.511 71.8693 116.508 73.8333 116.107 74.6329C115.314 76.2194 113.178 79.7351 116.671 79.7351H124.873C124.873 79.7351 124.873 76.0862 119.687 76.0862C119.687 76.0862 118.965 74.4743 123.569 74.4743C130.872 74.4743 128.173 65.7486 128.173 65.7486" fill="#D17F6A"/>
<path d="M116.866 65.4313C118.713 67.0908 118.724 68.8946 118.409 70.113C117.511 71.8693 116.508 73.8333 116.107 74.6329C115.314 76.2194 113.178 79.7351 116.671 79.7351H124.873C124.873 79.7351 124.873 76.0862 119.687 76.0862C119.687 76.0862 118.965 74.4743 123.569 74.4743C130.872 74.4743 128.173 65.7486 128.173 65.7486" fill="url(#paint29_linear_1_764)"/>
<path d="M117.634 71.6167L123.648 72.4752C127.717 73.056 131.864 72.7677 135.813 71.6294C138.511 70.8519 141.081 69.6879 143.445 68.1738L148.204 65.1245C148.204 62.0217 147.039 60.8581 152.64 60.8581C159.013 60.8581 159.206 58.337 159.206 56.3978C159.206 55.816 159.785 53.2949 154.571 53.2949C149.936 53.2949 152.26 50.5799 150.136 48.0588C148.011 45.5378 143.569 46.3135 143.569 46.3135C143.569 44.5681 142.024 40.6896 141.059 40.6896C140.093 40.6896 137.003 43.4046 136.231 52.1313C135.458 60.8581 122.888 53.3957 116.318 59.9932C114.337 61.9829 113.442 63.0514 110.768 63.0514C107.682 63.0514 105.802 58.8451 105.459 56.7876C105.42 56.5607 105.09 56.58 105.076 56.8089C104.976 58.6299 105.266 61.6707 107.799 63.961C110.045 65.9894 110.059 68.1944 109.676 69.6838" fill="#146FF4"/>
<path d="M117.634 71.6167L123.648 72.4752C127.717 73.056 131.864 72.7677 135.813 71.6294C138.511 70.8519 141.081 69.6879 143.445 68.1738L148.204 65.1245C148.204 62.0217 147.039 60.8581 152.64 60.8581C159.013 60.8581 159.206 58.337 159.206 56.3978C159.206 55.816 159.785 53.2949 154.571 53.2949C149.936 53.2949 152.26 50.5799 150.136 48.0588C148.011 45.5378 143.569 46.3135 143.569 46.3135C143.569 44.5681 142.024 40.6896 141.059 40.6896C140.093 40.6896 137.003 43.4046 136.231 52.1313C135.458 60.8581 122.888 53.3957 116.318 59.9932C114.337 61.9829 113.442 63.0514 110.768 63.0514C107.682 63.0514 105.802 58.8451 105.459 56.7876C105.42 56.5607 105.09 56.58 105.076 56.8089C104.976 58.6299 105.266 61.6707 107.799 63.961C110.045 65.9894 110.059 68.1944 109.676 69.6838" fill="#0851C4"/>
<path d="M117.634 71.6167L123.648 72.4752C127.717 73.056 131.864 72.7677 135.813 71.6294C138.511 70.8519 141.081 69.6879 143.445 68.1738L148.204 65.1245C148.204 62.0217 147.039 60.8581 152.64 60.8581C159.013 60.8581 159.206 58.337 159.206 56.3978C159.206 55.816 159.785 53.2949 154.571 53.2949C149.936 53.2949 152.26 50.5799 150.136 48.0588C148.011 45.5378 143.569 46.3135 143.569 46.3135C143.569 44.5681 142.024 40.6896 141.059 40.6896C140.093 40.6896 137.003 43.4046 136.231 52.1313C135.458 60.8581 122.888 53.3957 116.318 59.9932C114.337 61.9829 113.442 63.0514 110.768 63.0514C107.682 63.0514 105.802 58.8451 105.459 56.7876C105.42 56.5607 105.09 56.58 105.076 56.8089C104.976 58.6299 105.266 61.6707 107.799 63.961C110.045 65.9894 110.059 68.1944 109.676 69.6838" fill="#D17F6A"/>
<path d="M117.634 71.6167L123.648 72.4752C127.717 73.056 131.864 72.7677 135.813 71.6294C138.511 70.8519 141.081 69.6879 143.445 68.1738L148.204 65.1245C148.204 62.0217 147.039 60.8581 152.64 60.8581C159.013 60.8581 159.206 58.337 159.206 56.3978C159.206 55.816 159.785 53.2949 154.571 53.2949C149.936 53.2949 152.26 50.5799 150.136 48.0588C148.011 45.5378 143.569 46.3135 143.569 46.3135C143.569 44.5681 142.024 40.6896 141.059 40.6896C140.093 40.6896 137.003 43.4046 136.231 52.1313C135.458 60.8581 122.888 53.3957 116.318 59.9932C114.337 61.9829 113.442 63.0514 110.768 63.0514C107.682 63.0514 105.802 58.8451 105.459 56.7876C105.42 56.5607 105.09 56.58 105.076 56.8089C104.976 58.6299 105.266 61.6707 107.799 63.961C110.045 65.9894 110.059 68.1944 109.676 69.6838" fill="url(#paint30_linear_1_764)"/>
<path d="M149.213 61.1788C149.213 61.1788 146.257 72.4353 149.815 76.0588C149.815 76.0588 153.422 75.6498 153.422 79.7351H145.204C145.204 79.7351 139.493 75.2408 139.493 64.3152" fill="#146FF4"/>
<path d="M149.213 61.1788C149.213 61.1788 146.257 72.4353 149.815 76.0588C149.815 76.0588 153.422 75.6498 153.422 79.7351H145.204C145.204 79.7351 139.493 75.2408 139.493 64.3152" fill="#0851C4"/>
<path d="M149.213 61.1788C149.213 61.1788 146.257 72.4353 149.815 76.0588C149.815 76.0588 153.422 75.6498 153.422 79.7351H145.204C145.204 79.7351 139.493 75.2408 139.493 64.3152" fill="#D17F6A"/>
<path d="M149.213 61.1788C149.213 61.1788 146.257 72.4353 149.815 76.0588C149.815 76.0588 153.422 75.6498 153.422 79.7351H145.204C145.204 79.7351 139.493 75.2408 139.493 64.3152" fill="url(#paint31_linear_1_764)"/>
<path d="M144.192 61.9599C144.192 61.9599 141.336 72.7444 144.773 76.2159C144.773 76.2159 148.259 75.8241 148.259 79.7381H140.318C140.318 79.7381 134.801 75.4322 134.801 64.9648" fill="url(#paint32_linear_1_764)"/>
<path d="M108.348 64.452C110.33 66.2254 110.342 68.1531 110.005 69.4552C109.04 71.332 107.963 73.431 107.533 74.2855C106.681 75.9809 104.389 79.7379 108.138 79.7379H116.944C116.944 79.7379 116.944 75.8385 111.377 75.8385C111.377 75.8385 110.601 74.1159 115.544 74.1159C123.385 74.1159 120.487 64.7911 120.487 64.7911" fill="url(#paint33_linear_1_764)"/>
<path d="M138.347 50.2581C138.017 50.5315 137.525 50.2699 137.577 49.8442C138.336 43.529 140.562 41.5226 141.285 41.5226C142.013 41.5226 143.155 44.424 143.266 45.9515C143.276 46.0952 143.21 46.2308 143.099 46.3227L138.347 50.2581Z" fill="url(#paint34_linear_1_764)"/>
<path d="M157.519 55.4762C158.731 55.4762 159.269 54.9536 159.464 54.3634C159.692 53.6727 158.973 53.1501 158.246 53.1501C157.861 53.1501 157.483 53.2814 157.213 53.5556C156.415 54.3669 155.754 55.4762 157.519 55.4762Z" fill="#4B1C3C"/>
<mask id="mask1_1_764" style="mask-type:alpha" maskUnits="userSpaceOnUse" x="105" y="40" width="55" height="40">
<path d="M116.887 65.4748C118.732 67.1337 118.743 68.9369 118.429 70.1549C117.531 71.9105 116.529 73.8739 116.129 74.6732C115.337 76.2591 113.204 79.7736 116.692 79.7736H124.884C124.884 79.7736 124.884 76.1259 119.705 76.1259C119.705 76.1259 118.984 74.5146 123.583 74.5146C130.877 74.5146 128.181 65.792 128.181 65.792" fill="#146FF4"/>
<path d="M116.887 65.4748C118.732 67.1337 118.743 68.9369 118.429 70.1549C117.531 71.9105 116.529 73.8739 116.129 74.6732C115.337 76.2591 113.204 79.7736 116.692 79.7736H124.884C124.884 79.7736 124.884 76.1259 119.705 76.1259C119.705 76.1259 118.984 74.5146 123.583 74.5146C130.877 74.5146 128.181 65.792 128.181 65.792" fill="#0851C4"/>
<path d="M116.887 65.4748C118.732 67.1337 118.743 68.9369 118.429 70.1549C117.531 71.9105 116.529 73.8739 116.129 74.6732C115.337 76.2591 113.204 79.7736 116.692 79.7736H124.884C124.884 79.7736 124.884 76.1259 119.705 76.1259C119.705 76.1259 118.984 74.5146 123.583 74.5146C130.877 74.5146 128.181 65.792 128.181 65.792" fill="#D17F6A"/>
<path d="M116.887 65.4748C118.732 67.1337 118.743 68.9369 118.429 70.1549C117.531 71.9105 116.529 73.8739 116.129 74.6732C115.337 76.2591 113.204 79.7736 116.692 79.7736H124.884C124.884 79.7736 124.884 76.1259 119.705 76.1259C119.705 76.1259 118.984 74.5146 123.583 74.5146C130.877 74.5146 128.181 65.792 128.181 65.792" fill="url(#paint35_linear_1_764)"/>
<path d="M117.654 71.658L123.661 72.5162C127.726 73.0968 131.867 72.8087 135.812 71.6707C138.507 70.8934 141.074 69.7299 143.435 68.2163L148.189 65.1681C148.189 62.0663 147.025 60.9032 152.619 60.9032C158.985 60.9032 159.178 58.383 159.178 56.4444C159.178 55.8628 159.757 53.3426 154.548 53.3426C149.919 53.3426 152.24 50.6286 150.118 48.1084C147.996 45.5882 143.56 46.3637 143.56 46.3637C143.56 44.6189 142.017 40.7417 141.052 40.7417C140.088 40.7417 137.001 43.4558 136.23 52.1795C135.458 60.9032 122.902 53.4434 116.34 60.0386C114.361 62.0276 113.467 63.0957 110.796 63.0957C107.713 63.0957 105.836 58.8909 105.493 56.8341C105.454 56.6072 105.125 56.6266 105.111 56.8554C105.011 58.6757 105.3 61.7155 107.831 64.005C110.074 66.0327 110.088 68.2369 109.706 69.7258" fill="#146FF4"/>
<path d="M117.654 71.658L123.661 72.5162C127.726 73.0968 131.867 72.8087 135.812 71.6707C138.507 70.8934 141.074 69.7299 143.435 68.2163L148.189 65.1681C148.189 62.0663 147.025 60.9032 152.619 60.9032C158.985 60.9032 159.178 58.383 159.178 56.4444C159.178 55.8628 159.757 53.3426 154.548 53.3426C149.919 53.3426 152.24 50.6286 150.118 48.1084C147.996 45.5882 143.56 46.3637 143.56 46.3637C143.56 44.6189 142.017 40.7417 141.052 40.7417C140.088 40.7417 137.001 43.4558 136.23 52.1795C135.458 60.9032 122.902 53.4434 116.34 60.0386C114.361 62.0276 113.467 63.0957 110.796 63.0957C107.713 63.0957 105.836 58.8909 105.493 56.8341C105.454 56.6072 105.125 56.6266 105.111 56.8554C105.011 58.6757 105.3 61.7155 107.831 64.005C110.074 66.0327 110.088 68.2369 109.706 69.7258" fill="#0851C4"/>
<path d="M117.654 71.658L123.661 72.5162C127.726 73.0968 131.867 72.8087 135.812 71.6707C138.507 70.8934 141.074 69.7299 143.435 68.2163L148.189 65.1681C148.189 62.0663 147.025 60.9032 152.619 60.9032C158.985 60.9032 159.178 58.383 159.178 56.4444C159.178 55.8628 159.757 53.3426 154.548 53.3426C149.919 53.3426 152.24 50.6286 150.118 48.1084C147.996 45.5882 143.56 46.3637 143.56 46.3637C143.56 44.6189 142.017 40.7417 141.052 40.7417C140.088 40.7417 137.001 43.4558 136.23 52.1795C135.458 60.9032 122.902 53.4434 116.34 60.0386C114.361 62.0276 113.467 63.0957 110.796 63.0957C107.713 63.0957 105.836 58.8909 105.493 56.8341C105.454 56.6072 105.125 56.6266 105.111 56.8554C105.011 58.6757 105.3 61.7155 107.831 64.005C110.074 66.0327 110.088 68.2369 109.706 69.7258" fill="#D17F6A"/>
<path d="M117.654 71.658L123.661 72.5162C127.726 73.0968 131.867 72.8087 135.812 71.6707C138.507 70.8934 141.074 69.7299 143.435 68.2163L148.189 65.1681C148.189 62.0663 147.025 60.9032 152.619 60.9032C158.985 60.9032 159.178 58.383 159.178 56.4444C159.178 55.8628 159.757 53.3426 154.548 53.3426C149.919 53.3426 152.24 50.6286 150.118 48.1084C147.996 45.5882 143.56 46.3637 143.56 46.3637C143.56 44.6189 142.017 40.7417 141.052 40.7417C140.088 40.7417 137.001 43.4558 136.23 52.1795C135.458 60.9032 122.902 53.4434 116.34 60.0386C114.361 62.0276 113.467 63.0957 110.796 63.0957C107.713 63.0957 105.836 58.8909 105.493 56.8341C105.454 56.6072 105.125 56.6266 105.111 56.8554C105.011 58.6757 105.3 61.7155 107.831 64.005C110.074 66.0327 110.088 68.2369 109.706 69.7258" fill="url(#paint36_linear_1_764)"/>
<path d="M149.196 61.2238C149.196 61.2238 146.244 72.4763 149.798 76.0985C149.798 76.0985 153.401 75.6897 153.401 79.7736H145.192C145.192 79.7736 139.488 75.2808 139.488 64.3591" fill="#146FF4"/>
<path d="M149.196 61.2238C149.196 61.2238 146.244 72.4763 149.798 76.0985C149.798 76.0985 153.401 75.6897 153.401 79.7736H145.192C145.192 79.7736 139.488 75.2808 139.488 64.3591" fill="#0851C4"/>
<path d="M149.196 61.2238C149.196 61.2238 146.244 72.4763 149.798 76.0985C149.798 76.0985 153.401 75.6897 153.401 79.7736H145.192C145.192 79.7736 139.488 75.2808 139.488 64.3591" fill="#D17F6A"/>
<path d="M149.196 61.2238C149.196 61.2238 146.244 72.4763 149.798 76.0985C149.798 76.0985 153.401 75.6897 153.401 79.7736H145.192C145.192 79.7736 139.488 75.2808 139.488 64.3591" fill="url(#paint37_linear_1_764)"/>
</mask>
<g mask="url(#mask1_1_764)">
<path fill-rule="evenodd" clip-rule="evenodd" d="M154.529 63.3905C140.157 65.3282 134.087 57.2835 132.907 52.6354L135.25 52.0401C136.131 55.5075 141.062 62.7664 154.206 60.9941L154.529 63.3905Z" fill="#FED33C"/>
</g>
<path opacity="0.2" d="M154.739 55.396C154.739 55.6254 154.478 55.8114 154.157 55.8114C153.836 55.8114 153.576 55.6254 153.576 55.396C153.576 55.1666 153.836 54.9806 154.157 54.9806C154.478 54.9806 154.739 55.1666 154.739 55.396Z" fill="url(#paint38_linear_1_764)"/>
<path opacity="0.2" d="M155.736 56.3876C155.736 56.4335 155.55 56.4707 155.321 56.4707C155.091 56.4707 154.905 56.4335 154.905 56.3876C154.905 56.3418 155.091 56.3046 155.321 56.3046C155.55 56.3046 155.736 56.3418 155.736 56.3876Z" fill="url(#paint39_linear_1_764)"/>
<path opacity="0.2" d="M151.914 56.3876C151.914 56.4335 151.728 56.4707 151.499 56.4707C151.269 56.4707 151.083 56.4335 151.083 56.3876C151.083 56.3418 151.269 56.3046 151.499 56.3046C151.728 56.3046 151.914 56.3418 151.914 56.3876Z" fill="url(#paint40_linear_1_764)"/>
<path d="M149.921 51.2419C149.921 51.6548 149.549 51.9895 149.09 51.9895C148.631 51.9895 148.259 51.6548 148.259 51.2419C148.259 50.8289 148.631 50.4942 149.09 50.4942C149.549 50.4942 149.921 50.8289 149.921 51.2419Z" fill="#4B1C3C"/>
<path d="M140.949 66.2791C140.949 66.2791 138.062 73.0057 139.142 76.0436C139.253 76.3545 139.604 76.4773 139.934 76.4695C140.557 76.4547 141.516 76.6804 141.751 78.1384C141.815 78.5339 141.479 78.8625 141.079 78.8625H138.284C138.064 78.8625 137.857 78.7635 137.738 78.5781C137.117 77.614 135.247 74.1431 135.247 67.3242" fill="url(#paint41_linear_1_764)"/>
<path d="M134.529 77.3647C134.529 90.3395 136.008 93.5041 137.27 93.5041H165.206C167.458 93.5041 168.775 87.0512 164.468 82.7445C160.162 78.4379 155.297 77.3647 155.297 71.141C155.297 64.9173 152.662 59.221 152.029 59.221C151.395 59.221 150.096 60.8033 149.288 61.7527C148.866 61.5417 147.517 61.1198 145.493 61.1198C142.962 61.1198 141.697 62.0692 141.276 62.0692C140.854 62.0692 139.348 59.221 138.746 59.221C138.143 59.221 134.529 64.3899 134.529 77.3647Z" fill="url(#paint42_linear_1_764)"/>
<path d="M151.925 69.1568C151.879 70.5094 150.746 71.569 149.393 71.5236C148.041 71.4781 146.981 70.3447 147.027 68.9921C147.072 67.6395 148.205 66.5799 149.558 66.6253C150.911 66.6708 151.97 67.8042 151.925 69.1568Z" fill="white"/>
<path d="M143.594 69.1568C143.548 70.5094 142.415 71.569 141.062 71.5236C139.71 71.4781 138.65 70.3447 138.695 68.9921C138.741 67.6395 139.874 66.5799 141.227 66.6253C142.579 66.6708 143.639 67.8042 143.594 69.1568Z" fill="white"/>
<path d="M151.276 69.4673C151.239 70.5548 150.328 71.4068 149.24 71.3703C148.153 71.3337 147.301 70.4224 147.337 69.3349C147.374 68.2473 148.285 67.3954 149.373 67.4319C150.46 67.4685 151.312 68.3797 151.276 69.4673Z" fill="white"/>
<path d="M151.276 69.4673C151.239 70.5548 150.328 71.4068 149.24 71.3703C148.153 71.3337 147.301 70.4224 147.337 69.3349C147.374 68.2473 148.285 67.3954 149.373 67.4319C150.46 67.4685 151.312 68.3797 151.276 69.4673Z" fill="url(#paint43_linear_1_764)"/>
<path d="M142.944 69.4673C142.907 70.5548 141.996 71.4068 140.908 71.3703C139.821 71.3337 138.969 70.4224 139.005 69.3349C139.042 68.2473 139.953 67.3954 141.041 67.4319C142.128 67.4685 142.98 68.3797 142.944 69.4673Z" fill="white"/>
<path d="M142.944 69.4673C142.907 70.5548 141.996 71.4068 140.908 71.3703C139.821 71.3337 138.969 70.4224 139.005 69.3349C139.042 68.2473 139.953 67.3954 141.041 67.4319C142.128 67.4685 142.98 68.3797 142.944 69.4673Z" fill="url(#paint44_linear_1_764)"/>
<path d="M151.192 68.4221C151.192 68.6476 151.009 68.8305 150.783 68.8305C150.558 68.8305 150.375 68.6476 150.375 68.4221C150.375 68.1965 150.558 68.0136 150.783 68.0136C151.009 68.0136 151.192 68.1965 151.192 68.4221Z" fill="white"/>
<path d="M142.861 68.4221C142.861 68.6476 142.678 68.8305 142.452 68.8305C142.227 68.8305 142.044 68.6476 142.044 68.4221C142.044 68.1965 142.227 68.0136 142.452 68.0136C142.678 68.0136 142.861 68.1965 142.861 68.4221Z" fill="white"/>
<path d="M145.068 72.3297C145.133 72.4005 145.191 72.4628 145.234 72.5089C145.283 72.5614 145.351 72.5897 145.422 72.5897C145.522 72.5897 145.614 72.5369 145.663 72.451L145.757 72.2894C145.932 71.9884 145.74 71.6117 145.392 71.6097C145.38 71.6096 145.368 71.6095 145.356 71.6095L145.336 71.6096C144.961 71.6123 144.814 72.0542 145.068 72.3297Z" fill="#FF5E88"/>
<path opacity="0.2" d="M139.994 62.7832L138.151 62.8363C137.598 62.8523 137.208 62.3591 137.409 61.9012C137.555 61.5671 137.704 61.2198 137.796 60.9914C137.879 60.785 138.031 60.5136 138.191 60.2514C138.455 59.821 139.128 59.808 139.44 60.2119L140.602 61.717C140.945 62.1608 140.6 62.7657 139.994 62.7832Z" fill="url(#paint45_linear_1_764)"/>
<path opacity="0.2" d="M150.849 62.2467L152.658 62.4589C153.014 62.5007 153.302 62.2129 153.198 61.9074C153.087 61.5806 152.933 61.1646 152.744 60.7486C152.616 60.466 152.5 60.2399 152.401 60.0628C152.246 59.787 151.85 59.7833 151.654 60.0372L150.494 61.5395C150.279 61.819 150.471 62.2023 150.849 62.2467Z" fill="url(#paint46_linear_1_764)"/>
<path fill-rule="evenodd" clip-rule="evenodd" d="M143.208 73.3602C143.272 73.3614 143.32 73.3622 143.351 73.3622C143.417 73.3622 143.472 73.4163 143.472 73.4831C143.472 73.5499 143.417 73.604 143.351 73.604C143.32 73.604 143.271 73.6032 143.206 73.6021C142.059 73.5824 135.809 73.4754 130.584 76.274C130.525 76.3055 130.451 76.2834 130.42 76.2245C130.388 76.1656 130.411 76.0924 130.469 76.0608C135.756 73.2299 142.067 73.3403 143.208 73.3602Z" fill="black"/>
<path fill-rule="evenodd" clip-rule="evenodd" d="M147.659 73.3602C147.595 73.3614 147.547 73.3622 147.516 73.3622C147.45 73.3622 147.395 73.4163 147.395 73.4831C147.395 73.5499 147.45 73.604 147.516 73.604C147.547 73.604 147.596 73.6032 147.662 73.6021C148.808 73.5824 155.058 73.4754 160.284 76.274C160.342 76.3055 160.416 76.2834 160.447 76.2245C160.479 76.1656 160.457 76.0924 160.398 76.0608C155.111 73.2299 148.8 73.3403 147.659 73.3602Z" fill="black"/>
<path fill-rule="evenodd" clip-rule="evenodd" d="M143.71 74.024C143.732 74.0868 143.7 74.1561 143.637 74.1787C142.64 74.5376 141.092 75.2935 139.697 76.3908C138.3 77.4894 137.072 78.9187 136.689 80.6209C136.674 80.6861 136.61 80.727 136.545 80.7123C136.479 80.6977 136.439 80.633 136.453 80.5678C136.854 78.7877 138.131 77.315 139.547 76.2008C140.965 75.0854 142.537 74.3177 143.555 73.9512C143.618 73.9285 143.687 73.9611 143.71 74.024Z" fill="black"/>
<path fill-rule="evenodd" clip-rule="evenodd" d="M147.157 74.024C147.135 74.0868 147.167 74.1561 147.23 74.1787C148.227 74.5376 149.775 75.2935 151.17 76.3908C152.567 77.4894 153.795 78.9187 154.178 80.6209C154.193 80.6861 154.257 80.727 154.323 80.7123C154.388 80.6977 154.429 80.633 154.414 80.5678C154.013 78.7877 152.736 77.315 151.32 76.2008C149.902 75.0854 148.33 74.3177 147.312 73.9512C147.249 73.9285 147.18 73.9611 147.157 74.024Z" fill="black"/>
<path fill-rule="evenodd" clip-rule="evenodd" d="M143.379 72.7129C143.38 72.7129 143.38 72.7129 143.351 72.8288L143.379 72.7129C143.444 72.729 143.484 72.7946 143.468 72.8594C143.452 72.9242 143.386 72.9637 143.321 72.9476L143.32 72.9474L143.317 72.9465L143.302 72.943C143.289 72.9399 143.269 72.9353 143.243 72.9293C143.19 72.9174 143.112 72.9001 143.009 72.879C142.803 72.8369 142.499 72.7794 142.109 72.7185C141.329 72.5967 140.206 72.4612 138.833 72.407C136.086 72.2986 132.344 72.5155 128.358 73.8158C128.295 73.8365 128.227 73.8019 128.206 73.7384C128.185 73.6749 128.22 73.6067 128.283 73.5859C132.303 72.2745 136.075 72.0561 138.842 72.1654C140.226 72.22 141.359 72.3565 142.147 72.4796C142.54 72.5411 142.848 72.5993 143.057 72.6421C143.162 72.6636 143.242 72.6812 143.296 72.6935C143.324 72.6996 143.344 72.7044 143.358 72.7077L143.374 72.7115L143.378 72.7126L143.379 72.7129Z" fill="black"/>
<path fill-rule="evenodd" clip-rule="evenodd" d="M147.488 72.7129C147.487 72.7129 147.487 72.7129 147.516 72.8288L147.488 72.7129C147.423 72.729 147.383 72.7946 147.399 72.8594C147.415 72.9242 147.481 72.9637 147.546 72.9476L147.547 72.9474L147.55 72.9465L147.565 72.943C147.578 72.9399 147.598 72.9353 147.624 72.9293C147.677 72.9174 147.755 72.9001 147.858 72.879C148.064 72.8369 148.368 72.7794 148.758 72.7185C149.538 72.5967 150.661 72.4612 152.034 72.407C154.781 72.2986 158.523 72.5155 162.509 73.8158C162.572 73.8365 162.64 73.8019 162.661 73.7384C162.682 73.6749 162.647 73.6067 162.584 73.5859C158.564 72.2745 154.792 72.0561 152.025 72.1654C150.641 72.22 149.508 72.3565 148.721 72.4796C148.327 72.5411 148.019 72.5993 147.81 72.6421C147.705 72.6636 147.625 72.6812 147.571 72.6935C147.544 72.6996 147.523 72.7044 147.509 72.7077L147.493 72.7115L147.489 72.7126L147.488 72.7129Z" fill="black"/>
<path opacity="0.6" d="M146.345 76.3967C145.864 76.6743 145.084 76.2235 144.603 75.3896C144.121 74.5558 144.121 73.6548 144.602 73.3772C145.083 73.0995 145.863 73.5504 146.344 74.3842C146.826 75.2181 146.826 76.1191 146.345 76.3967Z" fill="url(#paint47_linear_1_764)"/>
<mask id="mask2_1_764" style="mask-type:alpha" maskUnits="userSpaceOnUse" x="134" y="59" width="34" height="35">
<path d="M134.529 77.3647C134.529 90.3395 136.008 93.5041 137.27 93.5041H165.206C167.458 93.5041 168.775 87.0512 164.468 82.7445C160.162 78.4379 155.297 77.3647 155.297 71.141C155.297 64.9173 152.662 59.221 152.029 59.221C151.395 59.221 150.096 60.8033 149.288 61.7527C148.866 61.5417 147.517 61.1198 145.493 61.1198C142.962 61.1198 141.697 62.0692 141.276 62.0692C140.854 62.0692 139.348 59.221 138.746 59.221C138.143 59.221 134.529 64.3899 134.529 77.3647Z" fill="url(#paint48_linear_1_764)"/>
</mask>
<g mask="url(#mask2_1_764)">
<path d="M150.002 93.5025H153.096C155.17 93.5025 157.237 93.9808 159.216 94.6002C160.683 95.0596 162.27 95.496 163.118 95.7079C165.078 96.198 168.182 93.0941 168.345 92.9307C168.509 92.7674 161.157 84.1906 163.363 87.5396C165.568 90.8886 158.217 91.4604 156.256 91.4604H149.978C149.708 91.4604 149.451 91.5674 149.261 91.7578C148.791 92.2275 148.892 93.0142 149.464 93.351L149.48 93.3603C149.638 93.4534 149.818 93.5025 150.002 93.5025Z" fill="url(#paint49_linear_1_764)"/>
</g>
<path d="M142.214 92.4921C142.532 90.2259 142.971 87.0858 143.199 85.3904C143.288 84.7287 142.809 84.1935 142.142 84.1935H140.021C139.28 84.1935 138.714 84.853 138.825 85.5849L139.881 92.5042C139.969 93.08 140.464 93.5053 141.047 93.5053C141.635 93.5053 142.132 93.0739 142.214 92.4921Z" fill="url(#paint50_linear_1_764)"/>
<path d="M146.461 92.4921C146.726 90.6089 147.073 88.1223 147.314 86.3627C147.478 85.1649 146.618 84.1935 145.409 84.1935C144.068 84.1935 143.043 85.3876 143.245 86.7128L144.129 92.5042C144.217 93.08 144.712 93.5053 145.294 93.5053C145.882 93.5053 146.38 93.0739 146.461 92.4921Z" fill="url(#paint51_linear_1_764)"/>
<path d="M111.436 90.008C113.458 89.5408 112.539 86.1311 111.463 83.6511C110.891 82.33 111.279 80.6589 112.515 79.9197C114.16 78.9356 116.25 80.1209 116.25 82.038L116.25 88.5816C116.25 90.5627 115.132 94.2175 110.027 93.4155C107.757 93.0589 105.76 90.008 103.216 89.7703C100.672 89.5325 100.202 91.9495 99.889 92.9005C99.5758 93.8514 97.6579 93.6533 98.1667 91.9495C98.6756 90.2457 100.985 86.6797 104.234 87.2344C107.483 87.7891 107.835 90.8401 111.436 90.008Z" fill="#C4C4C4"/>
<path d="M111.436 90.008C113.458 89.5408 112.539 86.1311 111.463 83.6511C110.891 82.33 111.279 80.6589 112.515 79.9197C114.16 78.9356 116.25 80.1209 116.25 82.038L116.25 88.5816C116.25 90.5627 115.132 94.2175 110.027 93.4155C107.757 93.0589 105.76 90.008 103.216 89.7703C100.672 89.5325 100.202 91.9495 99.889 92.9005C99.5758 93.8514 97.6579 93.6533 98.1667 91.9495C98.6756 90.2457 100.985 86.6797 104.234 87.2344C107.483 87.7891 107.835 90.8401 111.436 90.008Z" fill="url(#paint52_linear_1_764)"/>
<path d="M111.436 90.008C113.458 89.5408 112.539 86.1311 111.463 83.6511C110.891 82.33 111.279 80.6589 112.515 79.9197C114.16 78.9356 116.25 80.1209 116.25 82.038L116.25 88.5816C116.25 90.5627 115.132 94.2175 110.027 93.4155C107.757 93.0589 105.76 90.008 103.216 89.7703C100.672 89.5325 100.202 91.9495 99.889 92.9005C99.5758 93.8514 97.6579 93.6533 98.1667 91.9495C98.6756 90.2457 100.985 86.6797 104.234 87.2344C107.483 87.7891 107.835 90.8401 111.436 90.008Z" fill="url(#paint53_linear_1_764)"/>
<path d="M115.321 93.4903C118.87 93.4903 119.047 93.4903 127.921 93.4903C136.794 93.4903 137.326 92.959 137.326 76.3125C137.326 63.1907 132.364 55.3507 130.263 52.6189C129.805 52.0233 128.939 52.0799 128.502 52.691L127.279 54.4003C126.933 54.8834 126.269 55.0802 125.684 54.9739C124.952 54.8408 123.754 54.7075 121.887 54.7075C120.669 54.7075 119.811 54.7453 119.208 54.7963C118.46 54.8594 117.41 54.499 116.979 53.8844L116.111 52.6466C115.692 52.0493 114.862 51.967 114.391 52.5247C112.183 55.144 106.802 62.9833 106.802 77.198C106.802 95.0841 107.512 93.4903 115.321 93.4903Z" fill="#7B22F3"/>
<path d="M115.321 93.4903C118.87 93.4903 119.047 93.4903 127.921 93.4903C136.794 93.4903 137.326 92.959 137.326 76.3125C137.326 63.1907 132.364 55.3507 130.263 52.6189C129.805 52.0233 128.939 52.0799 128.502 52.691L127.279 54.4003C126.933 54.8834 126.269 55.0802 125.684 54.9739C124.952 54.8408 123.754 54.7075 121.887 54.7075C120.669 54.7075 119.811 54.7453 119.208 54.7963C118.46 54.8594 117.41 54.499 116.979 53.8844L116.111 52.6466C115.692 52.0493 114.862 51.967 114.391 52.5247C112.183 55.144 106.802 62.9833 106.802 77.198C106.802 95.0841 107.512 93.4903 115.321 93.4903Z" fill="url(#paint54_linear_1_764)"/>
<path d="M129.212 63.4274C129.153 65.1687 127.963 66.5419 126.553 66.4946C125.144 66.4472 124.048 64.9971 124.107 63.2558C124.165 61.5144 125.356 60.1412 126.765 60.1886C128.175 60.236 129.27 61.686 129.212 63.4274Z" fill="white"/>
<path d="M120.906 63.4832C120.848 65.2021 119.673 66.5577 118.282 66.5109C116.89 66.4641 115.809 65.0327 115.867 63.3138C115.924 61.5949 117.099 60.2393 118.491 60.2861C119.882 60.3329 120.964 61.7643 120.906 63.4832Z" fill="white"/>
<path d="M128.545 64.0433C128.498 65.4397 127.567 66.5417 126.464 66.5046C125.362 66.4676 124.506 65.3055 124.553 63.9091C124.6 62.5126 125.532 61.4106 126.634 61.4477C127.737 61.4848 128.592 62.6468 128.545 64.0433Z" fill="white"/>
<path d="M128.545 64.0433C128.498 65.4397 127.567 66.5417 126.464 66.5046C125.362 66.4676 124.506 65.3055 124.553 63.9091C124.6 62.5126 125.532 61.4106 126.634 61.4477C127.737 61.4848 128.592 62.6468 128.545 64.0433Z" fill="url(#paint55_linear_1_764)"/>
<path d="M120.248 64.0916C120.201 65.47 119.282 66.5578 118.193 66.5212C117.105 66.4846 116.26 65.3375 116.307 63.9591C116.353 62.5806 117.273 61.4928 118.361 61.5294C119.449 61.566 120.294 62.7131 120.248 64.0916Z" fill="white"/>
<path d="M120.248 64.0916C120.201 65.47 119.282 66.5578 118.193 66.5212C117.105 66.4846 116.26 65.3375 116.307 63.9591C116.353 62.5806 117.273 61.4928 118.361 61.5294C119.449 61.566 120.294 62.7131 120.248 64.0916Z" fill="url(#paint56_linear_1_764)"/>
<path d="M128.191 62.221C128.292 62.5983 128.144 62.9655 127.861 63.0413C127.578 63.1172 127.267 62.8728 127.166 62.4956C127.065 62.1183 127.212 61.751 127.495 61.6752C127.778 61.5994 128.09 61.8438 128.191 62.221Z" fill="white"/>
<path d="M119.898 62.2909C119.997 62.6633 119.852 63.0258 119.573 63.1007C119.293 63.1755 118.986 62.9343 118.886 62.5619C118.786 62.1895 118.932 61.827 119.211 61.7522C119.491 61.6773 119.798 61.9185 119.898 62.2909Z" fill="white"/>
<path d="M123.089 67.6022C124.048 67.5992 124.559 68.7318 123.922 69.4488C123.522 69.8994 122.835 69.9482 122.375 69.5586C121.588 68.8917 122.057 67.6055 123.089 67.6022Z" fill="#FF1D66"/>
<path d="M129.64 91.5782C130.187 87.7511 130.931 82.5137 131.346 79.4983C131.528 78.1753 130.575 77.1011 129.24 77.1011H126.05C124.566 77.1011 123.433 78.4245 123.66 79.8904L125.48 91.6C125.639 92.6248 126.521 93.3806 127.558 93.3806C128.604 93.3806 129.491 92.6139 129.64 91.5782Z" fill="url(#paint57_linear_1_764)"/>
<path d="M121.385 91.6086C121.923 87.7792 122.657 82.5225 123.066 79.499C123.245 78.1755 122.289 77.1011 120.954 77.1011H117.902C116.421 77.1011 115.288 78.4202 115.512 79.8841L117.305 91.6298C117.459 92.6368 118.325 93.3806 119.344 93.3806C120.371 93.3806 121.241 92.6261 121.385 91.6086Z" fill="url(#paint58_linear_1_764)"/>
<path fill-rule="evenodd" clip-rule="evenodd" d="M131.285 67.3941L125.719 68.4741L125.673 68.2367L131.239 67.1567L131.285 67.3941ZM114.647 68.3175H120.047V68.5593H114.647V68.3175ZM114.218 69.8136L120.283 69.149L120.309 69.3894L114.245 70.054L114.218 69.8136ZM131.582 70.0541L125.684 69.4726L125.708 69.232L131.606 69.8135L131.582 70.0541ZM117.422 71.2358L119.831 70.1558L119.93 70.3764L117.521 71.4564L117.422 71.2358ZM128.977 71.7916L125.654 70.5455L125.738 70.319L129.061 71.5652L128.977 71.7916Z" fill="black"/>
<path d="M74.6726 43.9809C74.6726 43.9809 78.3064 45.133 80.7869 50.2936C83.2674 55.4543 81.5453 61.2778 82.4142 64.1501C83.2674 67.0224 91.3092 68.2533 91.9886 72.7511C92.6521 77.249 85.2897 76.2863 80.8975 74.8501C76.4895 73.414 71.8445 73.5244 71.8445 73.5244C71.8445 73.5244 73.9142 66.9277 74.6884 63.2032C75.4468 59.4786 71.7971 56.7011 71.8445 52.0296C68.8427 54.9019 67.1995 56.8115 60.1689 58.4371C53.154 60.0626 51.3845 66.9277 50.8315 70.1787C45.1122 70.6679 40.799 71.7253 36.786 72.7669C32.773 73.8243 30.5927 70.7153 32.0146 67.48C33.4366 64.2605 31.8093 56.6622 36.786 54.3739C41.7628 52.0855 47.9719 52.5031 52.8538 45.9063C57.7358 39.3095 71.2284 37.684 74.6726 43.9809Z" fill="#80CFD4"/>
<path d="M74.6726 43.9809C74.6726 43.9809 78.3064 45.133 80.7869 50.2936C83.2674 55.4543 81.5453 61.2778 82.4142 64.1501C83.2674 67.0224 91.3092 68.2533 91.9886 72.7511C92.6521 77.249 85.2897 76.2863 80.8975 74.8501C76.4895 73.414 71.8445 73.5244 71.8445 73.5244C71.8445 73.5244 73.9142 66.9277 74.6884 63.2032C75.4468 59.4786 71.7971 56.7011 71.8445 52.0296C68.8427 54.9019 67.1995 56.8115 60.1689 58.4371C53.154 60.0626 51.3845 66.9277 50.8315 70.1787C45.1122 70.6679 40.799 71.7253 36.786 72.7669C32.773 73.8243 30.5927 70.7153 32.0146 67.48C33.4366 64.2605 31.8093 56.6622 36.786 54.3739C41.7628 52.0855 47.9719 52.5031 52.8538 45.9063C57.7358 39.3095 71.2284 37.684 74.6726 43.9809Z" fill="#7B22F3"/>
<defs>
<linearGradient id="paint0_linear_1_764" x1="94.4553" y1="85.566" x2="86.7334" y2="70.1974" gradientUnits="userSpaceOnUse">
<stop stop-color="#FF1C66"/>
<stop offset="1" stop-color="#FF5E88"/>
</linearGradient>
<linearGradient id="paint1_linear_1_764" x1="135.9" y1="85.5493" x2="130.792" y2="67.731" gradientUnits="userSpaceOnUse">
<stop stop-color="#FF1C66"/>
<stop offset="1" stop-color="#FF5E88"/>
</linearGradient>
<linearGradient id="paint2_linear_1_764" x1="67.3496" y1="85.7756" x2="63.7622" y2="67.7928" gradientUnits="userSpaceOnUse">
<stop stop-color="#FF1C66"/>
<stop offset="1" stop-color="#FF5E88"/>
</linearGradient>
<linearGradient id="paint3_linear_1_764" x1="-25.67" y1="91.2398" x2="82.5806" y2="97.0902" gradientUnits="userSpaceOnUse">
<stop offset="0.00127983" stop-color="#FFB4AB"/>
<stop offset="1" stop-color="#FFCEC9" stop-opacity="0"/>
</linearGradient>
<linearGradient id="paint4_linear_1_764" x1="101.035" y1="40.624" x2="98.0514" y2="51.7577" gradientUnits="userSpaceOnUse">
<stop stop-color="#D17F6A"/>
<stop offset="1" stop-color="#964651"/>
</linearGradient>
<linearGradient id="paint5_linear_1_764" x1="108.763" y1="46.1924" x2="94.4556" y2="99.5889" gradientUnits="userSpaceOnUse">
<stop stop-color="#D17F6A"/>
<stop offset="1" stop-color="#964651"/>
</linearGradient>
<linearGradient id="paint6_linear_1_764" x1="108.763" y1="46.1924" x2="94.4556" y2="99.5889" gradientUnits="userSpaceOnUse">
<stop stop-color="#D17F6A"/>
<stop offset="1" stop-color="#964651"/>
</linearGradient>
<linearGradient id="paint7_linear_1_764" x1="108.763" y1="46.1924" x2="94.4556" y2="99.5889" gradientUnits="userSpaceOnUse">
<stop stop-color="#D17F6A"/>
<stop offset="1" stop-color="#964651"/>
</linearGradient>
<linearGradient id="paint8_linear_1_764" x1="98.0636" y1="59.899" x2="94.6013" y2="72.8203" gradientUnits="userSpaceOnUse">
<stop stop-color="#C27164" stop-opacity="0"/>
<stop offset="0.276042" stop-color="#C27164"/>
<stop offset="1" stop-color="#D17F6A"/>
</linearGradient>
<linearGradient id="paint9_linear_1_764" x1="122.927" y1="65.6302" x2="119.234" y2="79.4153" gradientUnits="userSpaceOnUse">
<stop stop-color="#C27164" stop-opacity="0"/>
<stop offset="0.276042" stop-color="#C27164"/>
<stop offset="1" stop-color="#D17F6A"/>
</linearGradient>
<linearGradient id="paint10_linear_1_764" x1="104.633" y1="39.4678" x2="103.16" y2="44.9672" gradientUnits="userSpaceOnUse">
<stop stop-color="#964651"/>
<stop offset="1" stop-color="#964651" stop-opacity="0"/>
</linearGradient>
<linearGradient id="paint11_linear_1_764" x1="108.749" y1="46.2462" x2="94.4462" y2="99.624" gradientUnits="userSpaceOnUse">
<stop stop-color="#D17F6A"/>
<stop offset="1" stop-color="#964651"/>
</linearGradient>
<linearGradient id="paint12_linear_1_764" x1="108.749" y1="46.2462" x2="94.4462" y2="99.624" gradientUnits="userSpaceOnUse">
<stop stop-color="#D17F6A"/>
<stop offset="1" stop-color="#964651"/>
</linearGradient>
<linearGradient id="paint13_linear_1_764" x1="108.749" y1="46.2462" x2="94.4462" y2="99.624" gradientUnits="userSpaceOnUse">
<stop stop-color="#D17F6A"/>
<stop offset="1" stop-color="#964651"/>
</linearGradient>
<linearGradient id="paint14_linear_1_764" x1="89.7416" y1="48.5588" x2="88.3772" y2="48.1932" gradientUnits="userSpaceOnUse">
<stop stop-color="#4B1C3C"/>
<stop offset="1" stop-color="#4B1C3C" stop-opacity="0"/>
</linearGradient>
<linearGradient id="paint15_linear_1_764" x1="88.3373" y1="49.1234" x2="87.4237" y2="48.8786" gradientUnits="userSpaceOnUse">
<stop stop-color="#4B1C3C"/>
<stop offset="1" stop-color="#4B1C3C" stop-opacity="0"/>
</linearGradient>
<linearGradient id="paint16_linear_1_764" x1="91.8812" y1="50.0773" x2="90.2366" y2="49.6367" gradientUnits="userSpaceOnUse">
<stop stop-color="#4B1C3C"/>
<stop offset="1" stop-color="#4B1C3C" stop-opacity="0"/>
</linearGradient>
<linearGradient id="paint17_linear_1_764" x1="176.162" y1="54.0349" x2="176.162" y2="72.4206" gradientUnits="userSpaceOnUse">
<stop stop-color="#FF7D01"/>
<stop offset="1" stop-color="#FEB200"/>
</linearGradient>
<linearGradient id="paint18_linear_1_764" x1="160.996" y1="66.1115" x2="160.996" y2="93.8825" gradientUnits="userSpaceOnUse">
<stop stop-color="#FF7D01"/>
<stop offset="1" stop-color="#FEB200"/>
</linearGradient>
<linearGradient id="paint19_linear_1_764" x1="176.137" y1="53.9534" x2="176.137" y2="72.2574" gradientUnits="userSpaceOnUse">
<stop stop-color="#FF7D01"/>
<stop offset="1" stop-color="#FEB200"/>
</linearGradient>
<linearGradient id="paint20_linear_1_764" x1="176.137" y1="53.9534" x2="176.137" y2="72.2574" gradientUnits="userSpaceOnUse">
<stop stop-color="#FF7D01"/>
<stop offset="1" stop-color="#FEB200"/>
</linearGradient>
<linearGradient id="paint21_linear_1_764" x1="174.193" y1="79.3679" x2="174.193" y2="93.6887" gradientUnits="userSpaceOnUse">
<stop stop-color="#FEB200" stop-opacity="0"/>
<stop offset="0.692708" stop-color="#FF7D01"/>
</linearGradient>
<linearGradient id="paint22_linear_1_764" x1="179.029" y1="79.3679" x2="179.029" y2="93.6887" gradientUnits="userSpaceOnUse">
<stop stop-color="#FEB200" stop-opacity="0"/>
<stop offset="0.692708" stop-color="#FF7D01"/>
</linearGradient>
<linearGradient id="paint23_linear_1_764" x1="179.337" y1="61.7982" x2="179.607" y2="60.975" gradientUnits="userSpaceOnUse">
<stop/>
<stop offset="1"/>
</linearGradient>
<linearGradient id="paint24_linear_1_764" x1="171.666" y1="60.9646" x2="171.936" y2="60.1415" gradientUnits="userSpaceOnUse">
<stop/>
<stop offset="1"/>
</linearGradient>
<linearGradient id="paint25_linear_1_764" x1="172.432" y1="53.9599" x2="172.383" y2="55.8328" gradientUnits="userSpaceOnUse">
<stop/>
<stop offset="1" stop-opacity="0"/>
</linearGradient>
<linearGradient id="paint26_linear_1_764" x1="183.25" y1="55.476" x2="182.247" y2="57.0586" gradientUnits="userSpaceOnUse">
<stop/>
<stop offset="1" stop-opacity="0"/>
</linearGradient>
<linearGradient id="paint27_linear_1_764" x1="176.253" y1="68.6374" x2="176.253" y2="69.8992" gradientUnits="userSpaceOnUse">
<stop/>
<stop offset="1" stop-opacity="0"/>
</linearGradient>
<linearGradient id="paint28_linear_1_764" x1="143.856" y1="43.765" x2="143.856" y2="56.4196" gradientUnits="userSpaceOnUse">
<stop stop-color="#D17F6A"/>
<stop offset="1" stop-color="#964651"/>
</linearGradient>
<linearGradient id="paint29_linear_1_764" x1="134.077" y1="47.4801" x2="134.077" y2="108.17" gradientUnits="userSpaceOnUse">
<stop stop-color="#D17F6A"/>
<stop offset="1" stop-color="#964651"/>
</linearGradient>
<linearGradient id="paint30_linear_1_764" x1="134.077" y1="47.4801" x2="134.077" y2="108.17" gradientUnits="userSpaceOnUse">
<stop stop-color="#D17F6A"/>
<stop offset="1" stop-color="#964651"/>
</linearGradient>
<linearGradient id="paint31_linear_1_764" x1="134.077" y1="47.4801" x2="134.077" y2="108.17" gradientUnits="userSpaceOnUse">
<stop stop-color="#D17F6A"/>
<stop offset="1" stop-color="#964651"/>
</linearGradient>
<linearGradient id="paint32_linear_1_764" x1="141.53" y1="65.0518" x2="141.53" y2="79.7381" gradientUnits="userSpaceOnUse">
<stop stop-color="#C27164" stop-opacity="0"/>
<stop offset="0.276042" stop-color="#C27164"/>
<stop offset="1" stop-color="#D17F6A"/>
</linearGradient>
<linearGradient id="paint33_linear_1_764" x1="113.534" y1="64.0699" x2="113.534" y2="79.7379" gradientUnits="userSpaceOnUse">
<stop stop-color="#C27164" stop-opacity="0"/>
<stop offset="0.276042" stop-color="#C27164"/>
<stop offset="1" stop-color="#D17F6A"/>
</linearGradient>
<linearGradient id="paint34_linear_1_764" x1="140.367" y1="41.5226" x2="140.367" y2="47.7732" gradientUnits="userSpaceOnUse">
<stop stop-color="#964651"/>
<stop offset="1" stop-color="#964651" stop-opacity="0"/>
</linearGradient>
<linearGradient id="paint35_linear_1_764" x1="134.078" y1="47.5299" x2="134.078" y2="108.199" gradientUnits="userSpaceOnUse">
<stop stop-color="#D17F6A"/>
<stop offset="1" stop-color="#964651"/>
</linearGradient>
<linearGradient id="paint36_linear_1_764" x1="134.078" y1="47.5299" x2="134.078" y2="108.199" gradientUnits="userSpaceOnUse">
<stop stop-color="#D17F6A"/>
<stop offset="1" stop-color="#964651"/>
</linearGradient>
<linearGradient id="paint37_linear_1_764" x1="134.078" y1="47.5299" x2="134.078" y2="108.199" gradientUnits="userSpaceOnUse">
<stop stop-color="#D17F6A"/>
<stop offset="1" stop-color="#964651"/>
</linearGradient>
<linearGradient id="paint38_linear_1_764" x1="153.576" y1="55.396" x2="155.126" y2="55.396" gradientUnits="userSpaceOnUse">
<stop stop-color="#4B1C3C"/>
<stop offset="1" stop-color="#4B1C3C" stop-opacity="0"/>
</linearGradient>
<linearGradient id="paint39_linear_1_764" x1="154.905" y1="56.3876" x2="155.944" y2="56.3876" gradientUnits="userSpaceOnUse">
<stop stop-color="#4B1C3C"/>
<stop offset="1" stop-color="#4B1C3C" stop-opacity="0"/>
</linearGradient>
<linearGradient id="paint40_linear_1_764" x1="150.876" y1="56.3876" x2="152.745" y2="56.3876" gradientUnits="userSpaceOnUse">
<stop stop-color="#4B1C3C"/>
<stop offset="1" stop-color="#4B1C3C" stop-opacity="0"/>
</linearGradient>
<linearGradient id="paint41_linear_1_764" x1="138.525" y1="64.9773" x2="138.525" y2="78.8625" gradientUnits="userSpaceOnUse">
<stop stop-color="#FEB200" stop-opacity="0"/>
<stop offset="0.692708" stop-color="#FF7D01"/>
</linearGradient>
<linearGradient id="paint42_linear_1_764" x1="141.276" y1="93.5859" x2="141.276" y2="59.1973" gradientUnits="userSpaceOnUse">
<stop offset="0.5625" stop-color="#FF7D01"/>
<stop offset="1" stop-color="#FEB200"/>
</linearGradient>
<linearGradient id="paint43_linear_1_764" x1="147.693" y1="68.2471" x2="147.721" y2="67.3991" gradientUnits="userSpaceOnUse">
<stop/>
<stop offset="1"/>
</linearGradient>
<linearGradient id="paint44_linear_1_764" x1="139.361" y1="68.2471" x2="139.389" y2="67.3991" gradientUnits="userSpaceOnUse">
<stop/>
<stop offset="1"/>
</linearGradient>
<linearGradient id="paint45_linear_1_764" x1="139.124" y1="60.0286" x2="139.561" y2="62.5249" gradientUnits="userSpaceOnUse">
<stop/>
<stop offset="1" stop-opacity="0"/>
</linearGradient>
<linearGradient id="paint46_linear_1_764" x1="151.785" y1="60.0443" x2="151.446" y2="61.9811" gradientUnits="userSpaceOnUse">
<stop/>
<stop offset="1" stop-opacity="0"/>
</linearGradient>
<linearGradient id="paint47_linear_1_764" x1="146.344" y1="74.3842" x2="144.603" y2="75.3896" gradientUnits="userSpaceOnUse">
<stop/>
<stop offset="1" stop-opacity="0"/>
</linearGradient>
<linearGradient id="paint48_linear_1_764" x1="141.276" y1="93.5859" x2="141.276" y2="59.1973" gradientUnits="userSpaceOnUse">
<stop offset="0.5625" stop-color="#FF7D01"/>
<stop offset="1" stop-color="#FEB200"/>
</linearGradient>
<linearGradient id="paint49_linear_1_764" x1="163.199" y1="96.024" x2="143.677" y2="96.024" gradientUnits="userSpaceOnUse">
<stop stop-color="#FF7D01"/>
<stop offset="0.717724" stop-color="#FEB200"/>
</linearGradient>
<linearGradient id="paint50_linear_1_764" x1="140.982" y1="84.1935" x2="140.982" y2="93.5053" gradientUnits="userSpaceOnUse">
<stop stop-color="#FF7D01" stop-opacity="0"/>
<stop offset="1" stop-color="#FEB200"/>
</linearGradient>
<linearGradient id="paint51_linear_1_764" x1="145.229" y1="84.1935" x2="145.229" y2="93.5053" gradientUnits="userSpaceOnUse">
<stop stop-color="#FF7D01" stop-opacity="0"/>
<stop offset="1" stop-color="#FEB200"/>
</linearGradient>
<linearGradient id="paint52_linear_1_764" x1="102.098" y1="82.1298" x2="98.1857" y2="82.1298" gradientUnits="userSpaceOnUse">
<stop stop-color="#7B22F3"/>
<stop offset="1" stop-color="#AD00FF"/>
</linearGradient>
<linearGradient id="paint53_linear_1_764" x1="116.783" y1="89.4531" x2="116.783" y2="73.9997" gradientUnits="userSpaceOnUse">
<stop stop-color="#FF7D01"/>
<stop offset="0.717724" stop-color="#FEB200"/>
</linearGradient>
<linearGradient id="paint54_linear_1_764" x1="122.064" y1="51.5201" x2="122.064" y2="93.5269" gradientUnits="userSpaceOnUse">
<stop stop-color="#FF7D01"/>
<stop offset="1" stop-color="#FEB200"/>
</linearGradient>
<linearGradient id="paint55_linear_1_764" x1="124.923" y1="62.5094" x2="124.96" y2="61.4205" gradientUnits="userSpaceOnUse">
<stop/>
<stop offset="1"/>
</linearGradient>
<linearGradient id="paint56_linear_1_764" x1="116.672" y1="62.5775" x2="116.708" y2="61.5026" gradientUnits="userSpaceOnUse">
<stop/>
<stop offset="1"/>
</linearGradient>
<linearGradient id="paint57_linear_1_764" x1="127.442" y1="77.1011" x2="127.442" y2="93.3806" gradientUnits="userSpaceOnUse">
<stop stop-color="#FEB200" stop-opacity="0"/>
<stop offset="1" stop-color="#FF7D01"/>
</linearGradient>
<linearGradient id="paint58_linear_1_764" x1="119.23" y1="77.1011" x2="119.23" y2="93.3806" gradientUnits="userSpaceOnUse">
<stop stop-color="#FEB200" stop-opacity="0"/>
<stop offset="1" stop-color="#FF7D01"/>
</linearGradient>
</defs>
</svg>
