<svg width="44" height="44" viewBox="0 0 44 44" fill="none" xmlns="http://www.w3.org/2000/svg">
<path d="M6.83333 15.5V32.8333M16.5833 15.5V32.8333M27.4167 15.5V32.8333M37.1667 15.5V32.8333M2.5 36.3L2.5 38.0333C2.5 39.2468 2.5 39.8535 2.73615 40.317C2.94388 40.7247 3.27534 41.0561 3.68302 41.2638C4.1465 41.5 4.75322 41.5 5.96667 41.5H38.0333C39.2468 41.5 39.8535 41.5 40.317 41.2639C40.7247 41.0561 41.0561 40.7247 41.2638 40.317C41.5 39.8535 41.5 39.2468 41.5 38.0333V36.3C41.5 35.0866 41.5 34.4798 41.2638 34.0164C41.0561 33.6087 40.7247 33.2772 40.317 33.0695C39.8535 32.8333 39.2468 32.8333 38.0333 32.8333H5.96667C4.75322 32.8333 4.1465 32.8333 3.68302 33.0695C3.27534 33.2772 2.94388 33.6087 2.73615 34.0164C2.5 34.4798 2.5 35.0866 2.5 36.3ZM21.248 2.66712L5.21464 6.23008C4.24601 6.44533 3.76169 6.55296 3.40017 6.81341C3.0813 7.04314 2.83091 7.35527 2.67582 7.71639C2.5 8.1258 2.5 8.62193 2.5 9.6142L2.5 12.0333C2.5 13.2468 2.5 13.8535 2.73615 14.317C2.94388 14.7247 3.27534 15.0561 3.68302 15.2638C4.1465 15.5 4.75322 15.5 5.96667 15.5H38.0333C39.2468 15.5 39.8535 15.5 40.317 15.2638C40.7247 15.0561 41.0561 14.7247 41.2638 14.317C41.5 13.8535 41.5 13.2468 41.5 12.0333V9.6142C41.5 8.62194 41.5 8.12581 41.3242 7.7164C41.1691 7.35528 40.9187 7.04314 40.5998 6.81341C40.2383 6.55296 39.754 6.44533 38.7854 6.23008L22.752 2.66712C22.4714 2.60475 22.3311 2.57357 22.1893 2.56114C22.0633 2.55009 21.9367 2.55009 21.8107 2.56114C21.6689 2.57357 21.5286 2.60475 21.248 2.66712Z" stroke="#333333" stroke-width="4.33333" stroke-linecap="round" stroke-linejoin="round"/>
</svg>
