<svg width="214" height="131" viewBox="0 0 214 131" fill="none" xmlns="http://www.w3.org/2000/svg">
<path fill-rule="evenodd" clip-rule="evenodd" d="M103.02 98.3941C101.994 90.899 102.994 83.4931 103.673 78.9773L104.148 79.0486C103.469 83.561 102.479 90.9077 103.495 98.3291C104.51 105.748 107.524 113.211 114.828 118.001C122.219 122.849 125.784 126.284 127.499 128.705C128.359 129.918 128.757 130.881 128.938 131.642C129.092 132.294 129.084 132.792 129.079 133.14C129.078 133.198 129.077 133.252 129.077 133.302H128.598C128.598 133.246 128.599 133.189 128.6 133.128C128.605 132.782 128.611 132.342 128.471 131.753C128.307 131.061 127.938 130.154 127.108 128.982C125.444 126.633 121.938 123.237 114.565 118.402C107.104 113.509 104.046 105.892 103.02 98.3941Z" fill="black"/>
<path d="M112.875 61.0592C110.379 60.3905 99.5793 58.7939 94.4913 58.0792L91.951 67.56L103.501 71.0871C103.142 72.8647 102.153 77.4284 101.072 81.4628C99.7211 86.5057 100.542 86.7257 102.841 87.3416C105.139 87.9576 105.682 86.5895 105.952 85.5809L107.79 78.7225C109.574 72.0658 114.117 73.4994 115.522 68.2547C116.387 65.0272 115.994 61.8951 112.875 61.0592Z" fill="url(#paint0_linear_1_864)"/>
<path d="M89.3007 54.7417C89.2071 54.6067 89.0126 54.6044 88.9238 54.7426C88.4658 55.4553 87.2542 57.5488 86.3224 61.0263C85.3906 64.5039 85.3931 66.9227 85.4334 67.7689C85.4412 67.933 85.6109 68.0282 85.7594 67.9581L88.8012 66.5223C88.9238 66.4645 89.0651 66.4612 89.1902 66.5133L91.9276 67.6538L94.4903 58.0894L91.5495 57.7084C91.4151 57.691 91.2943 57.6175 91.2171 57.5061L89.3007 54.7417Z" fill="#C4C4C4"/>
<path d="M89.3007 54.7417C89.2071 54.6067 89.0126 54.6044 88.9238 54.7426C88.4658 55.4553 87.2542 57.5488 86.3224 61.0263C85.3906 64.5039 85.3931 66.9227 85.4334 67.7689C85.4412 67.933 85.6109 68.0282 85.7594 67.9581L88.8012 66.5223C88.9238 66.4645 89.0651 66.4612 89.1902 66.5133L91.9276 67.6538L94.4903 58.0894L91.5495 57.7084C91.4151 57.691 91.2943 57.6175 91.2171 57.5061L89.3007 54.7417Z" fill="url(#paint1_linear_1_864)"/>
<path d="M81.8596 100.707C81.8596 100.442 81.645 100.227 81.3802 100.227H72.7516C72.4868 100.227 72.2722 100.442 72.2722 100.707V132.824C72.2722 133.089 72.4868 133.304 72.7516 133.304H81.3802C81.645 133.304 81.8596 133.089 81.8596 132.824V100.707Z" fill="#FFD7BA"/>
<path d="M36.3192 100.707C36.3192 100.442 36.1046 100.227 35.8398 100.227H27.2112C26.9464 100.227 26.7318 100.442 26.7318 100.707V132.824C26.7318 133.089 26.9464 133.304 27.2112 133.304H35.8398C36.1046 133.304 36.3192 133.089 36.3192 132.824V100.707Z" fill="#FFD7BA"/>
<path d="M66.2801 57.9154C66.2801 57.9154 70.5983 67.9787 68.7948 72.2375C68.6673 72.5386 68.3222 72.6624 67.9967 72.631C67.0904 72.5436 65.3474 72.7267 65.0808 75.3483C65.0406 75.7434 65.3682 76.0679 65.7653 76.0679H70.2817C70.5002 76.0679 70.704 75.9711 70.8257 75.7896C71.6169 74.6091 74.506 69.6017 74.506 59.4231" fill="url(#paint2_linear_1_864)"/>
<path d="M75.5408 73.9073C75.5408 92.6245 73.4066 97.1897 71.5868 97.1897H31.2862C28.0377 97.1897 26.1381 87.8808 32.3507 81.6681C38.5634 75.4555 45.5815 73.9073 45.5815 64.9292C45.5815 55.9511 49.3817 47.7338 50.2959 47.7338C51.21 47.7338 53.084 50.0163 54.2499 51.3859C54.8582 51.0815 56.8048 50.4729 59.7247 50.4729C63.3746 50.4729 65.1995 51.8424 65.8078 51.8424C66.4161 51.8424 68.5886 47.7338 69.4577 47.7338C70.3267 47.7338 75.5408 55.1902 75.5408 73.9073Z" fill="url(#paint3_linear_1_864)"/>
<path d="M50.4453 62.0746C50.5109 64.0259 52.1459 65.5545 54.0971 65.4889C56.0483 65.4233 57.5769 63.7883 57.5114 61.8371C57.4458 59.8859 55.8108 58.3573 53.8596 58.4229C51.9083 58.4885 50.3797 60.1234 50.4453 62.0746Z" fill="white"/>
<path d="M62.4645 62.0746C62.5301 64.0259 64.165 65.5545 66.1163 65.4889C68.0675 65.4233 69.5961 63.7883 69.5305 61.8371C69.4649 59.8859 67.83 58.3573 65.8787 58.4229C63.9275 58.4885 62.3989 60.1234 62.4645 62.0746Z" fill="white"/>
<path d="M51.3821 62.5159C51.4348 64.0848 52.7494 65.3139 54.3182 65.2611C55.8871 65.2084 57.1161 63.8938 57.0634 62.3249C57.0107 60.7561 55.6961 59.527 54.1272 59.5798C52.5584 59.6325 51.3293 60.9471 51.3821 62.5159Z" fill="white"/>
<path d="M51.3821 62.5159C51.4348 64.0848 52.7494 65.3139 54.3182 65.2611C55.8871 65.2084 57.1161 63.8938 57.0634 62.3249C57.0107 60.7561 55.6961 59.527 54.1272 59.5798C52.5584 59.6325 51.3293 60.9471 51.3821 62.5159Z" fill="url(#paint4_linear_1_864)"/>
<path d="M63.4007 62.5159C63.4535 64.0848 64.768 65.3139 66.3369 65.2611C67.9058 65.2084 69.1348 63.8938 69.0821 62.3249C69.0293 60.7561 67.7148 59.527 66.1459 59.5798C64.577 59.6325 63.348 60.9471 63.4007 62.5159Z" fill="white"/>
<path d="M63.4007 62.5159C63.4535 64.0848 64.768 65.3139 66.3369 65.2611C67.9058 65.2084 69.1348 63.8938 69.0821 62.3249C69.0293 60.7561 67.7148 59.527 66.1459 59.5798C64.577 59.6325 63.348 60.9471 63.4007 62.5159Z" fill="url(#paint5_linear_1_864)"/>
<path d="M51.5028 61.0159C51.5028 61.3413 51.7666 61.6051 52.092 61.6051C52.4174 61.6051 52.6812 61.3413 52.6812 61.0159C52.6812 60.6906 52.4174 60.4268 52.092 60.4268C51.7666 60.4268 51.5028 60.6906 51.5028 61.0159Z" fill="white"/>
<path d="M63.5219 61.0159C63.5219 61.3413 63.7856 61.6051 64.111 61.6051C64.4364 61.6051 64.7002 61.3413 64.7002 61.0159C64.7002 60.6906 64.4364 60.4268 64.111 60.4268C63.7856 60.4268 63.5219 60.6906 63.5219 61.0159Z" fill="white"/>
<path d="M60.5963 66.3661C60.4002 66.5795 60.2125 66.7831 60.0974 66.9065C60.0268 66.9822 59.9289 67.0232 59.8253 67.0232C59.682 67.0232 59.5496 66.9469 59.4776 66.823L59.1752 66.3023C59.0019 66.0039 59.1919 65.631 59.5366 65.6172C59.6579 65.6123 59.7879 65.6092 59.9212 65.6092C60.0577 65.6092 60.1977 65.6165 60.3323 65.6278C60.7025 65.6588 60.8477 66.0925 60.5963 66.3661Z" fill="#FF5E88"/>
<path opacity="0.2" d="M67.0247 52.8598L70.8444 52.9699C71.3923 52.9857 71.779 52.497 71.5789 52.0437C71.3176 51.4515 71.001 50.725 70.8275 50.2932C70.6637 49.8855 70.3127 49.3019 70.0008 48.8175C69.7294 48.3961 69.0631 48.3828 68.754 48.7832L66.4223 51.8029C66.0826 52.2429 66.4244 52.8425 67.0247 52.8598Z" fill="url(#paint6_linear_1_864)"/>
<path opacity="0.2" d="M52.3703 52.0531L49.0541 52.4421C48.701 52.4835 48.4152 52.1981 48.5136 51.8941C48.6748 51.3956 48.9319 50.6657 49.2637 49.9357C49.5161 49.3804 49.7358 48.9764 49.9045 48.6961C50.0664 48.4269 50.4624 48.4258 50.6568 48.6776L52.722 51.3521C52.9359 51.6292 52.7453 52.0091 52.3703 52.0531Z" fill="url(#paint7_linear_1_864)"/>
<path fill-rule="evenodd" clip-rule="evenodd" d="M63.0218 68.1936C62.9285 68.1953 62.859 68.1965 62.8151 68.1965C62.7489 68.1965 62.6952 68.2501 62.6952 68.3163C62.6952 68.3825 62.7489 68.4362 62.8151 68.4362C62.8598 68.4362 62.9299 68.4349 63.0239 68.4333C64.6772 68.4049 73.7061 68.2498 81.2584 72.2943C81.3167 72.3255 81.3893 72.3036 81.4206 72.2452C81.4518 72.1869 81.4299 72.1142 81.3715 72.083C73.7593 68.0064 64.6692 68.1649 63.0218 68.1936Z" fill="black"/>
<path fill-rule="evenodd" clip-rule="evenodd" d="M56.5987 68.1936C56.692 68.1953 56.7615 68.1965 56.8054 68.1965C56.8716 68.1965 56.9253 68.2501 56.9253 68.3163C56.9253 68.3825 56.8716 68.4362 56.8054 68.4362C56.7607 68.4362 56.6906 68.4349 56.5966 68.4333C54.9433 68.4049 45.9144 68.2498 38.3621 72.2943C38.3038 72.3255 38.2311 72.3036 38.1999 72.2452C38.1686 72.1869 38.1906 72.1142 38.249 72.083C45.8612 68.0064 54.9513 68.1649 56.5987 68.1936Z" fill="black"/>
<path fill-rule="evenodd" clip-rule="evenodd" d="M62.3483 69.1141C62.3259 69.1764 62.3582 69.2451 62.4204 69.2675C63.8633 69.787 66.1022 70.8801 68.1195 72.4672C70.1384 74.0554 71.9209 76.127 72.4778 78.6003C72.4924 78.6649 72.5565 78.7054 72.6211 78.6909C72.6856 78.6763 72.7262 78.6122 72.7116 78.5476C72.1374 75.9973 70.3063 73.8826 68.2677 72.2788C66.2277 70.6738 63.9654 69.569 62.5016 69.042C62.4394 69.0195 62.3707 69.0519 62.3483 69.1141Z" fill="black"/>
<path fill-rule="evenodd" clip-rule="evenodd" d="M57.2713 69.1141C57.2938 69.1764 57.2615 69.2451 57.1992 69.2675C55.7564 69.787 53.5174 70.8801 51.5001 72.4672C49.4812 74.0554 47.6987 76.127 47.1418 78.6003C47.1273 78.6649 47.0631 78.7054 46.9986 78.6909C46.934 78.6763 46.8934 78.6122 46.908 78.5476C47.4823 75.9973 49.3133 73.8826 51.3519 72.2788C53.392 70.6738 55.6542 69.569 57.118 69.042C57.1803 69.0195 57.2489 69.0519 57.2713 69.1141Z" fill="black"/>
<path fill-rule="evenodd" clip-rule="evenodd" d="M62.7861 67.2559C62.786 67.2559 62.7859 67.2559 62.8142 67.3704L62.7861 67.2559C62.7218 67.2718 62.6825 67.3369 62.6984 67.4011C62.7143 67.4653 62.7793 67.5045 62.8435 67.4886L62.8147 67.3723C62.8435 67.4886 62.8435 67.4886 62.8435 67.4886L62.8439 67.4885L62.8451 67.4882L62.8504 67.4869L62.8718 67.4818C62.891 67.4772 62.9197 67.4705 62.9578 67.4619C63.0341 67.4446 63.1478 67.4196 63.2967 67.3891C63.5947 67.3281 64.0338 67.2451 64.597 67.1571C65.7236 66.9811 67.3465 66.7854 69.3297 66.7071C73.2966 66.5505 78.7021 66.8638 84.4589 68.7421C84.5218 68.7626 84.5895 68.7283 84.61 68.6653C84.6306 68.6024 84.5962 68.5348 84.5333 68.5142C78.7424 66.6249 73.3072 66.3102 69.3203 66.4676C67.3266 66.5463 65.6944 66.743 64.56 66.9203C63.9928 67.0089 63.55 67.0926 63.2487 67.1543C63.098 67.1851 62.9827 67.2105 62.9048 67.2281C62.8659 67.2369 62.8364 67.2439 62.8164 67.2486L62.7938 67.254L62.788 67.2554L62.7861 67.2559Z" fill="black"/>
<path fill-rule="evenodd" clip-rule="evenodd" d="M56.8337 67.2559C56.8338 67.2559 56.8339 67.2559 56.8055 67.3704L56.8337 67.2559C56.8979 67.2718 56.9373 67.3369 56.9214 67.4011C56.9054 67.4653 56.8405 67.5045 56.7762 67.4886L56.805 67.3723C56.7762 67.4886 56.7762 67.4886 56.7762 67.4886L56.7759 67.4885L56.7746 67.4882L56.7694 67.4869L56.7479 67.4818C56.7288 67.4772 56.7 67.4705 56.6619 67.4619C56.5857 67.4446 56.472 67.4196 56.323 67.3891C56.0251 67.3281 55.586 67.2451 55.0227 67.1571C53.8962 66.9811 52.2732 66.7854 50.29 66.7071C46.3232 66.5505 40.9177 66.8638 35.1608 68.7421C35.0979 68.7626 35.0303 68.7283 35.0097 68.6653C34.9892 68.6024 35.0236 68.5348 35.0865 68.5142C40.8773 66.6249 46.3125 66.3102 50.2995 66.4676C52.2931 66.5463 53.9254 66.743 55.0597 66.9203C55.6269 67.0089 56.0697 67.0926 56.3711 67.1543C56.5218 67.1851 56.6371 67.2105 56.7149 67.2281C56.7538 67.2369 56.7834 67.2439 56.8033 67.2486L56.8259 67.254L56.8317 67.2554L56.8337 67.2559Z" fill="black"/>
<path opacity="0.6" d="M58.9271 71.7712C59.3821 72.0339 60.1203 71.6073 60.5758 70.8182C61.0314 70.0292 61.0318 69.1766 60.5767 68.9139C60.1217 68.6512 59.3835 69.0778 58.928 69.8668C58.4724 70.6559 58.472 71.5085 58.9271 71.7712Z" fill="url(#paint8_linear_1_864)"/>
<mask id="mask0_1_864" style="mask-type:alpha" maskUnits="userSpaceOnUse" x="28" y="47" width="48" height="51">
<path d="M75.541 73.9073C75.541 92.6245 73.4068 97.1897 71.587 97.1897H31.2864C28.0379 97.1897 26.1383 87.8808 32.351 81.6681C38.5636 75.4555 45.5817 73.9073 45.5817 64.9292C45.5817 55.9511 49.382 47.7338 50.2961 47.7338C51.2103 47.7338 53.0842 50.0163 54.2501 51.3859C54.8585 51.0815 56.805 50.4729 59.7249 50.4729C63.3748 50.4729 65.1997 51.8424 65.808 51.8424C66.4164 51.8424 68.5888 47.7338 69.4579 47.7338C70.327 47.7338 75.541 55.1902 75.541 73.9073Z" fill="url(#paint9_linear_1_864)"/>
</mask>
<g mask="url(#mask0_1_864)">
<path d="M53.2197 97.1899H48.7561C45.7649 97.1899 42.7831 97.8798 39.9284 98.7733C37.811 99.4361 35.5226 100.066 34.2995 100.371C31.4715 101.078 26.9938 96.6007 26.7581 96.365C26.5225 96.1294 37.1275 83.7569 33.946 88.588C30.7645 93.4192 41.3695 94.244 44.1975 94.244H53.2548C53.6433 94.244 54.0142 94.3984 54.2889 94.6731C54.9664 95.3506 54.8217 96.4855 53.9958 96.9713L53.9728 96.9848C53.7446 97.1191 53.4845 97.1899 53.2197 97.1899Z" fill="url(#paint10_linear_1_864)"/>
</g>
<path d="M64.515 96.1614C64.0171 92.6212 63.2734 87.2976 62.9611 84.9432C62.874 84.2871 63.3512 83.7572 64.013 83.7572H68.2537C68.9877 83.7572 69.5492 84.4109 69.4384 85.1365L67.754 96.1726C67.6646 96.7579 67.1613 97.1902 66.5693 97.1902H65.7012C65.104 97.1902 64.5982 96.7528 64.515 96.1614Z" fill="url(#paint11_linear_1_864)"/>
<path d="M58.327 95.7285C57.9057 92.7307 57.3388 88.6725 56.994 86.1337C56.8158 84.822 57.7605 83.7572 59.0843 83.7572H60.7313C62.1992 83.7572 63.3222 85.0647 63.1007 86.5157L61.6919 95.7461C61.5651 96.5767 60.8508 97.1902 60.0106 97.1902C59.163 97.1902 58.4449 96.5679 58.327 95.7285Z" fill="url(#paint12_linear_1_864)"/>
<path d="M90.2483 98.7864C90.2483 97.8598 89.4971 97.1086 88.5705 97.1086H54.2955H20.0205C19.0939 97.1086 18.3427 97.8598 18.3427 98.7864C18.3427 99.7131 19.0939 100.464 20.0205 100.464H88.5705C89.4971 100.464 90.2483 99.7131 90.2483 98.7864Z" fill="#C4C4C4"/>
<path d="M90.2483 98.7864C90.2483 97.8598 89.4971 97.1086 88.5705 97.1086H54.2955H20.0205C19.0939 97.1086 18.3427 97.8598 18.3427 98.7864C18.3427 99.7131 19.0939 100.464 20.0205 100.464H88.5705C89.4971 100.464 90.2483 99.7131 90.2483 98.7864Z" fill="url(#paint13_linear_1_864)"/>
<path d="M59.9535 73.7477C58.783 74.2284 58.5992 75.7592 59.6227 76.5033L61.9255 78.1774C62.949 78.9214 64.4122 78.3206 64.5592 77.0959L64.89 74.3404C65.037 73.1157 63.7577 72.1857 62.5872 72.6663L59.9535 73.7477Z" fill="#C4C4C4"/>
<path d="M59.9535 73.7477C58.783 74.2284 58.5992 75.7592 59.6227 76.5033L61.9255 78.1774C62.949 78.9214 64.4122 78.3206 64.5592 77.0959L64.89 74.3404C65.037 73.1157 63.7577 72.1857 62.5872 72.6663L59.9535 73.7477Z" fill="url(#paint14_linear_1_864)"/>
<path d="M59.1308 73.649C60.1542 74.393 59.9705 75.9239 58.8 76.4045L56.1663 77.4859C54.9958 77.9666 53.7164 77.0365 53.8634 75.8118L54.1943 73.0563C54.3413 71.8316 55.8044 71.2308 56.8279 71.9749L59.1308 73.649Z" fill="#C4C4C4"/>
<path d="M59.1308 73.649C60.1542 74.393 59.9705 75.9239 58.8 76.4045L56.1663 77.4859C54.9958 77.9666 53.7164 77.0365 53.8634 75.8118L54.1943 73.0563C54.3413 71.8316 55.8044 71.2308 56.8279 71.9749L59.1308 73.649Z" fill="url(#paint15_linear_1_864)"/>
<path d="M60.2608 74.1192C60.2789 73.855 60.0795 73.6262 59.8153 73.6081L59.5777 73.5918C59.3136 73.5737 59.0847 73.7731 59.0666 74.0373L58.9274 76.0661C58.9093 76.3303 59.1088 76.5591 59.3729 76.5772L59.6105 76.5935C59.8747 76.6116 60.1035 76.4122 60.1216 76.148L60.2608 74.1192Z" fill="#C4C4C4"/>
<path d="M60.2608 74.1192C60.2789 73.855 60.0795 73.6262 59.8153 73.6081L59.5777 73.5918C59.3136 73.5737 59.0847 73.7731 59.0666 74.0373L58.9274 76.0661C58.9093 76.3303 59.1088 76.5591 59.3729 76.5772L59.6105 76.5935C59.8747 76.6116 60.1035 76.4122 60.1216 76.148L60.2608 74.1192Z" fill="url(#paint16_linear_1_864)"/>
<path d="M60.2608 74.1192C60.2789 73.855 60.0795 73.6262 59.8153 73.6081L59.5777 73.5918C59.3136 73.5737 59.0847 73.7731 59.0666 74.0373L58.9274 76.0661C58.9093 76.3303 59.1088 76.5591 59.3729 76.5772L59.6105 76.5935C59.8747 76.6116 60.1035 76.4122 60.1216 76.148L60.2608 74.1192Z" fill="url(#paint17_linear_1_864)"/>
<path d="M180.041 61.5922C181.12 63.1038 182.011 64.0378 182.382 64.0638C182.382 64.0638 181.883 62.453 180.041 61.5922C177.268 57.7081 173.257 50.0107 173.671 44.1074C169.204 44.6618 160.001 45.8385 158.92 46.1097C157.568 46.4486 158.452 51.8616 163.968 55.2844C169.483 58.7072 157.173 71.0336 168.724 64.1466C174.655 60.6104 178.096 60.6837 180.041 61.5922Z" fill="#FFCEC9"/>
<path d="M149.006 29.4198C149.006 29.4198 153.2 37.9835 149.333 42.3562C147.219 46.6122 152.214 43.2985 153.052 47.6098C153.889 51.9211 154.731 58.8945 164.89 54.8869C179.348 48.0312 174.42 32.158 172.794 29.0651C171.168 25.9722 162.224 20.0398 149.859 26.0627C147.606 27.1416 149.006 29.4198 149.006 29.4198Z" fill="#FFCEC9"/>
<path d="M176.732 55.9558C177.083 56.1534 177.549 55.8456 177.6 55.4458C178.178 50.8877 187.497 44.7122 184.794 30.7907C181.888 15.8281 168.758 11.7791 163.368 12.8258C153.651 14.713 150.924 20.2533 147.433 17.6674C145.621 16.3259 147.339 14.8835 148.588 14.1139C148.954 13.8883 148.899 13.3684 148.47 13.3373C147.053 13.2347 144.629 13.6067 142.924 16.7963C140.378 21.5607 143.426 29.3143 148.63 28.3037C153.834 27.293 168.335 23.5064 170.115 32.671C171.859 41.6508 162.739 48.082 176.732 55.9558Z" fill="#0B8B00"/>
<path d="M176.732 55.9558C177.083 56.1534 177.549 55.8456 177.6 55.4458C178.178 50.8877 187.497 44.7122 184.794 30.7907C181.888 15.8281 168.758 11.7791 163.368 12.8258C153.651 14.713 150.924 20.2533 147.433 17.6674C145.621 16.3259 147.339 14.8835 148.588 14.1139C148.954 13.8883 148.899 13.3684 148.47 13.3373C147.053 13.2347 144.629 13.6067 142.924 16.7963C140.378 21.5607 143.426 29.3143 148.63 28.3037C153.834 27.293 168.335 23.5064 170.115 32.671C171.859 41.6508 162.739 48.082 176.732 55.9558Z" fill="url(#paint18_linear_1_864)"/>
<path d="M176.732 55.9558C177.083 56.1534 177.549 55.8456 177.6 55.4458C178.178 50.8877 187.497 44.7122 184.794 30.7907C181.888 15.8281 168.758 11.7791 163.368 12.8258C153.651 14.713 150.924 20.2533 147.433 17.6674C145.621 16.3259 147.339 14.8835 148.588 14.1139C148.954 13.8883 148.899 13.3684 148.47 13.3373C147.053 13.2347 144.629 13.6067 142.924 16.7963C140.378 21.5607 143.426 29.3143 148.63 28.3037C153.834 27.293 168.335 23.5064 170.115 32.671C171.859 41.6508 162.739 48.082 176.732 55.9558Z" fill="#0B8B00"/>
<path d="M176.732 55.9558C177.083 56.1534 177.549 55.8456 177.6 55.4458C178.178 50.8877 187.497 44.7122 184.794 30.7907C181.888 15.8281 168.758 11.7791 163.368 12.8258C153.651 14.713 150.924 20.2533 147.433 17.6674C145.621 16.3259 147.339 14.8835 148.588 14.1139C148.954 13.8883 148.899 13.3684 148.47 13.3373C147.053 13.2347 144.629 13.6067 142.924 16.7963C140.378 21.5607 143.426 29.3143 148.63 28.3037C153.834 27.293 168.335 23.5064 170.115 32.671C171.859 41.6508 162.739 48.082 176.732 55.9558Z" fill="url(#paint19_linear_1_864)"/>
<mask id="mask1_1_864" style="mask-type:alpha" maskUnits="userSpaceOnUse" x="148" y="22" width="29" height="34">
<path d="M149.062 28.8291C149.062 28.8291 153.374 37.4414 149.316 41.8787C147.086 46.1867 152.312 42.8104 153.155 47.1546C153.999 51.4988 154.83 58.5288 165.44 54.4182C180.547 47.4056 175.518 31.4235 173.844 28.3137C172.171 25.204 162.893 19.2779 149.973 25.4364C147.618 26.5398 149.062 28.8291 149.062 28.8291Z" fill="#FFCEC9"/>
</mask>
<g mask="url(#mask1_1_864)">
<path d="M147.988 39.0006C147.649 38.42 147.611 37.708 147.9 37.0962C148.758 35.2879 151.289 31.8152 157.527 33.9253C165.483 36.6153 152.784 47.2157 147.988 39.0006Z" fill="url(#paint20_linear_1_864)" style="mix-blend-mode:multiply"/>
</g>
<path d="M153.806 21.5558C153.355 21.0211 153.373 20.3247 153.878 19.6913C155.379 17.8191 159.6 14.1282 168.853 15.5301C180.653 17.3168 160.207 29.121 153.806 21.5558Z" fill="url(#paint21_linear_1_864)" style="mix-blend-mode:multiply"/>
<path d="M154.09 24.5689C154.467 23.1395 155.515 21.972 156.916 21.4694C161.065 19.9924 170.403 18.5264 176.825 31.5135C185.016 48.0741 148.771 44.8093 154.09 24.5689Z" fill="url(#paint22_linear_1_864)" style="mix-blend-mode:multiply"/>
<path d="M113.977 86.4121C113.977 86.4121 111.49 84.8926 110.424 82.2334C109.713 79.5742 107.937 72.7364 104.739 71.9766C101.185 71.2169 100.83 78.0547 100.119 79.5742C99.4087 81.0938 99.764 85.2724 104.383 87.5517C108.647 89.4511 112.201 93.2499 112.556 93.2499C113.267 93.2499 113.977 86.4121 113.977 86.4121Z" fill="#FFCEC9"/>
<path opacity="0.22" d="M113.883 64.7694C114.294 66.3037 113.383 67.8809 111.849 68.292C110.314 68.7031 108.737 67.7926 108.326 66.2582C107.915 64.7238 108.826 63.1467 110.36 62.7356C111.894 62.3244 113.472 63.235 113.883 64.7694Z" fill="black"/>
<path fill-rule="evenodd" clip-rule="evenodd" d="M188.666 133.299H155.869C156.706 126.512 155.274 117.905 154.055 110.574C153.207 105.474 152.462 100.993 152.654 98.1712C149.388 103.396 140.873 112.497 128.768 106.555C116.192 100.358 103.232 91.3063 110.022 86.7999C114.658 83.6849 117.863 84.8784 124.671 87.4138C127.096 88.3171 129.979 89.3907 133.546 90.5005C138.584 92.049 144.557 85.2126 151.201 77.6082C161.476 65.8484 173.356 52.252 185.86 64.9885C190.972 70.195 194.751 75.0553 189.958 92.5523C187.686 100.842 188.077 113.252 188.44 124.774C188.532 127.7 188.622 130.569 188.666 133.299Z" fill="#30686E"/>
<path fill-rule="evenodd" clip-rule="evenodd" d="M188.666 133.299H155.869C156.706 126.512 155.274 117.905 154.055 110.574C153.207 105.474 152.462 100.993 152.654 98.1712C149.388 103.396 140.873 112.497 128.768 106.555C116.192 100.358 103.232 91.3063 110.022 86.7999C114.658 83.6849 117.863 84.8784 124.671 87.4138C127.096 88.3171 129.979 89.3907 133.546 90.5005C138.584 92.049 144.557 85.2126 151.201 77.6082C161.476 65.8484 173.356 52.252 185.86 64.9885C190.972 70.195 194.751 75.0553 189.958 92.5523C187.686 100.842 188.077 113.252 188.44 124.774C188.532 127.7 188.622 130.569 188.666 133.299Z" fill="url(#paint23_linear_1_864)"/>
<path fill-rule="evenodd" clip-rule="evenodd" d="M188.666 133.299H155.869C156.706 126.512 155.274 117.905 154.055 110.574C153.207 105.474 152.462 100.993 152.654 98.1712C149.388 103.396 140.873 112.497 128.768 106.555C116.192 100.358 103.232 91.3063 110.022 86.7999C114.658 83.6849 117.863 84.8784 124.671 87.4138C127.096 88.3171 129.979 89.3907 133.546 90.5005C138.584 92.049 144.557 85.2126 151.201 77.6082C161.476 65.8484 173.356 52.252 185.86 64.9885C190.972 70.195 194.751 75.0553 189.958 92.5523C187.686 100.842 188.077 113.252 188.44 124.774C188.532 127.7 188.622 130.569 188.666 133.299Z" fill="url(#paint24_linear_1_864)"/>
<defs>
<linearGradient id="paint0_linear_1_864" x1="106.993" y1="60.1319" x2="99.9127" y2="86.5571" gradientUnits="userSpaceOnUse">
<stop stop-color="#FF1C66"/>
<stop offset="1" stop-color="#FE5F3C"/>
</linearGradient>
<linearGradient id="paint1_linear_1_864" x1="87.8982" y1="57.3722" x2="88.6849" y2="54.4363" gradientUnits="userSpaceOnUse">
<stop/>
<stop offset="1"/>
</linearGradient>
<linearGradient id="paint2_linear_1_864" x1="69.7761" y1="56.0376" x2="69.7761" y2="76.0679" gradientUnits="userSpaceOnUse">
<stop stop-color="#FEB200" stop-opacity="0"/>
<stop offset="0.692708" stop-color="#FF7D01"/>
</linearGradient>
<linearGradient id="paint3_linear_1_864" x1="65.8078" y1="97.3076" x2="65.8078" y2="47.6995" gradientUnits="userSpaceOnUse">
<stop offset="0.5625" stop-color="#FF7D01"/>
<stop offset="1" stop-color="#FEB200"/>
</linearGradient>
<linearGradient id="paint4_linear_1_864" x1="56.5508" y1="60.7557" x2="56.5096" y2="59.5324" gradientUnits="userSpaceOnUse">
<stop/>
<stop offset="1"/>
</linearGradient>
<linearGradient id="paint5_linear_1_864" x1="68.5694" y1="60.7557" x2="68.5283" y2="59.5324" gradientUnits="userSpaceOnUse">
<stop/>
<stop offset="1"/>
</linearGradient>
<linearGradient id="paint6_linear_1_864" x1="68.9121" y1="48.904" x2="68.2819" y2="52.5052" gradientUnits="userSpaceOnUse">
<stop/>
<stop offset="1" stop-opacity="0"/>
</linearGradient>
<linearGradient id="paint7_linear_1_864" x1="50.6481" y1="48.9195" x2="51.1371" y2="51.7136" gradientUnits="userSpaceOnUse">
<stop/>
<stop offset="1" stop-opacity="0"/>
</linearGradient>
<linearGradient id="paint8_linear_1_864" x1="58.928" y1="69.8668" x2="60.5758" y2="70.8182" gradientUnits="userSpaceOnUse">
<stop/>
<stop offset="1" stop-opacity="0"/>
</linearGradient>
<linearGradient id="paint9_linear_1_864" x1="65.808" y1="97.3076" x2="65.808" y2="47.6995" gradientUnits="userSpaceOnUse">
<stop offset="0.5625" stop-color="#FF7D01"/>
<stop offset="1" stop-color="#FEB200"/>
</linearGradient>
<linearGradient id="paint10_linear_1_864" x1="34.1817" y1="100.827" x2="62.3439" y2="100.827" gradientUnits="userSpaceOnUse">
<stop stop-color="#FF7D01"/>
<stop offset="0.717724" stop-color="#FEB200"/>
</linearGradient>
<linearGradient id="paint11_linear_1_864" x1="66.2318" y1="83.7572" x2="66.2318" y2="97.1902" gradientUnits="userSpaceOnUse">
<stop stop-color="#FF7D01" stop-opacity="0"/>
<stop offset="1" stop-color="#FEB200"/>
</linearGradient>
<linearGradient id="paint12_linear_1_864" x1="60.1046" y1="83.7572" x2="60.1046" y2="97.1902" gradientUnits="userSpaceOnUse">
<stop stop-color="#FF7D01" stop-opacity="0"/>
<stop offset="1" stop-color="#FEB200"/>
</linearGradient>
<linearGradient id="paint13_linear_1_864" x1="88.3308" y1="98.8221" x2="88.282" y2="93.7404" gradientUnits="userSpaceOnUse">
<stop stop-color="#6E14D2"/>
<stop offset="0.6015" stop-color="#9B82FF"/>
<stop offset="1" stop-color="#A18CFF"/>
</linearGradient>
<linearGradient id="paint14_linear_1_864" x1="58.5024" y1="75.5772" x2="60.0804" y2="72.2683" gradientUnits="userSpaceOnUse">
<stop stop-color="#FF1C66"/>
<stop offset="1" stop-color="#FF5E88"/>
</linearGradient>
<linearGradient id="paint15_linear_1_864" x1="58.5024" y1="75.5772" x2="60.0804" y2="72.2683" gradientUnits="userSpaceOnUse">
<stop stop-color="#FF1C66"/>
<stop offset="1" stop-color="#FF5E88"/>
</linearGradient>
<linearGradient id="paint16_linear_1_864" x1="59.4839" y1="75.3867" x2="60.4104" y2="74.8638" gradientUnits="userSpaceOnUse">
<stop stop-color="#FF1C66"/>
<stop offset="1" stop-color="#FF5E88"/>
</linearGradient>
<linearGradient id="paint17_linear_1_864" x1="59.8664" y1="75.3771" x2="58.5105" y2="74.6482" gradientUnits="userSpaceOnUse">
<stop stop-color="#6E14D2"/>
<stop offset="1" stop-color="#9B82FF"/>
</linearGradient>
<linearGradient id="paint18_linear_1_864" x1="160.596" y1="19.3045" x2="174.839" y2="92.642" gradientUnits="userSpaceOnUse">
<stop stop-color="#D17F6A"/>
<stop offset="1" stop-color="#964651"/>
</linearGradient>
<linearGradient id="paint19_linear_1_864" x1="160.596" y1="19.3045" x2="174.839" y2="92.642" gradientUnits="userSpaceOnUse">
<stop stop-color="#D17F6A"/>
<stop offset="1" stop-color="#964651"/>
</linearGradient>
<linearGradient id="paint20_linear_1_864" x1="152.357" y1="29.3844" x2="153.899" y2="37.3242" gradientUnits="userSpaceOnUse">
<stop offset="0.00774316" stop-color="#FFB4AB"/>
<stop offset="1" stop-color="#FFCEC9" stop-opacity="0"/>
</linearGradient>
<linearGradient id="paint21_linear_1_864" x1="161.487" y1="11.6208" x2="162.972" y2="19.267" gradientUnits="userSpaceOnUse">
<stop offset="0.00774316" stop-color="#FFB4AB"/>
<stop offset="1" stop-color="#FFCEC9" stop-opacity="0"/>
</linearGradient>
<linearGradient id="paint22_linear_1_864" x1="175.847" y1="16.4075" x2="165.894" y2="31.1576" gradientUnits="userSpaceOnUse">
<stop offset="0.00774316" stop-color="#FFB4AB"/>
<stop offset="1" stop-color="#FFCEC9" stop-opacity="0"/>
</linearGradient>
<linearGradient id="paint23_linear_1_864" x1="170.97" y1="137.413" x2="125.255" y2="83.0182" gradientUnits="userSpaceOnUse">
<stop stop-color="#FFAD72"/>
<stop offset="0.5" stop-color="#FFC388"/>
<stop offset="1" stop-color="#FFC98E"/>
</linearGradient>
<linearGradient id="paint24_linear_1_864" x1="146.836" y1="60.5478" x2="146.836" y2="150.95" gradientUnits="userSpaceOnUse">
<stop stop-color="#00D1FF"/>
<stop offset="1" stop-color="#83B4FF"/>
</linearGradient>
</defs>
</svg>
