<svg width="215" height="132" viewBox="0 0 215 132" fill="none" xmlns="http://www.w3.org/2000/svg">
<path d="M102.546 66.584C100.786 64.539 98.8444 54.1122 111.614 42.2854C124.383 30.4587 143.074 30.0286 143.074 44.4357C143.074 44.4357 141.035 60.447 129.191 67.113C117.347 73.779 109.445 74.6004 102.546 66.584Z" fill="#0B8B00"/>
<path d="M102.546 66.584C100.786 64.539 98.8444 54.1122 111.614 42.2854C124.383 30.4587 143.074 30.0286 143.074 44.4357C143.074 44.4357 141.035 60.447 129.191 67.113C117.347 73.779 109.445 74.6004 102.546 66.584Z" fill="url(#paint0_linear_1_668)"/>
<path d="M134.516 53.5925C133.615 43.6754 130.011 40.5901 128.885 40.5901C127.759 40.5901 125.957 44.9977 125.957 46.9811L134.516 53.5925Z" fill="#D17F6A"/>
<path d="M134.516 53.5925C133.615 43.6754 130.011 40.5901 128.885 40.5901C127.759 40.5901 125.957 44.9977 125.957 46.9811L134.516 53.5925Z" fill="url(#paint1_linear_1_668)"/>
<path d="M173.065 77.3364C170.137 79.9665 170.119 82.8255 170.618 84.7566C172.043 87.5402 173.635 90.6531 174.269 91.9204C175.528 94.4349 178.915 100.007 173.375 100.007H160.366C160.366 100.007 160.366 94.2237 168.591 94.2237C168.591 94.2237 169.736 91.669 162.434 91.669C150.85 91.669 155.131 77.8393 155.131 77.8393" fill="#146FF4"/>
<path d="M173.065 77.3364C170.137 79.9665 170.119 82.8255 170.618 84.7566C172.043 87.5402 173.635 90.6531 174.269 91.9204C175.528 94.4349 178.915 100.007 173.375 100.007H160.366C160.366 100.007 160.366 94.2237 168.591 94.2237C168.591 94.2237 169.736 91.669 162.434 91.669C150.85 91.669 155.131 77.8393 155.131 77.8393" fill="#0851C4"/>
<path d="M173.065 77.3364C170.137 79.9665 170.119 82.8255 170.618 84.7566C172.043 87.5402 173.635 90.6531 174.269 91.9204C175.528 94.4349 178.915 100.007 173.375 100.007H160.366C160.366 100.007 160.366 94.2237 168.591 94.2237C168.591 94.2237 169.736 91.669 162.434 91.669C150.85 91.669 155.131 77.8393 155.131 77.8393" fill="#D17F6A"/>
<path d="M173.065 77.3364C170.137 79.9665 170.119 82.8255 170.618 84.7566C172.043 87.5402 173.635 90.6531 174.269 91.9204C175.528 94.4349 178.915 100.007 173.375 100.007H160.366C160.366 100.007 160.366 94.2237 168.591 94.2237C168.591 94.2237 169.736 91.669 162.434 91.669C150.85 91.669 155.131 77.8393 155.131 77.8393" fill="url(#paint2_linear_1_668)"/>
<path d="M171.848 87.1399L162.309 88.5005C155.854 89.4211 149.277 88.9642 143.013 87.1599C138.734 85.9276 134.657 84.0829 130.908 81.6831L123.358 76.8502C123.358 71.9323 125.207 70.0881 116.323 70.0881C106.215 70.0881 105.908 66.0924 105.908 63.0187C105.908 62.0966 104.989 58.1009 113.26 58.1009C120.612 58.1009 116.926 53.7978 120.295 49.802C123.665 45.8063 130.71 47.0357 130.71 47.0357C130.71 44.2695 133.161 38.1222 134.692 38.1222C136.224 38.1222 141.125 42.4253 142.35 56.2567C143.576 70.0881 163.514 58.2607 173.935 68.7173C177.078 71.8708 178.496 73.5644 182.739 73.5644C187.634 73.5644 190.615 66.8977 191.16 63.6365C191.221 63.2769 191.745 63.3077 191.766 63.6703C191.926 66.5565 191.466 71.376 187.447 75.006C183.885 78.221 183.533 81.8461 184.139 84.2067" fill="#146FF4"/>
<path d="M171.848 87.1399L162.309 88.5005C155.854 89.4211 149.277 88.9642 143.013 87.1599C138.734 85.9276 134.657 84.0829 130.908 81.6831L123.358 76.8502C123.358 71.9323 125.207 70.0881 116.323 70.0881C106.215 70.0881 105.908 66.0924 105.908 63.0187C105.908 62.0966 104.989 58.1009 113.26 58.1009C120.612 58.1009 116.926 53.7978 120.295 49.802C123.665 45.8063 130.71 47.0357 130.71 47.0357C130.71 44.2695 133.161 38.1222 134.692 38.1222C136.224 38.1222 141.125 42.4253 142.35 56.2567C143.576 70.0881 163.514 58.2607 173.935 68.7173C177.078 71.8708 178.496 73.5644 182.739 73.5644C187.634 73.5644 190.615 66.8977 191.16 63.6365C191.221 63.2769 191.745 63.3077 191.766 63.6703C191.926 66.5565 191.466 71.376 187.447 75.006C183.885 78.221 183.533 81.8461 184.139 84.2067" fill="#0851C4"/>
<path d="M171.848 87.1399L162.309 88.5005C155.854 89.4211 149.277 88.9642 143.013 87.1599C138.734 85.9276 134.657 84.0829 130.908 81.6831L123.358 76.8502C123.358 71.9323 125.207 70.0881 116.323 70.0881C106.215 70.0881 105.908 66.0924 105.908 63.0187C105.908 62.0966 104.989 58.1009 113.26 58.1009C120.612 58.1009 116.926 53.7978 120.295 49.802C123.665 45.8063 130.71 47.0357 130.71 47.0357C130.71 44.2695 133.161 38.1222 134.692 38.1222C136.224 38.1222 141.125 42.4253 142.35 56.2567C143.576 70.0881 163.514 58.2607 173.935 68.7173C177.078 71.8708 178.496 73.5644 182.739 73.5644C187.634 73.5644 190.615 66.8977 191.16 63.6365C191.221 63.2769 191.745 63.3077 191.766 63.6703C191.926 66.5565 191.466 71.376 187.447 75.006C183.885 78.221 183.533 81.8461 184.139 84.2067" fill="#D17F6A"/>
<path d="M171.848 87.1399L162.309 88.5005C155.854 89.4211 149.277 88.9642 143.013 87.1599C138.734 85.9276 134.657 84.0829 130.908 81.6831L123.358 76.8502C123.358 71.9323 125.207 70.0881 116.323 70.0881C106.215 70.0881 105.908 66.0924 105.908 63.0187C105.908 62.0966 104.989 58.1009 113.26 58.1009C120.612 58.1009 116.926 53.7978 120.295 49.802C123.665 45.8063 130.71 47.0357 130.71 47.0357C130.71 44.2695 133.161 38.1222 134.692 38.1222C136.224 38.1222 141.125 42.4253 142.35 56.2567C143.576 70.0881 163.514 58.2607 173.935 68.7173C177.078 71.8708 178.496 73.5644 182.739 73.5644C187.634 73.5644 190.615 66.8977 191.16 63.6365C191.221 63.2769 191.745 63.3077 191.766 63.6703C191.926 66.5565 191.466 71.376 187.447 75.006C183.885 78.221 183.533 81.8461 184.139 84.2067" fill="url(#paint3_linear_1_668)"/>
<path d="M121.759 70.5964C121.759 70.5964 126.447 88.4373 120.804 94.1803C120.804 94.1803 115.083 93.5321 115.083 100.007H128.117C128.117 100.007 137.175 92.8838 137.175 75.5674" fill="#146FF4"/>
<path d="M121.759 70.5964C121.759 70.5964 126.447 88.4373 120.804 94.1803C120.804 94.1803 115.083 93.5321 115.083 100.007H128.117C128.117 100.007 137.175 92.8838 137.175 75.5674" fill="#0851C4"/>
<path d="M121.759 70.5964C121.759 70.5964 126.447 88.4373 120.804 94.1803C120.804 94.1803 115.083 93.5321 115.083 100.007H128.117C128.117 100.007 137.175 92.8838 137.175 75.5674" fill="#D17F6A"/>
<path d="M121.759 70.5964C121.759 70.5964 126.447 88.4373 120.804 94.1803C120.804 94.1803 115.083 93.5321 115.083 100.007H128.117C128.117 100.007 137.175 92.8838 137.175 75.5674" fill="url(#paint4_linear_1_668)"/>
<path d="M129.675 71.6952C129.675 71.6952 134.25 88.8678 128.743 94.3957C128.743 94.3957 123.159 93.7718 123.159 100.004H135.88C135.88 100.004 144.72 93.1478 144.72 76.48" fill="url(#paint5_linear_1_668)"/>
<path d="M186.515 75.6442C183.373 78.4702 183.354 81.5421 183.889 83.617C185.418 86.6079 187.125 89.9526 187.806 91.3143C189.157 94.0161 192.79 100.003 186.847 100.003H172.891C172.891 100.003 172.891 93.7891 181.714 93.7891C181.714 93.7891 182.944 91.0441 175.109 91.0441C162.683 91.0441 167.275 76.1845 167.275 76.1845" fill="url(#paint6_linear_1_668)"/>
<path d="M139.283 53.5923C139.653 53.8979 140.204 53.6035 140.152 53.1266C139.011 42.7209 135.379 39.4357 134.213 39.4357C133.043 39.4357 131.197 44.1581 131.067 46.5435C131.058 46.7047 131.132 46.857 131.256 46.9599L139.283 53.5923Z" fill="url(#paint7_linear_1_668)"/>
<path d="M108.407 61.4913C106.518 61.4913 105.677 60.6835 105.369 59.7689C105.005 58.6894 106.133 57.8704 107.272 57.8704C107.873 57.8704 108.463 58.0746 108.886 58.502C110.134 59.7649 111.168 61.4913 108.407 61.4913Z" fill="#4B1C3C"/>
<mask id="mask0_1_668" style="mask-type:alpha" maskUnits="userSpaceOnUse" x="105" y="38" width="87" height="63">
<path d="M172.962 77.358C170.037 79.9892 170.02 82.8492 170.518 84.7811C171.941 87.5656 173.531 90.6798 174.165 91.9475C175.422 94.463 178.805 100.037 173.272 100.037H160.279C160.279 100.037 160.279 94.2517 168.493 94.2517C168.493 94.2517 169.637 91.696 162.343 91.696C150.774 91.696 155.05 77.8611 155.05 77.8611" fill="#146FF4"/>
<path d="M172.962 77.358C170.037 79.9892 170.02 82.8492 170.518 84.7811C171.941 87.5656 173.531 90.6798 174.165 91.9475C175.422 94.463 178.805 100.037 173.272 100.037H160.279C160.279 100.037 160.279 94.2517 168.493 94.2517C168.493 94.2517 169.637 91.696 162.343 91.696C150.774 91.696 155.05 77.8611 155.05 77.8611" fill="#0851C4"/>
<path d="M172.962 77.358C170.037 79.9892 170.02 82.8492 170.518 84.7811C171.941 87.5656 173.531 90.6798 174.165 91.9475C175.422 94.463 178.805 100.037 173.272 100.037H160.279C160.279 100.037 160.279 94.2517 168.493 94.2517C168.493 94.2517 169.637 91.696 162.343 91.696C150.774 91.696 155.05 77.8611 155.05 77.8611" fill="#D17F6A"/>
<path d="M172.962 77.358C170.037 79.9892 170.02 82.8492 170.518 84.7811C171.941 87.5656 173.531 90.6798 174.165 91.9475C175.422 94.463 178.805 100.037 173.272 100.037H160.279C160.279 100.037 160.279 94.2517 168.493 94.2517C168.493 94.2517 169.637 91.696 162.343 91.696C150.774 91.696 155.05 77.8611 155.05 77.8611" fill="url(#paint8_linear_1_668)"/>
<path d="M171.746 87.1652L162.219 88.5263C155.772 89.4473 149.203 88.9902 142.946 87.1853C138.672 85.9525 134.6 84.107 130.856 81.7063L123.315 76.8716C123.315 71.952 125.161 70.1071 116.288 70.1071C106.192 70.1071 105.886 66.1099 105.886 63.0351C105.886 62.1126 104.968 58.1154 113.229 58.1154C120.572 58.1154 116.89 53.8107 120.256 49.8135C123.621 45.8163 130.658 47.0462 130.658 47.0462C130.658 44.2789 133.106 38.1293 134.635 38.1293C136.165 38.1293 141.06 42.434 142.284 56.2705C143.508 70.1071 163.423 58.2753 173.831 68.7357C176.97 71.8905 178.387 73.5847 182.624 73.5847C187.514 73.5847 190.49 66.9155 191.035 63.6531C191.096 63.2934 191.619 63.3241 191.641 63.6869C191.8 66.5742 191.341 71.3954 187.327 75.0268C183.769 78.243 177.279 81.0243 177.885 83.3857" fill="#146FF4"/>
<path d="M171.746 87.1652L162.219 88.5263C155.772 89.4473 149.203 88.9902 142.946 87.1853C138.672 85.9525 134.6 84.107 130.856 81.7063L123.315 76.8716C123.315 71.952 125.161 70.1071 116.288 70.1071C106.192 70.1071 105.886 66.1099 105.886 63.0351C105.886 62.1126 104.968 58.1154 113.229 58.1154C120.572 58.1154 116.89 53.8107 120.256 49.8135C123.621 45.8163 130.658 47.0462 130.658 47.0462C130.658 44.2789 133.106 38.1293 134.635 38.1293C136.165 38.1293 141.06 42.434 142.284 56.2705C143.508 70.1071 163.423 58.2753 173.831 68.7357C176.97 71.8905 178.387 73.5847 182.624 73.5847C187.514 73.5847 190.49 66.9155 191.035 63.6531C191.096 63.2934 191.619 63.3241 191.641 63.6869C191.8 66.5742 191.341 71.3954 187.327 75.0268C183.769 78.243 177.279 81.0243 177.885 83.3857" fill="#0851C4"/>
<path d="M171.746 87.1652L162.219 88.5263C155.772 89.4473 149.203 88.9902 142.946 87.1853C138.672 85.9525 134.6 84.107 130.856 81.7063L123.315 76.8716C123.315 71.952 125.161 70.1071 116.288 70.1071C106.192 70.1071 105.886 66.1099 105.886 63.0351C105.886 62.1126 104.968 58.1154 113.229 58.1154C120.572 58.1154 116.89 53.8107 120.256 49.8135C123.621 45.8163 130.658 47.0462 130.658 47.0462C130.658 44.2789 133.106 38.1293 134.635 38.1293C136.165 38.1293 141.06 42.434 142.284 56.2705C143.508 70.1071 163.423 58.2753 173.831 68.7357C176.97 71.8905 178.387 73.5847 182.624 73.5847C187.514 73.5847 190.49 66.9155 191.035 63.6531C191.096 63.2934 191.619 63.3241 191.641 63.6869C191.8 66.5742 191.341 71.3954 187.327 75.0268C183.769 78.243 177.279 81.0243 177.885 83.3857" fill="#D17F6A"/>
<path d="M171.746 87.1652L162.219 88.5263C155.772 89.4473 149.203 88.9902 142.946 87.1853C138.672 85.9525 134.6 84.107 130.856 81.7063L123.315 76.8716C123.315 71.952 125.161 70.1071 116.288 70.1071C106.192 70.1071 105.886 66.1099 105.886 63.0351C105.886 62.1126 104.968 58.1154 113.229 58.1154C120.572 58.1154 116.89 53.8107 120.256 49.8135C123.621 45.8163 130.658 47.0462 130.658 47.0462C130.658 44.2789 133.106 38.1293 134.635 38.1293C136.165 38.1293 141.06 42.434 142.284 56.2705C143.508 70.1071 163.423 58.2753 173.831 68.7357C176.97 71.8905 178.387 73.5847 182.624 73.5847C187.514 73.5847 190.49 66.9155 191.035 63.6531C191.096 63.2934 191.619 63.3241 191.641 63.6869C191.8 66.5742 191.341 71.3954 187.327 75.0268C183.769 78.243 177.279 81.0243 177.885 83.3857" fill="url(#paint9_linear_1_668)"/>
<path d="M121.718 70.6156C121.718 70.6156 126.4 88.4631 120.764 94.2082C120.764 94.2082 115.049 93.5598 115.049 100.037H128.068C128.068 100.037 137.116 92.9113 137.116 75.5884" fill="#146FF4"/>
<path d="M121.718 70.6156C121.718 70.6156 126.4 88.4631 120.764 94.2082C120.764 94.2082 115.049 93.5598 115.049 100.037H128.068C128.068 100.037 137.116 92.9113 137.116 75.5884" fill="#0851C4"/>
<path d="M121.718 70.6156C121.718 70.6156 126.4 88.4631 120.764 94.2082C120.764 94.2082 115.049 93.5598 115.049 100.037H128.068C128.068 100.037 137.116 92.9113 137.116 75.5884" fill="#D17F6A"/>
<path d="M121.718 70.6156C121.718 70.6156 126.4 88.4631 120.764 94.2082C120.764 94.2082 115.049 93.5598 115.049 100.037H128.068C128.068 100.037 137.116 92.9113 137.116 75.5884" fill="url(#paint10_linear_1_668)"/>
</mask>
<g mask="url(#mask0_1_668)">
<path fill-rule="evenodd" clip-rule="evenodd" d="M113.336 73.4896C135.844 76.5244 145.206 63.9481 147.008 56.8511L144.384 56.1847C142.918 61.9597 134.831 73.6562 113.697 70.8066L113.336 73.4896Z" fill="#FED33C"/>
</g>
<path opacity="0.2" d="M112.955 61.4116C112.955 61.8207 113.36 62.1523 113.86 62.1523C114.36 62.1523 114.765 61.8207 114.765 61.4116C114.765 61.0026 114.36 60.671 113.86 60.671C113.36 60.671 112.955 61.0026 112.955 61.4116Z" fill="url(#paint11_linear_1_668)"/>
<path opacity="0.2" d="M111.473 62.9746C111.473 63.0655 111.731 63.1392 112.05 63.1392C112.368 63.1392 112.626 63.0655 112.626 62.9746C112.626 62.8837 112.368 62.81 112.05 62.81C111.731 62.81 111.473 62.8837 111.473 62.9746Z" fill="url(#paint12_linear_1_668)"/>
<path opacity="0.2" d="M117.234 62.9746C117.234 63.0655 117.603 63.1392 118.057 63.1392C118.512 63.1392 118.88 63.0655 118.88 62.9746C118.88 62.8837 118.512 62.81 118.057 62.81C117.603 62.81 117.234 62.8837 117.234 62.9746Z" fill="url(#paint13_linear_1_668)"/>
<path d="M120.691 54.8273C120.691 55.509 121.243 56.0617 121.925 56.0617C122.607 56.0617 123.16 55.509 123.16 54.8273C123.16 54.1455 122.607 53.5929 121.925 53.5929C121.243 53.5929 120.691 54.1455 120.691 54.8273Z" fill="#4B1C3C"/>
<path d="M44.5421 88.7852C44.0484 86.0077 42.3136 70.8703 55.4049 59.5484C61.6592 54.1396 61.3301 50.6311 61.3301 50.6311C61.3301 50.6311 70.2178 64.9572 77.6242 63.9339C85.0307 62.9106 89.1453 63.0568 89.1453 63.0568C89.1453 63.0568 93.26 66.1267 93.26 79.5756C93.26 93.0246 95.3997 100.041 87.0057 100.041C78.6117 100.041 46.5172 100.041 39.9337 100.041C33.3502 100.041 25.45 95.5097 25.45 86.8848C25.45 78.26 34.3377 75.1901 34.3377 71.2431C34.3377 67.2961 30.5522 67.5885 29.4001 69.7813C28.248 71.974 23.1458 71.974 24.9562 68.0271C26.7667 64.0801 30.9373 63.4515 33.5148 63.9339C36.6419 64.5186 39.6045 67.4423 39.6045 70.2198C39.6045 75.921 33.1856 78.4061 33.1856 86.7386C33.1856 91.2704 38.4524 92.4398 42.0733 92.4398C44.213 92.4398 45.0359 91.5627 44.5421 88.7852Z" fill="#7B22F3"/>
<path d="M44.5421 88.7852C44.0484 86.0077 42.3136 70.8703 55.4049 59.5484C61.6592 54.1396 61.3301 50.6311 61.3301 50.6311C61.3301 50.6311 70.2178 64.9572 77.6242 63.9339C85.0307 62.9106 89.1453 63.0568 89.1453 63.0568C89.1453 63.0568 93.26 66.1267 93.26 79.5756C93.26 93.0246 95.3997 100.041 87.0057 100.041C78.6117 100.041 46.5172 100.041 39.9337 100.041C33.3502 100.041 25.45 95.5097 25.45 86.8848C25.45 78.26 34.3377 75.1901 34.3377 71.2431C34.3377 67.2961 30.5522 67.5885 29.4001 69.7813C28.248 71.974 23.1458 71.974 24.9562 68.0271C26.7667 64.0801 30.9373 63.4515 33.5148 63.9339C36.6419 64.5186 39.6045 67.4423 39.6045 70.2198C39.6045 75.921 33.1856 78.4061 33.1856 86.7386C33.1856 91.2704 38.4524 92.4398 42.0733 92.4398C44.213 92.4398 45.0359 91.5627 44.5421 88.7852Z" fill="url(#paint14_linear_1_668)"/>
<path d="M44.5421 88.7852C44.0484 86.0077 42.3136 70.8703 55.4049 59.5484C61.6592 54.1396 61.3301 50.6311 61.3301 50.6311C61.3301 50.6311 70.2178 64.9572 77.6242 63.9339C85.0307 62.9106 89.1453 63.0568 89.1453 63.0568C89.1453 63.0568 93.26 66.1267 93.26 79.5756C93.26 93.0246 95.3997 100.041 87.0057 100.041C78.6117 100.041 46.5172 100.041 39.9337 100.041C33.3502 100.041 25.45 95.5097 25.45 86.8848C25.45 78.26 34.3377 75.1901 34.3377 71.2431C34.3377 67.2961 30.5522 67.5885 29.4001 69.7813C28.248 71.974 23.1458 71.974 24.9562 68.0271C26.7667 64.0801 30.9373 63.4515 33.5148 63.9339C36.6419 64.5186 39.6045 67.4423 39.6045 70.2198C39.6045 75.921 33.1856 78.4061 33.1856 86.7386C33.1856 91.2704 38.4524 92.4398 42.0733 92.4398C44.213 92.4398 45.0359 91.5627 44.5421 88.7852Z" fill="url(#paint15_linear_1_668)"/>
<path d="M100.322 55.9807C102.082 54.4184 104.023 46.4524 91.2536 37.4169C78.4843 28.3813 59.7931 28.0528 59.7931 39.0597C59.7931 39.0597 61.8325 51.2921 73.6764 56.3849C85.5204 61.4776 93.4225 62.1052 100.322 55.9807Z" fill="#0B8B00"/>
<path d="M100.322 55.9807C102.082 54.4184 104.023 46.4524 91.2536 37.4169C78.4843 28.3813 59.7931 28.0528 59.7931 39.0597C59.7931 39.0597 61.8325 51.2921 73.6764 56.3849C85.5204 61.4776 93.4225 62.1052 100.322 55.9807Z" fill="url(#paint16_linear_1_668)"/>
<path d="M61.7675 45.7704C61.766 45.5311 61.8107 45.2876 61.8869 45.0606L64.4834 37.3363C64.8987 36.1009 66.2125 35.4111 67.4652 35.7707L70.8461 36.7412C71.6478 36.9713 72.5247 36.7835 73.2715 36.412C74.2168 35.9418 75.8044 35.3386 78.2286 34.9476C79.7485 34.7024 80.8244 34.5823 81.5827 34.5306C82.6292 34.4593 83.8566 34.1161 84.6388 33.4171L84.9235 33.1627C85.7633 32.4122 87.0012 32.3416 87.8277 33.1069C90.2196 35.3218 94.6853 40.4998 94.6853 48.2871C94.6853 57.1892 89.9882 60.2819 88.457 61.0536C88.1483 61.2092 87.8181 61.2521 87.4745 61.2141C83.8382 60.8112 61.8426 57.8745 61.7675 45.7704Z" fill="#7B22F3"/>
<path d="M61.7675 45.7704C61.766 45.5311 61.8107 45.2876 61.8869 45.0606L64.4834 37.3363C64.8987 36.1009 66.2125 35.4111 67.4652 35.7707L70.8461 36.7412C71.6478 36.9713 72.5247 36.7835 73.2715 36.412C74.2168 35.9418 75.8044 35.3386 78.2286 34.9476C79.7485 34.7024 80.8244 34.5823 81.5827 34.5306C82.6292 34.4593 83.8566 34.1161 84.6388 33.4171L84.9235 33.1627C85.7633 32.4122 87.0012 32.3416 87.8277 33.1069C90.2196 35.3218 94.6853 40.4998 94.6853 48.2871C94.6853 57.1892 89.9882 60.2819 88.457 61.0536C88.1483 61.2092 87.8181 61.2521 87.4745 61.2141C83.8382 60.8112 61.8426 57.8745 61.7675 45.7704Z" fill="url(#paint17_linear_1_668)"/>
<path d="M61.7675 45.7704C61.766 45.5311 61.8107 45.2876 61.8869 45.0606L64.4834 37.3363C64.8987 36.1009 66.2125 35.4111 67.4652 35.7707L70.8461 36.7412C71.6478 36.9713 72.5247 36.7835 73.2715 36.412C74.2168 35.9418 75.8044 35.3386 78.2286 34.9476C79.7485 34.7024 80.8244 34.5823 81.5827 34.5306C82.6292 34.4593 83.8566 34.1161 84.6388 33.4171L84.9235 33.1627C85.7633 32.4122 87.0012 32.3416 87.8277 33.1069C90.2196 35.3218 94.6853 40.4998 94.6853 48.2871C94.6853 57.1892 89.9882 60.2819 88.457 61.0536C88.1483 61.2092 87.8181 61.2521 87.4745 61.2141C83.8382 60.8112 61.8426 57.8745 61.7675 45.7704Z" fill="url(#paint18_linear_1_668)"/>
<path fill-rule="evenodd" clip-rule="evenodd" d="M87.0291 53.6502C85.4065 53.5603 83.7684 53.5566 82.7564 53.5809C82.6817 53.5827 82.6196 53.5236 82.6178 53.4488C82.616 53.3741 82.6752 53.3121 82.7499 53.3103C83.7678 53.2858 85.4132 53.2895 87.044 53.3799C88.6698 53.47 90.2985 53.647 91.2726 53.9751C91.3435 53.999 91.3816 54.0758 91.3577 54.1466C91.3338 54.2175 91.257 54.2556 91.1862 54.2317C90.2511 53.9167 88.6567 53.7404 87.0291 53.6502Z" fill="black"/>
<path d="M101.597 51.9581C101.633 53.9813 100.965 55.409 100.321 55.9803C93.4223 62.1046 85.5202 61.4771 73.6763 56.3844C61.8671 51.3066 59.8051 39.1309 59.7931 39.0598C59.7931 39.0705 59.7931 39.0812 59.7931 39.0918C59.7931 39.0918 60.5341 49.4815 60.9046 52.6149C61.2751 55.7483 65.3506 60.6958 71.4638 63.1695C77.577 65.6432 84.4313 66.7976 87.3952 65.973C90.3592 65.1485 98.6955 57.7273 100.363 56.0781C100.977 55.4704 101.642 54.0118 101.597 51.9581Z" fill="#0B8B00"/>
<path d="M101.597 51.9581C101.633 53.9813 100.965 55.409 100.321 55.9803C93.4223 62.1046 85.5202 61.4771 73.6763 56.3844C61.8671 51.3066 59.8051 39.1309 59.7931 39.0598C59.7931 39.0705 59.7931 39.0812 59.7931 39.0918C59.7931 39.0918 60.5341 49.4815 60.9046 52.6149C61.2751 55.7483 65.3506 60.6958 71.4638 63.1695C77.577 65.6432 84.4313 66.7976 87.3952 65.973C90.3592 65.1485 98.6955 57.7273 100.363 56.0781C100.977 55.4704 101.642 54.0118 101.597 51.9581Z" fill="url(#paint19_linear_1_668)"/>
<path d="M83.2612 33.1324C79.1908 31.5404 75.03 30.7134 71.3642 30.7143C75.0305 30.7152 79.1917 31.5421 83.2612 33.1324Z" fill="#0B8B00"/>
<path d="M83.2612 33.1324C79.1908 31.5404 75.03 30.7134 71.3642 30.7143C75.0305 30.7152 79.1917 31.5421 83.2612 33.1324Z" fill="url(#paint20_linear_1_668)"/>
<path d="M101.928 65.44C101.928 65.44 102.208 66.3331 102.912 66.9578C110.463 73.6545 117.144 73.1756 131.307 63.5472C145.469 53.9189 142.568 39.8894 142.581 39.8117C142.581 39.8233 142.581 39.835 142.581 39.8466C142.581 39.8466 146.778 61.0784 146.138 62.5597C145.497 64.0409 143.568 68.4849 134.581 74.1007C125.593 79.7165 120.388 78.0679 117.144 77.1662C113.9 76.2646 104.479 69.2255 102.867 67.0648C102.194 66.4003 101.928 65.44 101.928 65.44Z" fill="#0B8B00"/>
<path d="M101.928 65.44C101.928 65.44 102.208 66.3331 102.912 66.9578C110.463 73.6545 117.144 73.1756 131.307 63.5472C145.469 53.9189 142.568 39.8894 142.581 39.8117C142.581 39.8233 142.581 39.835 142.581 39.8466C142.581 39.8466 146.778 61.0784 146.138 62.5597C145.497 64.0409 143.568 68.4849 134.581 74.1007C125.593 79.7165 120.388 78.0679 117.144 77.1662C113.9 76.2646 104.479 69.2255 102.867 67.0648C102.194 66.4003 101.928 65.44 101.928 65.44Z" fill="url(#paint21_linear_1_668)"/>
<path d="M121.669 41.2563C126.124 39.5156 130.678 38.6113 134.69 38.6122C130.677 38.6133 126.123 39.5175 121.669 41.2563Z" fill="#0B8B00"/>
<path d="M121.669 41.2563C126.124 39.5156 130.678 38.6113 134.69 38.6122C130.677 38.6133 126.123 39.5175 121.669 41.2563Z" fill="url(#paint22_linear_1_668)"/>
<path d="M90.416 44.858C91.0062 47.0776 89.8448 49.2208 87.8218 49.6452C85.7989 50.0696 83.6805 48.6143 83.0903 46.3948C82.5001 44.1753 83.6615 42.032 85.6845 41.6076C87.7074 41.1833 89.8258 42.6385 90.416 44.858Z" fill="white"/>
<path d="M76.0879 46.7198C76.6781 48.9393 75.5166 51.0826 73.4937 51.507C71.4707 51.9313 69.3524 50.4761 68.7621 48.2566C68.1719 46.037 69.3334 43.8937 71.3563 43.4694C73.3793 43.045 75.4977 44.5003 76.0879 46.7198Z" fill="white"/>
<path d="M89.7054 45.8636C90.1787 47.6435 89.2799 49.3554 87.6978 49.6873C86.1158 50.0192 84.4496 48.8453 83.9763 47.0655C83.503 45.2856 84.4018 43.5736 85.9839 43.2418C87.5659 42.9099 89.2321 44.0837 89.7054 45.8636Z" fill="white"/>
<path d="M89.7054 45.8636C90.1787 47.6435 89.2799 49.3554 87.6978 49.6873C86.1158 50.0192 84.4496 48.8453 83.9763 47.0655C83.503 45.2856 84.4018 43.5736 85.9839 43.2418C87.5659 42.9099 89.2321 44.0837 89.7054 45.8636Z" fill="url(#paint23_linear_1_668)"/>
<path d="M75.3774 47.7253C75.8507 49.5052 74.9519 51.2171 73.3698 51.549C71.7878 51.8809 70.1216 50.7071 69.6483 48.9272C69.1749 47.1473 70.0738 45.4353 71.6559 45.1035C73.2379 44.7716 74.9041 45.9454 75.3774 47.7253Z" fill="white"/>
<path d="M75.3774 47.7253C75.8507 49.5052 74.9519 51.2171 73.3698 51.549C71.7878 51.8809 70.1216 50.7071 69.6483 48.9272C69.1749 47.1473 70.0738 45.4353 71.6559 45.1035C73.2379 44.7716 74.9041 45.9454 75.3774 47.7253Z" fill="url(#paint24_linear_1_668)"/>
<path d="M88.4978 43.684C88.7875 44.1257 88.7199 44.6402 88.3468 44.8332C87.9738 45.0261 87.4366 44.8244 87.147 44.3827C86.8574 43.9409 86.925 43.4264 87.298 43.2334C87.671 43.0405 88.2082 43.2422 88.4978 43.684Z" fill="white"/>
<path d="M74.1693 45.5493C74.459 45.991 74.3914 46.5056 74.0184 46.6985C73.6453 46.8914 73.1081 46.6897 72.8185 46.248C72.5289 45.8062 72.5965 45.2917 72.9695 45.0988C73.3425 44.9058 73.8797 45.1075 74.1693 45.5493Z" fill="white"/>
<path d="M82.4927 78.3688C82.4927 78.3688 79.986 89.7172 82.4401 94.7055C82.7706 95.3771 83.5545 95.6268 84.2726 95.8378C84.9906 96.0487 85.8516 96.578 86.3054 97.8704C86.7016 98.999 85.6513 100.004 84.4552 100.004H79.4163C78.8669 100.004 78.3404 99.797 77.9913 99.3726C76.566 97.6399 72.9602 92.2464 72.9602 82.0256" fill="url(#paint25_linear_1_668)"/>
<path d="M92.6971 78.3688C92.6971 78.3688 90.1905 89.7172 92.6446 94.7055C92.975 95.3771 93.759 95.6268 94.4771 95.8378C95.195 96.0487 96.0561 96.578 96.5098 97.8704C96.9061 98.999 95.8558 100.004 94.6596 100.004H89.6208C89.0713 100.004 88.5448 99.797 88.1958 99.3726C86.7705 97.6399 83.1647 92.2464 83.1647 82.0256" fill="url(#paint26_linear_1_668)"/>
<path d="M81.0103 51.5058C81.7614 51.4331 82.2725 52.2497 81.8789 52.8936C81.5842 53.3757 80.9272 53.4779 80.4999 53.1083C79.8916 52.582 80.2096 51.5833 81.0103 51.5058Z" fill="#FF5E88"/>
<path fill-rule="evenodd" clip-rule="evenodd" d="M93.6705 50.1727C89.4328 50.5892 85.4688 51.3737 83.1157 51.9691C83.0433 51.9874 82.9696 51.9435 82.9513 51.8711C82.933 51.7986 82.9769 51.725 83.0493 51.7066C85.4144 51.1082 89.3918 50.3212 93.644 49.9032C97.8934 49.4856 102.432 49.4349 105.911 50.3179C105.984 50.3363 106.028 50.4099 106.009 50.4824C105.991 50.5549 105.917 50.5987 105.845 50.5803C102.412 49.7091 97.9112 49.7559 93.6705 50.1727Z" fill="black"/>
<path fill-rule="evenodd" clip-rule="evenodd" d="M89.3133 52.3451C86.5936 52.3078 84.1279 52.5317 82.6913 52.7493C82.6174 52.7605 82.5484 52.7097 82.5372 52.6357C82.526 52.5618 82.5768 52.4928 82.6508 52.4816C84.1017 52.2619 86.5822 52.0369 89.317 52.0744C92.0504 52.1119 95.0478 52.4117 97.5271 53.2468C97.598 53.2707 97.636 53.3475 97.6122 53.4183C97.5883 53.4892 97.5115 53.5273 97.4407 53.5034C94.9997 52.6812 92.0344 52.3824 89.3133 52.3451Z" fill="black"/>
<path fill-rule="evenodd" clip-rule="evenodd" d="M78.7412 52.868C78.8062 52.8692 78.8546 52.87 78.8851 52.87C78.9599 52.87 79.0205 52.9306 79.0205 53.0054C79.0205 53.0801 78.9599 53.1407 78.8851 53.1407C78.8537 53.1407 78.8046 53.1399 78.7388 53.1388C77.5829 53.119 71.2904 53.0114 66.0289 55.8291C65.963 55.8644 65.8809 55.8396 65.8457 55.7737C65.8104 55.7078 65.8352 55.6257 65.9011 55.5905C71.2303 52.7365 77.592 52.8479 78.7412 52.868Z" fill="black"/>
<path fill-rule="evenodd" clip-rule="evenodd" d="M79.2593 53.5481C79.2847 53.6185 79.2482 53.696 79.1778 53.7214C78.1747 54.0826 76.616 54.8434 75.2121 55.948C73.8064 57.0539 72.572 58.4914 72.1868 60.202C72.1703 60.275 72.0979 60.3208 72.025 60.3044C71.952 60.2879 71.9062 60.2155 71.9226 60.1426C72.3275 58.3448 73.6167 56.8586 75.0447 55.7352C76.4744 54.6104 78.0593 53.8364 79.0861 53.4666C79.1564 53.4413 79.234 53.4778 79.2593 53.5481Z" fill="black"/>
<path opacity="0.2" d="M85.7777 34.7004L85.9596 34.2671C86.3537 33.3285 87.7807 33.1297 88.5306 33.8779L88.5531 33.9004C88.7692 34.1159 88.9778 34.324 89.1887 34.5446C89.9211 35.3103 89.2511 36.4158 88.1199 36.4158L87.1188 36.4158C86.1206 36.4158 85.4289 35.5311 85.7777 34.7004Z" fill="url(#paint27_linear_1_668)"/>
<path opacity="0.2" d="M65.0483 37.9002L65.4598 36.9201C65.7216 36.2965 66.4827 35.953 67.1941 36.1619C67.9655 36.3883 68.5246 36.5872 68.9873 36.7839C70.1634 37.2837 69.8365 38.9291 68.5674 39.1946L66.7176 39.5817C65.6048 39.8146 64.6489 38.8517 65.0483 37.9002Z" fill="url(#paint28_linear_1_668)"/>
<path fill-rule="evenodd" clip-rule="evenodd" d="M78.9181 52.2189C78.9182 52.2189 78.9183 52.2189 78.8857 52.3503L78.8532 52.4817L78.8522 52.4814L78.8486 52.4806L78.8339 52.477C78.8207 52.4739 78.8008 52.4692 78.7743 52.4632C78.7214 52.4512 78.6424 52.4339 78.5387 52.4127C78.3314 52.3702 78.0255 52.3124 77.633 52.251C76.8479 52.1284 75.7165 51.9919 74.3337 51.9374C71.5676 51.8282 67.7989 52.0467 63.7857 53.3561C63.7146 53.3793 63.6382 53.3404 63.615 53.2694C63.5918 53.1983 63.6306 53.1219 63.7017 53.0987C67.7533 51.7768 71.5556 51.5568 74.3443 51.6668C75.739 51.7219 76.8809 51.8595 77.6748 51.9836C78.0718 52.0456 78.3818 52.1042 78.593 52.1474C78.6986 52.169 78.7795 52.1868 78.8342 52.1992C78.8616 52.2054 78.8824 52.2103 78.8965 52.2136L78.9125 52.2175L78.9167 52.2185L78.9181 52.2189ZM79.0171 52.3829C78.9991 52.4554 78.9257 52.4997 78.8532 52.4817L78.8857 52.3503L78.9181 52.2189C78.9907 52.2368 79.0351 52.3103 79.0171 52.3829Z" fill="black"/>
<path d="M42.3472 99.987C48.9307 99.987 56.6202 99.987 65.0142 99.987C65.0142 99.987 68.8787 99.987 70.4028 99.987C71.9268 99.987 71.9268 95.8938 67.8121 95.8938C63.6975 95.8938 61.2286 92.9701 63.3683 91.0697C65.5079 89.1693 70.281 85.6609 63.0391 79.2288C55.7973 72.7967 46.5573 83.724 46.5573 83.724C46.5573 83.724 50.2013 93.5563 48.3908 93.8487C46.5804 94.1411 42.3472 99.987 42.3472 99.987Z" fill="url(#paint29_linear_1_668)"/>
<path d="M82.3418 56.8049C82.3418 57.9411 81.826 58.8622 81.1897 58.8622C80.5534 58.8622 80.0376 57.9411 80.0376 56.8049C80.0376 55.6686 80.5534 54.7475 81.1897 54.7475C81.826 54.7475 82.3418 55.6686 82.3418 56.8049Z" fill="url(#paint30_linear_1_668)"/>
<defs>
<linearGradient id="paint0_linear_1_668" x1="122.173" y1="71.2074" x2="122.173" y2="36.2867" gradientUnits="userSpaceOnUse">
<stop stop-color="#94B8D9"/>
<stop offset="1" stop-color="#C9E4FC"/>
</linearGradient>
<linearGradient id="paint1_linear_1_668" x1="130.237" y1="42.8514" x2="130.237" y2="63.0617" gradientUnits="userSpaceOnUse">
<stop stop-color="#D17F6A"/>
<stop offset="1" stop-color="#964651"/>
</linearGradient>
<linearGradient id="paint2_linear_1_668" x1="145.767" y1="48.8848" x2="145.767" y2="145.075" gradientUnits="userSpaceOnUse">
<stop stop-color="#D17F6A"/>
<stop offset="1" stop-color="#964651"/>
</linearGradient>
<linearGradient id="paint3_linear_1_668" x1="145.767" y1="48.8848" x2="145.767" y2="145.075" gradientUnits="userSpaceOnUse">
<stop stop-color="#D17F6A"/>
<stop offset="1" stop-color="#964651"/>
</linearGradient>
<linearGradient id="paint4_linear_1_668" x1="145.767" y1="48.8848" x2="145.767" y2="145.075" gradientUnits="userSpaceOnUse">
<stop stop-color="#D17F6A"/>
<stop offset="1" stop-color="#964651"/>
</linearGradient>
<linearGradient id="paint5_linear_1_668" x1="133.94" y1="76.6185" x2="133.94" y2="100.004" gradientUnits="userSpaceOnUse">
<stop stop-color="#C27164" stop-opacity="0"/>
<stop offset="0.276042" stop-color="#C27164"/>
<stop offset="1" stop-color="#D17F6A"/>
</linearGradient>
<linearGradient id="paint6_linear_1_668" x1="178.296" y1="75.0352" x2="178.296" y2="100.003" gradientUnits="userSpaceOnUse">
<stop stop-color="#C27164" stop-opacity="0"/>
<stop offset="0.276042" stop-color="#C27164"/>
<stop offset="1" stop-color="#D17F6A"/>
</linearGradient>
<linearGradient id="paint7_linear_1_668" x1="135.668" y1="39.4357" x2="135.668" y2="49.3208" gradientUnits="userSpaceOnUse">
<stop stop-color="#964651"/>
<stop offset="1" stop-color="#964651" stop-opacity="0"/>
</linearGradient>
<linearGradient id="paint8_linear_1_668" x1="145.697" y1="48.8959" x2="145.697" y2="145.122" gradientUnits="userSpaceOnUse">
<stop stop-color="#D17F6A"/>
<stop offset="1" stop-color="#964651"/>
</linearGradient>
<linearGradient id="paint9_linear_1_668" x1="145.697" y1="48.8959" x2="145.697" y2="145.122" gradientUnits="userSpaceOnUse">
<stop stop-color="#D17F6A"/>
<stop offset="1" stop-color="#964651"/>
</linearGradient>
<linearGradient id="paint10_linear_1_668" x1="145.697" y1="48.8959" x2="145.697" y2="145.122" gradientUnits="userSpaceOnUse">
<stop stop-color="#D17F6A"/>
<stop offset="1" stop-color="#964651"/>
</linearGradient>
<linearGradient id="paint11_linear_1_668" x1="114.765" y1="61.4116" x2="112.351" y2="61.4116" gradientUnits="userSpaceOnUse">
<stop stop-color="#4B1C3C"/>
<stop offset="1" stop-color="#4B1C3C" stop-opacity="0"/>
</linearGradient>
<linearGradient id="paint12_linear_1_668" x1="112.626" y1="62.9746" x2="111.185" y2="62.9746" gradientUnits="userSpaceOnUse">
<stop stop-color="#4B1C3C"/>
<stop offset="1" stop-color="#4B1C3C" stop-opacity="0"/>
</linearGradient>
<linearGradient id="paint13_linear_1_668" x1="119.292" y1="62.9746" x2="115.589" y2="62.9746" gradientUnits="userSpaceOnUse">
<stop stop-color="#4B1C3C"/>
<stop offset="1" stop-color="#4B1C3C" stop-opacity="0"/>
</linearGradient>
<linearGradient id="paint14_linear_1_668" x1="59.0377" y1="50.6311" x2="59.0377" y2="100.041" gradientUnits="userSpaceOnUse">
<stop stop-color="#FF7D01"/>
<stop offset="1" stop-color="#FEB200"/>
</linearGradient>
<linearGradient id="paint15_linear_1_668" x1="59.0377" y1="50.6311" x2="59.0377" y2="100.041" gradientUnits="userSpaceOnUse">
<stop stop-color="#FF7D01"/>
<stop offset="1" stop-color="#FEB200"/>
</linearGradient>
<linearGradient id="paint16_linear_1_668" x1="80.6938" y1="59.513" x2="80.6938" y2="32.8339" gradientUnits="userSpaceOnUse">
<stop stop-color="#94B8D9"/>
<stop offset="1" stop-color="#C9E4FC"/>
</linearGradient>
<linearGradient id="paint17_linear_1_668" x1="78.2263" y1="31.8833" x2="78.2263" y2="61.2663" gradientUnits="userSpaceOnUse">
<stop stop-color="#FEB200" stop-opacity="0"/>
<stop offset="1" stop-color="#FF7D01"/>
</linearGradient>
<linearGradient id="paint18_linear_1_668" x1="78.2263" y1="31.8833" x2="78.2263" y2="61.2663" gradientUnits="userSpaceOnUse">
<stop stop-color="#FF7D01"/>
<stop offset="1" stop-color="#FEB200"/>
</linearGradient>
<linearGradient id="paint19_linear_1_668" x1="80.6941" y1="20.0015" x2="80.6941" y2="66.237" gradientUnits="userSpaceOnUse">
<stop stop-color="#E2F1FF"/>
<stop offset="1" stop-color="#C9E4FC"/>
</linearGradient>
<linearGradient id="paint20_linear_1_668" x1="80.6941" y1="20.0015" x2="80.6941" y2="66.237" gradientUnits="userSpaceOnUse">
<stop stop-color="#E2F1FF"/>
<stop offset="1" stop-color="#C9E4FC"/>
</linearGradient>
<linearGradient id="paint21_linear_1_668" x1="124.478" y1="26.8983" x2="124.478" y2="77.4549" gradientUnits="userSpaceOnUse">
<stop stop-color="#E2F1FF"/>
<stop offset="1" stop-color="#C9E4FC"/>
</linearGradient>
<linearGradient id="paint22_linear_1_668" x1="124.478" y1="26.8983" x2="124.478" y2="77.4549" gradientUnits="userSpaceOnUse">
<stop stop-color="#E2F1FF"/>
<stop offset="1" stop-color="#C9E4FC"/>
</linearGradient>
<linearGradient id="paint23_linear_1_668" x1="83.9614" y1="45.1705" x2="83.667" y2="43.7669" gradientUnits="userSpaceOnUse">
<stop/>
<stop offset="1"/>
</linearGradient>
<linearGradient id="paint24_linear_1_668" x1="69.6334" y1="47.0322" x2="69.339" y2="45.6286" gradientUnits="userSpaceOnUse">
<stop/>
<stop offset="1"/>
</linearGradient>
<linearGradient id="paint25_linear_1_668" x1="79.7906" y1="78.3688" x2="79.7906" y2="100.004" gradientUnits="userSpaceOnUse">
<stop stop-color="#FE9C00" stop-opacity="0"/>
<stop offset="1" stop-color="#FF7D01"/>
</linearGradient>
<linearGradient id="paint26_linear_1_668" x1="89.9951" y1="78.3688" x2="89.9951" y2="100.004" gradientUnits="userSpaceOnUse">
<stop stop-color="#FE9C00" stop-opacity="0"/>
<stop offset="1" stop-color="#FF7D01"/>
</linearGradient>
<linearGradient id="paint27_linear_1_668" x1="87.2795" y1="32.9071" x2="87.803" y2="35.8987" gradientUnits="userSpaceOnUse">
<stop/>
<stop offset="1" stop-opacity="0"/>
</linearGradient>
<linearGradient id="paint28_linear_1_668" x1="66.3356" y1="36.6187" x2="66.8592" y2="39.6103" gradientUnits="userSpaceOnUse">
<stop/>
<stop offset="1" stop-opacity="0"/>
</linearGradient>
<linearGradient id="paint29_linear_1_668" x1="55.9256" y1="88.6494" x2="72.7959" y2="100.335" gradientUnits="userSpaceOnUse">
<stop stop-color="#FE9C00" stop-opacity="0"/>
<stop offset="1" stop-color="#FF7D01"/>
</linearGradient>
<linearGradient id="paint30_linear_1_668" x1="81.1897" y1="54.7475" x2="81.1897" y2="58.8622" gradientUnits="userSpaceOnUse">
<stop/>
<stop offset="1" stop-opacity="0"/>
</linearGradient>
</defs>
</svg>
