<svg width="16" height="16" viewBox="0 0 16 16" fill="none" xmlns="http://www.w3.org/2000/svg">
<path d="M5.28521 5.63989C5.80721 6.72711 6.5188 7.74609 7.41998 8.64727C8.32116 9.54846 9.34015 10.26 10.4274 10.782C10.5209 10.8269 10.5676 10.8494 10.6268 10.8666C10.8371 10.9279 11.0953 10.8839 11.2733 10.7564C11.3234 10.7205 11.3663 10.6777 11.452 10.5919C11.7143 10.3297 11.8454 10.1986 11.9772 10.1129C12.4744 9.78965 13.1153 9.78965 13.6125 10.1129C13.7443 10.1986 13.8754 10.3297 14.1376 10.5919L14.2838 10.7381C14.6823 11.1367 14.8816 11.3359 14.9899 11.55C15.2052 11.9756 15.2052 12.4783 14.9899 12.904C14.8816 13.1181 14.6823 13.3173 14.2838 13.7159L14.1655 13.8342C13.7683 14.2314 13.5697 14.43 13.2997 14.5817C13 14.75 12.5347 14.871 12.191 14.87C11.8813 14.8691 11.6696 14.809 11.2463 14.6888C8.97125 14.0431 6.82448 12.8247 5.0335 11.0338C3.24251 9.24277 2.02415 7.096 1.37843 4.82095C1.25827 4.39762 1.19819 4.18595 1.19727 3.87624C1.19625 3.53258 1.31727 3.06721 1.48559 2.76758C1.63727 2.49755 1.83588 2.29894 2.2331 1.90173L2.35132 1.7835C2.74991 1.38492 2.9492 1.18563 3.16323 1.07737C3.5889 0.862068 4.0916 0.862068 4.51727 1.07737C4.73131 1.18563 4.9306 1.38492 5.32918 1.7835L5.47533 1.92965C5.73754 2.19186 5.86864 2.32296 5.95436 2.45479C6.2776 2.95196 6.2776 3.5929 5.95435 4.09007C5.86864 4.2219 5.73754 4.353 5.47533 4.61521C5.3896 4.70094 5.34673 4.74381 5.31085 4.79392C5.18334 4.97199 5.13932 5.23018 5.20061 5.44045C5.21786 5.49962 5.24031 5.54637 5.28521 5.63989Z" stroke="#999999" stroke-width="1.5" stroke-linecap="round" stroke-linejoin="round"/>
</svg>
