<svg width="215" height="134" viewBox="0 0 215 134" fill="none" xmlns="http://www.w3.org/2000/svg">
<path opacity="0.1" d="M190.303 91.6939C190.303 91.3851 190.144 91.1348 189.948 91.1348H73.7561C73.5604 91.1348 73.4018 91.3851 73.4018 91.6939V92.253C73.4018 92.5618 73.5604 92.8121 73.7561 92.8121H189.948C190.144 92.8121 190.303 92.5618 190.303 92.253V91.6939Z" fill="black"/>
<path d="M63.2814 80.5901C63.2814 80.5901 62.0635 72.4195 69.8138 72.5299C68.2637 71.3153 67.2672 69.3279 67.378 67.23C67.4887 63.9176 70.2566 61.2676 73.6889 61.0468C74.7961 57.9552 78.0069 55.747 81.6606 55.9678C86.0893 56.1886 92.4003 61.9301 92.1788 66.1259C91.9574 70.3216 84.65 71.5361 89.0787 72.4195C95.7218 73.7444 88.4144 72.6403 88.0823 72.6403C87.9715 72.7507 88.4144 74.4069 88.3037 74.5173C92.9539 75.9527 87.418 77.0568 87.3072 81.5838C87.0858 87.1045 81.7713 90.8586 75.4604 91.0794C71.2531 91.1898 68.3744 90.5273 66.3815 89.3128C66.1601 89.5336 59.7384 86.1108 63.2814 80.5901Z" fill="#0B8B00"/>
<path d="M175.062 85.6407C173.405 83.5369 172.411 80.8794 172.411 78.1111C172.411 75.1214 172.853 72.9068 174.841 70.6922C172.963 68.9205 172.411 65.9308 172.411 63.384C172.411 62.6089 172.521 61.7231 172.742 61.0587C168.102 60.6158 164.567 57.4046 164.567 53.5291C164.567 49.3214 168.765 45.8887 173.957 45.8887C179.15 45.8887 183.348 49.3214 183.348 53.5291C183.569 53.5291 183.789 53.5291 184.01 53.5291C190.418 53.5291 195.721 57.9583 195.721 63.4948C195.721 64.8235 195.389 66.0416 194.837 67.2596C199.035 69.4742 201.797 73.4605 201.797 78.1111C201.797 84.9764 195.831 90.6236 188.208 91.1772H153.298V85.53H175.062V85.6407Z" fill="#0B8B00"/>
<path d="M192.003 74.2388C191.361 73.4336 190.976 72.4165 190.976 71.3571C190.976 70.2129 191.148 69.3653 191.918 68.5178C191.19 67.8397 190.976 66.6955 190.976 65.7208C190.976 65.4242 191.019 65.0851 191.105 64.8309C189.308 64.6614 187.939 63.4324 187.939 61.9492C187.939 60.3388 189.565 59.0251 191.575 59.0251C193.586 59.0251 195.212 60.3388 195.212 61.9492C195.298 61.9492 195.383 61.9492 195.469 61.9492C197.95 61.9492 200.004 63.6443 200.004 65.7632C200.004 66.2717 199.876 66.7379 199.662 67.204C201.288 68.0516 202.357 69.5772 202.357 71.3571C202.357 73.9845 200.047 76.1458 197.095 76.3577H183.575V74.1964H192.003V74.2388Z" fill="#0B8B00"/>
<path d="M73.4021 29.3951H177.688V91.1776H73.4021V29.3951Z" fill="#D76D81"/>
<path d="M73.4021 29.3951H177.688V91.1776H73.4021V29.3951Z" fill="url(#paint0_linear_1_546)"/>
<path d="M116.773 39.931H165.696C166.005 39.931 166.256 40.1813 166.256 40.4901V80.1146C166.256 80.4234 166.005 80.6737 165.696 80.6737H116.773C116.463 80.6737 116.212 80.4234 116.212 80.1146V40.4901C116.212 40.1813 116.463 39.931 116.773 39.931Z" fill="#E1E5DF"/>
<path d="M118.264 41.6978H164.315C164.47 41.6978 164.596 41.8229 164.596 41.9773V79.2902C164.596 79.4446 164.47 79.5697 164.315 79.5697H118.264C118.109 79.5697 117.983 79.4446 117.983 79.2902V41.9773C117.983 41.8229 118.109 41.6978 118.264 41.6978Z" fill="#FCFAFB"/>
<path d="M118.264 41.6978H164.315C164.47 41.6978 164.596 41.8229 164.596 41.9773V79.2902C164.596 79.4446 164.47 79.5697 164.315 79.5697H118.264C118.109 79.5697 117.983 79.4446 117.983 79.2902V41.9773C117.983 41.8229 118.109 41.6978 118.264 41.6978Z" fill="url(#paint1_linear_1_546)"/>
<path opacity="0.1" d="M129.189 65.4148C127.395 65.4148 126.105 63.5001 126.105 61.7544C126.105 60.2339 127.002 57.5871 129.189 57.5871C131.376 57.5871 132.273 59.9523 132.273 61.4728C132.273 62.9933 130.983 65.4148 129.189 65.4148Z" fill="black"/>
<path opacity="0.1" d="M135.637 59.5447C133.843 59.5447 132.553 57.6301 132.553 55.8843C132.553 54.3639 133.45 51.7171 135.637 51.7171C137.823 51.7171 138.72 54.0823 138.72 55.6028C138.72 57.1232 137.431 59.5447 135.637 59.5447Z" fill="black"/>
<path opacity="0.1" d="M143.206 58.4269C141.412 58.4269 140.122 56.5122 140.122 54.7665C140.122 53.246 141.019 50.5992 143.206 50.5992C145.393 50.5992 146.29 52.9644 146.29 54.4849C146.29 56.0054 145 58.4269 143.206 58.4269Z" fill="black"/>
<path opacity="0.1" d="M150.074 64.2968C148.198 64.2968 146.85 62.3821 146.85 60.6364C146.85 59.1159 147.788 56.4692 150.074 56.4692C152.36 56.4692 153.298 58.8343 153.298 60.3548C153.298 61.8753 151.95 64.2968 150.074 64.2968Z" fill="black"/>
<path opacity="0.1" d="M136.6 72.5588C133.663 73.2498 132.589 72.7316 131.855 70.7738C131.121 68.8161 133.399 66.6664 134.623 65.4188C136.261 63.6913 136.883 59.5455 139.764 59.5455C142.645 59.5455 145.526 62.4821 147.221 67.3765C148.916 72.2709 145.639 75.3227 143.606 73.5953C141.572 71.8679 139.538 71.8679 136.6 72.5588Z" fill="black"/>
<path d="M80.691 39.7383H104.52C104.829 39.7383 105.08 39.9886 105.08 40.2974V90.618C105.08 90.9267 104.829 91.1771 104.52 91.1771H80.691C80.3814 91.1771 80.1303 90.9267 80.1303 90.618V40.2974C80.1303 39.9886 80.3814 39.7383 80.691 39.7383Z" fill="#E1E5DF"/>
<path d="M82.6532 41.6533H102.557C102.867 41.6533 103.118 41.9036 103.118 42.2124V85.8236C103.118 86.1324 102.867 86.3827 102.557 86.3827H82.6532C82.3436 86.3827 82.0925 86.1324 82.0925 85.8236V42.2124C82.0925 41.9036 82.3436 41.6533 82.6532 41.6533Z" fill="#B25B70"/>
<path d="M82.6532 41.6533H102.557C102.867 41.6533 103.118 41.9036 103.118 42.2124V85.8236C103.118 86.1324 102.867 86.3827 102.557 86.3827H82.6532C82.3436 86.3827 82.0925 86.1324 82.0925 85.8236V42.2124C82.0925 41.9036 82.3436 41.6533 82.6532 41.6533Z" fill="url(#paint2_linear_1_546)"/>
<path d="M182.199 24.3209C182.199 22.005 180.316 20.1276 177.994 20.1276H72.8072C70.4848 20.1276 68.6022 22.005 68.6022 24.3209V30.836C68.6022 33.1535 70.4873 35.0316 72.8113 35.0293L177.998 34.9271C180.319 34.9249 182.199 33.0481 182.199 30.7337V24.3209Z" fill="#7B22F3"/>
<path d="M73.8222 27.6763C73.2514 27.6763 72.8411 27.1293 72.8411 26.6305C72.8411 26.1961 73.1265 25.4399 73.8222 25.4399C74.518 25.4399 74.8034 26.1156 74.8034 26.5501C74.8034 26.9845 74.3931 27.6763 73.8222 27.6763Z" fill="white"/>
<path d="M75.9251 25.9975C75.4358 25.9975 75.0841 25.3821 75.0841 24.8209C75.0841 24.3322 75.3288 23.4815 75.9251 23.4815C76.5215 23.4815 76.7661 24.2417 76.7661 24.7304C76.7661 25.2192 76.4144 25.9975 75.9251 25.9975Z" fill="white"/>
<path d="M78.308 25.72C77.7372 25.72 77.3268 25.1045 77.3268 24.5434C77.3268 24.0547 77.6123 23.2039 78.308 23.2039C79.0038 23.2039 79.2892 23.9642 79.2892 24.4529C79.2892 24.9416 78.8789 25.72 78.308 25.72Z" fill="white"/>
<path d="M80.4108 27.3952C79.7584 27.3952 79.2894 26.7798 79.2894 26.2186C79.2894 25.7299 79.6156 24.8792 80.4108 24.8792C81.2059 24.8792 81.5321 25.6394 81.5321 26.1281C81.5321 26.6169 81.0632 27.3952 80.4108 27.3952Z" fill="white"/>
<path d="M76.2614 30.0045C75.3853 30.2171 75.0651 30.0577 74.8461 29.4553C74.6271 28.8529 75.3066 28.1914 75.6717 27.8076C76.1603 27.276 76.3456 26.0004 77.2049 26.0004C78.0642 26.0004 78.9235 26.904 79.429 28.4099C79.9344 29.9159 78.9572 30.8549 78.3506 30.3234C77.7441 29.7919 77.1375 29.7919 76.2614 30.0045Z" fill="white"/>
<path d="M84.5303 29.6316V24.9954H86.9726C87.7755 24.9954 88.3653 25.1273 88.7421 25.3912C89.1188 25.6507 89.3072 26.1024 89.3072 26.7465C89.3072 27.2609 89.1637 27.6456 88.8766 27.9005C88.6299 28.1197 88.2307 28.2561 87.679 28.3098C87.4458 28.3322 87.1677 28.3434 86.8447 28.3434V29.6316H84.5303ZM86.8447 27.6389H87.0399C87.0937 27.6389 87.1385 27.621 87.1744 27.5852C87.2103 27.5494 87.2282 27.5024 87.2282 27.4443V27.1357C87.2282 27.0775 87.2103 27.0328 87.1744 27.0015C87.1385 26.9657 87.0937 26.9478 87.0399 26.9478H86.8447V27.6389Z" fill="white"/>
<path d="M89.6026 27.659C89.6026 26.9746 89.7574 26.4603 90.0669 26.1158C90.3808 25.7714 90.8922 25.5992 91.6009 25.5992C92.3096 25.5992 92.803 25.7423 93.0811 26.0286C93.3592 26.3149 93.4982 26.7845 93.4982 27.4376L93.4646 27.9542H91.6076V28.1823C91.7197 28.2092 91.8835 28.2226 92.0988 28.2226C92.5563 28.2226 92.9263 28.2025 93.2089 28.1622L93.3502 28.1421V29.4034C93.3143 29.4258 93.256 29.4549 93.1753 29.4907C93.099 29.522 92.9129 29.5645 92.6168 29.6181C92.3208 29.6718 91.9911 29.6987 91.6278 29.6987C90.9101 29.6987 90.3921 29.5287 90.0736 29.1887C89.7596 28.8488 89.6026 28.3389 89.6026 27.659ZM91.5067 27.3571V27.6187H91.8902V27.3571C91.8902 27.2989 91.87 27.252 91.8296 27.2162C91.7938 27.1804 91.7467 27.1625 91.6883 27.1625C91.6345 27.1625 91.5897 27.1804 91.5538 27.2162C91.5224 27.252 91.5067 27.2989 91.5067 27.3571Z" fill="white"/>
<path d="M96.2819 27.5382V27.8402H96.8874V29.4236C96.865 29.4459 96.8269 29.4728 96.7731 29.5041C96.7237 29.5309 96.5914 29.5712 96.3761 29.6249C96.1608 29.6741 95.9119 29.6987 95.6293 29.6987C94.6021 29.6987 94.0885 29.2514 94.0885 28.3568V27.5382H93.8261V25.8676C94.019 25.8094 94.1895 25.7021 94.3375 25.5455C94.4855 25.389 94.5864 25.2481 94.6402 25.1228L94.721 24.9283H96.4097V25.6663H96.8874V27.5382H96.2819Z" fill="white"/>
<path d="M101.483 24.9283C101.851 24.9283 102.194 24.9529 102.512 25.0021C102.835 25.0468 103.066 25.0938 103.205 25.143L103.407 25.2168V27.1357C103.044 26.9702 102.546 26.8874 101.913 26.8874V27.0619C102.497 27.1066 102.916 27.2229 103.172 27.4108C103.427 27.5986 103.555 27.8826 103.555 28.2628C103.555 28.7191 103.369 29.0724 102.997 29.3229C102.624 29.5734 102.05 29.6987 101.274 29.6987C100.83 29.6987 100.438 29.6741 100.097 29.6249C99.756 29.5712 99.5272 29.5197 99.4106 29.4705L99.2289 29.39V27.7194C99.2693 27.7373 99.3298 27.7619 99.4106 27.7932C99.4913 27.8245 99.6707 27.8648 99.9488 27.914C100.231 27.9632 100.534 27.9878 100.857 27.9878V27.8267C100.31 27.7865 99.8972 27.6702 99.6191 27.4778C99.3411 27.2855 99.202 26.95 99.202 26.4714C99.202 25.9928 99.3926 25.6171 99.7739 25.3443C100.155 25.0669 100.725 24.9283 101.483 24.9283Z" fill="white"/>
<path d="M106.141 29.6316V27.5047C106.141 27.451 106.121 27.4063 106.081 27.3705C106.045 27.3302 106 27.3101 105.946 27.3101C105.892 27.3101 105.848 27.3302 105.812 27.3705C105.776 27.4063 105.758 27.451 105.758 27.5047V29.6316H103.854V24.6331H105.859V25.4784L105.792 26.0555C105.809 25.9973 105.841 25.9392 105.886 25.881C105.931 25.8229 106.027 25.7625 106.175 25.6999C106.323 25.6328 106.505 25.5992 106.72 25.5992C107.16 25.5992 107.489 25.72 107.709 25.9615C107.933 26.2031 108.045 26.5542 108.045 27.0149V29.6316H106.141Z" fill="white"/>
<path d="M110.66 29.6919H110.391C109.736 29.6919 109.245 29.5309 108.918 29.2089C108.595 28.8868 108.433 28.368 108.433 27.6523C108.433 26.9366 108.595 26.4155 108.918 26.089C109.245 25.7625 109.736 25.5992 110.391 25.5992H110.66C111.315 25.5992 111.806 25.7625 112.134 26.089C112.461 26.4155 112.625 26.9366 112.625 27.6523C112.625 28.368 112.461 28.8868 112.134 29.2089C111.811 29.5309 111.32 29.6919 110.66 29.6919ZM110.337 27.5986V28.1622C110.337 28.2204 110.353 28.2673 110.385 28.3031C110.42 28.3389 110.465 28.3568 110.519 28.3568C110.577 28.3568 110.625 28.3389 110.66 28.3031C110.701 28.2673 110.721 28.2204 110.721 28.1622V27.5986C110.721 27.5449 110.701 27.5002 110.66 27.4644C110.625 27.4242 110.58 27.404 110.526 27.404C110.472 27.404 110.427 27.4242 110.391 27.4644C110.355 27.5002 110.337 27.5449 110.337 27.5986Z" fill="white"/>
<path d="M115.563 29.6987C115.325 29.6987 115.144 29.6539 115.018 29.5645V30.2555H113.013V25.6663H114.702L114.769 26.1561C114.85 25.919 115.029 25.7535 115.307 25.6596C115.424 25.6193 115.554 25.5992 115.698 25.5992C116.2 25.5992 116.577 25.7915 116.828 26.1762C117.079 26.5564 117.205 27.0574 117.205 27.6791C117.205 28.3009 117.061 28.7929 116.774 29.1552C116.491 29.5175 116.088 29.6987 115.563 29.6987ZM114.917 27.5986V28.1622C114.917 28.2204 114.933 28.2673 114.964 28.3031C115 28.3389 115.045 28.3568 115.099 28.3568C115.157 28.3568 115.204 28.3389 115.24 28.3031C115.28 28.2673 115.301 28.2204 115.301 28.1622V27.5986C115.301 27.5449 115.28 27.5002 115.24 27.4644C115.204 27.4242 115.159 27.404 115.105 27.404C115.052 27.404 115.007 27.4242 114.971 27.4644C114.935 27.5002 114.917 27.5449 114.917 27.5986Z" fill="white"/>
<path d="M148.532 20.1276H156.942L169.558 36.9011V39.4171C169.558 41.733 167.675 43.6105 165.353 43.6105V43.6105C163.03 43.6105 161.148 41.733 161.148 39.4171V36.9011L148.532 20.1276Z" fill="#FF1C66"/>
<path d="M131.712 20.1276H140.235L153.018 36.9011V39.3612C153.018 41.708 151.11 43.6105 148.757 43.6105V43.6105C146.403 43.6105 144.496 41.708 144.496 39.3612V36.9011L131.712 20.1276Z" fill="#FF1C66"/>
<path d="M165.073 20.1276H173.595L186.378 36.9011V39.3612C186.378 41.708 184.471 43.6105 182.117 43.6105V43.6105C179.764 43.6105 177.856 41.708 177.856 39.3612V36.9011L165.073 20.1276Z" fill="#FF1C66"/>
<path d="M156.662 20.1276H165.184L177.968 36.9011V39.3612C177.968 41.708 176.06 43.6105 173.707 43.6105V43.6105C171.353 43.6105 169.446 41.708 169.446 39.3612V36.9011L156.662 20.1276Z" fill="#6118C5"/>
<path d="M139.842 20.1276H148.476L161.428 36.9011V39.3053C161.428 41.683 159.495 43.6105 157.111 43.6105V43.6105C154.727 43.6105 152.794 41.683 152.794 39.3053V36.9011L139.842 20.1276Z" fill="#6118C5"/>
<path d="M75.3326 100.282C75.696 96.343 77.1497 95.1176 77.6039 95.1176C78.0582 95.1176 78.785 96.8682 78.785 97.6559L75.3326 100.282Z" fill="#D17F6A"/>
<path d="M75.3326 100.282C75.696 96.343 77.1497 95.1176 77.6039 95.1176C78.0582 95.1176 78.785 96.8682 78.785 97.6559L75.3326 100.282Z" fill="url(#paint3_linear_1_546)"/>
<path d="M58.7777 110.811C60.0355 111.936 60.043 113.159 59.8289 113.984C59.2168 115.175 58.5333 116.506 58.2608 117.048C57.72 118.124 56.2655 120.507 58.6447 120.507H64.2315C64.2315 120.507 64.2315 118.033 60.6995 118.033C60.6995 118.033 60.2074 116.941 63.3436 116.941C68.3184 116.941 66.4799 111.026 66.4799 111.026" fill="#146FF4"/>
<path d="M58.7777 110.811C60.0355 111.936 60.043 113.159 59.8289 113.984C59.2168 115.175 58.5333 116.506 58.2608 117.048C57.72 118.124 56.2655 120.507 58.6447 120.507H64.2315C64.2315 120.507 64.2315 118.033 60.6995 118.033C60.6995 118.033 60.2074 116.941 63.3436 116.941C68.3184 116.941 66.4799 111.026 66.4799 111.026" fill="#0851C4"/>
<path d="M58.7777 110.811C60.0355 111.936 60.043 113.159 59.8289 113.984C59.2168 115.175 58.5333 116.506 58.2608 117.048C57.72 118.124 56.2655 120.507 58.6447 120.507H64.2315C64.2315 120.507 64.2315 118.033 60.6995 118.033C60.6995 118.033 60.2074 116.941 63.3436 116.941C68.3184 116.941 66.4799 111.026 66.4799 111.026" fill="#D17F6A"/>
<path d="M58.7777 110.811C60.0355 111.936 60.043 113.159 59.8289 113.984C59.2168 115.175 58.5333 116.506 58.2608 117.048C57.72 118.124 56.2655 120.507 58.6447 120.507H64.2315C64.2315 120.507 64.2315 118.033 60.6995 118.033C60.6995 118.033 60.2074 116.941 63.3436 116.941C68.3184 116.941 66.4799 111.026 66.4799 111.026" fill="url(#paint4_linear_1_546)"/>
<path d="M59.3006 115.004L63.3973 115.586C66.1693 115.979 68.9938 115.784 71.6842 115.012C73.5217 114.485 75.2728 113.696 76.8827 112.67L80.125 110.603C80.125 108.5 79.3312 107.711 83.1462 107.711C87.4875 107.711 87.6191 106.002 87.6191 104.688C87.6191 104.294 88.0137 102.585 84.4618 102.585C81.3045 102.585 82.8876 100.744 81.4405 99.0355C79.9934 97.3266 76.9677 97.8524 76.9677 97.8524C76.9677 96.6694 75.9153 94.0404 75.2575 94.0404C74.5997 94.0404 72.4949 95.8807 71.9687 101.796C71.4424 107.711 62.8796 102.653 58.4041 107.125C57.0544 108.474 56.4453 109.198 54.6233 109.198C52.5211 109.198 51.241 106.347 51.0069 104.952C50.9806 104.798 50.7556 104.811 50.7464 104.967C50.678 106.201 50.8753 108.262 52.6013 109.814C54.1313 111.189 54.1405 112.684 53.88 113.694" fill="#146FF4"/>
<path d="M59.3006 115.004L63.3973 115.586C66.1693 115.979 68.9938 115.784 71.6842 115.012C73.5217 114.485 75.2728 113.696 76.8827 112.67L80.125 110.603C80.125 108.5 79.3312 107.711 83.1462 107.711C87.4875 107.711 87.6191 106.002 87.6191 104.688C87.6191 104.294 88.0137 102.585 84.4618 102.585C81.3045 102.585 82.8876 100.744 81.4405 99.0355C79.9934 97.3266 76.9677 97.8524 76.9677 97.8524C76.9677 96.6694 75.9153 94.0404 75.2575 94.0404C74.5997 94.0404 72.4949 95.8807 71.9687 101.796C71.4424 107.711 62.8796 102.653 58.4041 107.125C57.0544 108.474 56.4453 109.198 54.6233 109.198C52.5211 109.198 51.241 106.347 51.0069 104.952C50.9806 104.798 50.7556 104.811 50.7464 104.967C50.678 106.201 50.8753 108.262 52.6013 109.814C54.1313 111.189 54.1405 112.684 53.88 113.694" fill="#0851C4"/>
<path d="M59.3006 115.004L63.3973 115.586C66.1693 115.979 68.9938 115.784 71.6842 115.012C73.5217 114.485 75.2728 113.696 76.8827 112.67L80.125 110.603C80.125 108.5 79.3312 107.711 83.1462 107.711C87.4875 107.711 87.6191 106.002 87.6191 104.688C87.6191 104.294 88.0137 102.585 84.4618 102.585C81.3045 102.585 82.8876 100.744 81.4405 99.0355C79.9934 97.3266 76.9677 97.8524 76.9677 97.8524C76.9677 96.6694 75.9153 94.0404 75.2575 94.0404C74.5997 94.0404 72.4949 95.8807 71.9687 101.796C71.4424 107.711 62.8796 102.653 58.4041 107.125C57.0544 108.474 56.4453 109.198 54.6233 109.198C52.5211 109.198 51.241 106.347 51.0069 104.952C50.9806 104.798 50.7556 104.811 50.7464 104.967C50.678 106.201 50.8753 108.262 52.6013 109.814C54.1313 111.189 54.1405 112.684 53.88 113.694" fill="#D17F6A"/>
<path d="M59.3006 115.004L63.3973 115.586C66.1693 115.979 68.9938 115.784 71.6842 115.012C73.5217 114.485 75.2728 113.696 76.8827 112.67L80.125 110.603C80.125 108.5 79.3312 107.711 83.1462 107.711C87.4875 107.711 87.6191 106.002 87.6191 104.688C87.6191 104.294 88.0137 102.585 84.4618 102.585C81.3045 102.585 82.8876 100.744 81.4405 99.0355C79.9934 97.3266 76.9677 97.8524 76.9677 97.8524C76.9677 96.6694 75.9153 94.0404 75.2575 94.0404C74.5997 94.0404 72.4949 95.8807 71.9687 101.796C71.4424 107.711 62.8796 102.653 58.4041 107.125C57.0544 108.474 56.4453 109.198 54.6233 109.198C52.5211 109.198 51.241 106.347 51.0069 104.952C50.9806 104.798 50.7556 104.811 50.7464 104.967C50.678 106.201 50.8753 108.262 52.6013 109.814C54.1313 111.189 54.1405 112.684 53.88 113.694" fill="url(#paint5_linear_1_546)"/>
<path d="M80.8118 107.929C80.8118 107.929 78.7984 115.559 81.2218 118.015C81.2218 118.015 83.6791 117.737 83.6791 120.507H78.0812C78.0812 120.507 74.1911 117.46 74.1911 110.055" fill="#146FF4"/>
<path d="M80.8118 107.929C80.8118 107.929 78.7984 115.559 81.2218 118.015C81.2218 118.015 83.6791 117.737 83.6791 120.507H78.0812C78.0812 120.507 74.1911 117.46 74.1911 110.055" fill="#0851C4"/>
<path d="M80.8118 107.929C80.8118 107.929 78.7984 115.559 81.2218 118.015C81.2218 118.015 83.6791 117.737 83.6791 120.507H78.0812C78.0812 120.507 74.1911 117.46 74.1911 110.055" fill="#D17F6A"/>
<path d="M80.8118 107.929C80.8118 107.929 78.7984 115.559 81.2218 118.015C81.2218 118.015 83.6791 117.737 83.6791 120.507H78.0812C78.0812 120.507 74.1911 117.46 74.1911 110.055" fill="url(#paint6_linear_1_546)"/>
<path d="M77.2758 108.672C77.2758 108.672 75.3069 115.851 77.6768 118.162C77.6768 118.162 80.0797 117.901 80.0797 120.506H74.6055C74.6055 120.506 70.8015 117.64 70.8015 110.672" fill="url(#paint7_linear_1_546)"/>
<path d="M52.7861 109.963C54.1876 111.187 54.1961 112.516 53.9575 113.414C53.2754 114.709 52.5137 116.157 52.2101 116.746C51.6075 117.915 49.9866 120.507 52.6379 120.507H58.8635C58.8635 120.507 58.8635 117.817 54.9276 117.817C54.9276 117.817 54.3793 116.629 57.8741 116.629C63.4176 116.629 61.3689 110.197 61.3689 110.197" fill="url(#paint8_linear_1_546)"/>
<path d="M73.7642 99.9084C73.378 100.212 72.8235 99.9077 72.8969 99.4229C73.5141 95.3515 75.0657 94.0404 75.5825 94.0404C76.1043 94.0404 76.9139 95.9501 77.0416 97.0492C77.0614 97.2194 76.9801 97.3809 76.8452 97.4869L73.7642 99.9084Z" fill="url(#paint9_linear_1_546)"/>
<mask id="mask0_1_546" style="mask-type:alpha" maskUnits="userSpaceOnUse" x="50" y="93" width="38" height="28">
<path d="M58.5963 110.748C59.866 111.886 59.8736 113.124 59.6574 113.961C59.0395 115.166 58.3495 116.514 58.0744 117.063C57.5285 118.152 56.0601 120.564 58.462 120.564H64.1019C64.1019 120.564 64.1019 118.06 60.5363 118.06C60.5363 118.06 60.0396 116.954 63.2056 116.954C68.2276 116.954 66.3717 110.965 66.3717 110.965" fill="#146FF4"/>
<path d="M58.5963 110.748C59.866 111.886 59.8736 113.124 59.6574 113.961C59.0395 115.166 58.3495 116.514 58.0744 117.063C57.5285 118.152 56.0601 120.564 58.462 120.564H64.1019C64.1019 120.564 64.1019 118.06 60.5363 118.06C60.5363 118.06 60.0396 116.954 63.2056 116.954C68.2276 116.954 66.3717 110.965 66.3717 110.965" fill="#0851C4"/>
<path d="M58.5963 110.748C59.866 111.886 59.8736 113.124 59.6574 113.961C59.0395 115.166 58.3495 116.514 58.0744 117.063C57.5285 118.152 56.0601 120.564 58.462 120.564H64.1019C64.1019 120.564 64.1019 118.06 60.5363 118.06C60.5363 118.06 60.0396 116.954 63.2056 116.954C68.2276 116.954 66.3717 110.965 66.3717 110.965" fill="#D17F6A"/>
<path d="M58.5963 110.748C59.866 111.886 59.8736 113.124 59.6574 113.961C59.0395 115.166 58.3495 116.514 58.0744 117.063C57.5285 118.152 56.0601 120.564 58.462 120.564H64.1019C64.1019 120.564 64.1019 118.06 60.5363 118.06C60.5363 118.06 60.0396 116.954 63.2056 116.954C68.2276 116.954 66.3717 110.965 66.3717 110.965" fill="url(#paint10_linear_1_546)"/>
<path d="M59.1242 114.993L63.2598 115.582C66.0581 115.98 68.9095 115.783 71.6255 115.001C73.4805 114.468 75.2482 113.669 76.8735 112.63L80.1466 110.537C80.1466 108.407 79.3452 107.609 83.1966 107.609C87.5791 107.609 87.7119 105.879 87.7119 104.548C87.7119 104.148 88.1103 102.418 84.5246 102.418C81.3373 102.418 82.9355 100.555 81.4746 98.8245C80.0138 97.0943 76.9592 97.6267 76.9592 97.6267C76.9592 96.4288 75.8968 93.7669 75.2328 93.7669C74.5688 93.7669 72.4439 95.6302 71.9127 101.62C71.3814 107.609 62.7372 102.487 58.2192 107.015C56.8566 108.381 56.2417 109.114 54.4023 109.114C52.2801 109.114 50.9879 106.227 50.7515 104.815C50.725 104.659 50.4979 104.673 50.4886 104.83C50.4195 106.08 50.6187 108.167 52.3611 109.738C53.9056 111.131 53.9149 112.644 53.652 113.666" fill="#146FF4"/>
<path d="M59.1242 114.993L63.2598 115.582C66.0581 115.98 68.9095 115.783 71.6255 115.001C73.4805 114.468 75.2482 113.669 76.8735 112.63L80.1466 110.537C80.1466 108.407 79.3452 107.609 83.1966 107.609C87.5791 107.609 87.7119 105.879 87.7119 104.548C87.7119 104.148 88.1103 102.418 84.5246 102.418C81.3373 102.418 82.9355 100.555 81.4746 98.8245C80.0138 97.0943 76.9592 97.6267 76.9592 97.6267C76.9592 96.4288 75.8968 93.7669 75.2328 93.7669C74.5688 93.7669 72.4439 95.6302 71.9127 101.62C71.3814 107.609 62.7372 102.487 58.2192 107.015C56.8566 108.381 56.2417 109.114 54.4023 109.114C52.2801 109.114 50.9879 106.227 50.7515 104.815C50.725 104.659 50.4979 104.673 50.4886 104.83C50.4195 106.08 50.6187 108.167 52.3611 109.738C53.9056 111.131 53.9149 112.644 53.652 113.666" fill="#0851C4"/>
<path d="M59.1242 114.993L63.2598 115.582C66.0581 115.98 68.9095 115.783 71.6255 115.001C73.4805 114.468 75.2482 113.669 76.8735 112.63L80.1466 110.537C80.1466 108.407 79.3452 107.609 83.1966 107.609C87.5791 107.609 87.7119 105.879 87.7119 104.548C87.7119 104.148 88.1103 102.418 84.5246 102.418C81.3373 102.418 82.9355 100.555 81.4746 98.8245C80.0138 97.0943 76.9592 97.6267 76.9592 97.6267C76.9592 96.4288 75.8968 93.7669 75.2328 93.7669C74.5688 93.7669 72.4439 95.6302 71.9127 101.62C71.3814 107.609 62.7372 102.487 58.2192 107.015C56.8566 108.381 56.2417 109.114 54.4023 109.114C52.2801 109.114 50.9879 106.227 50.7515 104.815C50.725 104.659 50.4979 104.673 50.4886 104.83C50.4195 106.08 50.6187 108.167 52.3611 109.738C53.9056 111.131 53.9149 112.644 53.652 113.666" fill="#D17F6A"/>
<path d="M59.1242 114.993L63.2598 115.582C66.0581 115.98 68.9095 115.783 71.6255 115.001C73.4805 114.468 75.2482 113.669 76.8735 112.63L80.1466 110.537C80.1466 108.407 79.3452 107.609 83.1966 107.609C87.5791 107.609 87.7119 105.879 87.7119 104.548C87.7119 104.148 88.1103 102.418 84.5246 102.418C81.3373 102.418 82.9355 100.555 81.4746 98.8245C80.0138 97.0943 76.9592 97.6267 76.9592 97.6267C76.9592 96.4288 75.8968 93.7669 75.2328 93.7669C74.5688 93.7669 72.4439 95.6302 71.9127 101.62C71.3814 107.609 62.7372 102.487 58.2192 107.015C56.8566 108.381 56.2417 109.114 54.4023 109.114C52.2801 109.114 50.9879 106.227 50.7515 104.815C50.725 104.659 50.4979 104.673 50.4886 104.83C50.4195 106.08 50.6187 108.167 52.3611 109.738C53.9056 111.131 53.9149 112.644 53.652 113.666" fill="url(#paint11_linear_1_546)"/>
<path d="M80.8399 107.829C80.8399 107.829 78.8073 115.554 81.2538 118.041C81.2538 118.041 83.7344 117.761 83.7344 120.564H78.0833C78.0833 120.564 74.1562 117.48 74.1562 109.982" fill="#146FF4"/>
<path d="M80.8399 107.829C80.8399 107.829 78.8073 115.554 81.2538 118.041C81.2538 118.041 83.7344 117.761 83.7344 120.564H78.0833C78.0833 120.564 74.1562 117.48 74.1562 109.982" fill="#0851C4"/>
<path d="M80.8399 107.829C80.8399 107.829 78.8073 115.554 81.2538 118.041C81.2538 118.041 83.7344 117.761 83.7344 120.564H78.0833C78.0833 120.564 74.1562 117.48 74.1562 109.982" fill="#D17F6A"/>
<path d="M80.8399 107.829C80.8399 107.829 78.8073 115.554 81.2538 118.041C81.2538 118.041 83.7344 117.761 83.7344 120.564H78.0833C78.0833 120.564 74.1562 117.48 74.1562 109.982" fill="url(#paint12_linear_1_546)"/>
</mask>
<g mask="url(#mask0_1_546)">
<path fill-rule="evenodd" clip-rule="evenodd" d="M84.4939 109.185C74.6664 110.506 70.5492 105.026 69.7527 101.898L71.1113 101.554C71.7339 103.999 75.1906 109.025 84.3066 107.799L84.4939 109.185Z" fill="#FE973C"/>
</g>
<path fill-rule="evenodd" clip-rule="evenodd" d="M63.6094 62.5467C63.2477 59.1646 62.7705 56.3788 61.912 54.3395L62.429 54.1231C63.322 56.2444 63.8049 59.1023 64.1669 62.4874C64.3692 64.3787 64.5353 66.4532 64.7126 68.6686C64.8524 70.4145 64.9991 72.2479 65.1762 74.148C65.9816 82.7942 67.4223 92.9453 71.7074 103.183L71.19 103.398C66.8721 93.0823 65.4251 82.8645 64.6179 74.1998C64.4391 72.2807 64.2921 70.4438 64.1526 68.699C63.9762 66.4942 63.8116 64.4367 63.6094 62.5467Z" fill="#4B1C3C"/>
<path d="M71.8803 103.505C71.8803 103.624 71.6388 103.721 71.3409 103.721C71.043 103.721 70.8015 103.624 70.8015 103.505C70.8015 103.387 71.043 103.29 71.3409 103.29C71.6388 103.29 71.8803 103.387 71.8803 103.505Z" fill="#4B1C3C"/>
<path d="M81.3745 100.925C81.3745 101.282 81.0847 101.571 80.7272 101.571C80.3696 101.571 80.0798 101.282 80.0798 100.925C80.0798 100.569 80.3696 100.28 80.7272 100.28C81.0847 100.28 81.3745 100.569 81.3745 100.925Z" fill="#4B1C3C"/>
<path d="M31.9567 51.3348C31.51 51.9588 31.1409 52.3444 30.9876 52.3551C30.9876 52.3551 31.194 51.6902 31.9567 51.3348C33.1045 49.7315 34.7647 46.5541 34.5934 44.1172C36.4422 44.3461 40.2518 44.8318 40.6995 44.9437C41.2592 45.0836 40.8933 47.3181 38.6101 48.731C36.3268 50.1439 41.4227 55.2322 36.641 52.3893C34.1859 50.9295 32.7615 50.9598 31.9567 51.3348Z" fill="#FFCEC9"/>
<path d="M44.8028 38.0527C44.8028 38.0527 43.0669 41.5877 44.6677 43.3928C45.5428 45.1496 43.4749 43.7818 43.1283 45.5614C42.7817 47.3411 42.4333 50.2197 38.2278 48.5654C32.243 45.7354 34.283 39.183 34.9561 37.9063C35.6291 36.6295 39.3316 34.1807 44.4497 36.6669C45.3824 37.1122 44.8028 38.0527 44.8028 38.0527Z" fill="#FFCEC9"/>
<path d="M33.9738 48.6204C33.5761 48.8727 32.9379 48.5033 32.7359 48.0786C31.8661 46.2502 29.005 43.6693 29.9887 38.6182C31.1916 32.4417 36.6266 30.7703 38.8577 31.2024C42.8801 31.9814 44.0088 34.2684 45.4541 33.201C45.8629 32.8991 45.8374 32.5848 45.646 32.3099C45.3592 31.898 45.4266 31.3613 45.9019 31.5251C46.3803 31.6899 46.9026 32.0617 47.3205 32.8414C48.3745 34.8081 47.1125 38.0088 44.9583 37.5916C42.8041 37.1744 36.8015 35.6113 36.0648 39.3944C35.3716 42.9535 38.8244 45.5427 33.9738 48.6204Z" fill="#0B8B00"/>
<path d="M33.9738 48.6204C33.5761 48.8727 32.9379 48.5033 32.7359 48.0786C31.8661 46.2502 29.005 43.6693 29.9887 38.6182C31.1916 32.4417 36.6266 30.7703 38.8577 31.2024C42.8801 31.9814 44.0088 34.2684 45.4541 33.201C45.8629 32.8991 45.8374 32.5848 45.646 32.3099C45.3592 31.898 45.4266 31.3613 45.9019 31.5251C46.3803 31.6899 46.9026 32.0617 47.3205 32.8414C48.3745 34.8081 47.1125 38.0088 44.9583 37.5916C42.8041 37.1744 36.8015 35.6113 36.0648 39.3944C35.3716 42.9535 38.8244 45.5427 33.9738 48.6204Z" fill="url(#paint13_linear_1_546)"/>
<path d="M33.9738 48.6204C33.5761 48.8727 32.9379 48.5033 32.7359 48.0786C31.8661 46.2502 29.005 43.6693 29.9887 38.6182C31.1916 32.4417 36.6266 30.7703 38.8577 31.2024C42.8801 31.9814 44.0088 34.2684 45.4541 33.201C45.8629 32.8991 45.8374 32.5848 45.646 32.3099C45.3592 31.898 45.4266 31.3613 45.9019 31.5251C46.3803 31.6899 46.9026 32.0617 47.3205 32.8414C48.3745 34.8081 47.1125 38.0088 44.9583 37.5916C42.8041 37.1744 36.8015 35.6113 36.0648 39.3944C35.3716 42.9535 38.8244 45.5427 33.9738 48.6204Z" fill="#0B8B00"/>
<path d="M33.9738 48.6204C33.5761 48.8727 32.9379 48.5033 32.7359 48.0786C31.8661 46.2502 29.005 43.6693 29.9887 38.6182C31.1916 32.4417 36.6266 30.7703 38.8577 31.2024C42.8801 31.9814 44.0088 34.2684 45.4541 33.201C45.8629 32.8991 45.8374 32.5848 45.646 32.3099C45.3592 31.898 45.4266 31.3613 45.9019 31.5251C46.3803 31.6899 46.9026 32.0617 47.3205 32.8414C48.3745 34.8081 47.1125 38.0088 44.9583 37.5916C42.8041 37.1744 36.8015 35.6113 36.0648 39.3944C35.3716 42.9535 38.8244 45.5427 33.9738 48.6204Z" fill="url(#paint14_linear_1_546)"/>
<mask id="mask1_1_546" style="mask-type:alpha" maskUnits="userSpaceOnUse" x="33" y="35" width="12" height="14">
<path d="M44.7801 37.8081C44.7801 37.8081 42.9952 41.3632 44.6748 43.1949C45.5981 44.9732 43.4348 43.5795 43.0855 45.3727C42.7363 47.166 42.3925 50.068 38.0005 48.3711C31.7471 45.4764 33.8288 38.879 34.5214 37.5953C35.2141 36.3117 39.0548 33.8654 44.403 36.4076C45.3776 36.8631 44.7801 37.8081 44.7801 37.8081Z" fill="#FFCEC9"/>
</mask>
<g mask="url(#mask1_1_546)">
<path d="M45.2241 42.0031C45.3641 41.7635 45.3801 41.4696 45.2605 41.217C44.905 40.4706 43.8576 39.037 41.2753 39.9081C37.9821 41.0185 43.2388 45.3943 45.2241 42.0031Z" fill="url(#paint15_linear_1_546)" style="mix-blend-mode:multiply"/>
</g>
<path d="M42.8161 34.8055C43.0029 34.5848 42.9952 34.2973 42.7862 34.0359C42.1649 33.263 40.4176 31.7394 36.5873 32.3181C31.7027 33.0557 40.1666 37.9284 42.8161 34.8055Z" fill="url(#paint16_linear_1_546)" style="mix-blend-mode:multiply"/>
<path d="M42.6986 36.0479C42.5425 35.4579 42.1089 34.9759 41.5289 34.7685C39.8115 34.1587 35.9458 33.5536 33.2874 38.9146C29.8967 45.7507 44.9004 44.403 42.6986 36.0479Z" fill="url(#paint17_linear_1_546)" style="mix-blend-mode:multiply"/>
<path d="M58.9343 58.9385C58.9343 58.9385 59.959 58.3101 60.3982 57.2103C60.691 56.1106 61.4229 53.2827 62.7404 52.9685C64.2043 52.6543 64.3507 55.4822 64.6434 56.1106C64.9362 56.739 64.7898 58.4672 62.8868 59.4098C61.1301 60.1953 59.6663 61.7663 59.5199 61.7663C59.2271 61.7663 58.9343 58.9385 58.9343 58.9385Z" fill="#FFCEC9"/>
<path d="M48.7677 118.322C49.2269 116.699 52.441 106.269 50.6044 98.9685C47.6198 87.0321 44.1761 82.049 43.7169 81.5854C43.2578 81.1219 33.0414 81.4696 33.0414 81.4696C33.845 92.7106 39.6993 92.2471 43.2578 102.329C44.1761 105.111 44.9796 116.312 44.9796 117.742C44.9796 118.835 44.7878 119.696 45.3892 120.038C46.1028 120.445 47.298 120.847 48.0833 120.038C48.3654 119.748 48.6584 118.763 48.7677 118.322Z" fill="#82483D"/>
<path d="M48.7677 118.322C49.2269 116.699 52.441 106.269 50.6044 98.9685C47.6198 87.0321 44.1761 82.049 43.7169 81.5854C43.2578 81.1219 33.0414 81.4696 33.0414 81.4696C33.845 92.7106 39.6993 92.2471 43.2578 102.329C44.1761 105.111 44.9796 116.312 44.9796 117.742C44.9796 118.835 44.7878 119.696 45.3892 120.038C46.1028 120.445 47.298 120.847 48.0833 120.038C48.3654 119.748 48.6584 118.763 48.7677 118.322Z" fill="url(#paint18_linear_1_546)"/>
<path d="M41.8882 90.913C41.8882 95.5964 39.9774 99.6343 35.4541 106.667C32.5545 111.163 23.011 120.195 21.8512 119.619C20.6913 119.042 19.8795 119.273 19.8795 118.351C19.8795 112.738 29.939 106.579 30.7522 100.516C32.144 90.2562 28.2302 81.3444 28.2302 81.3444L40.6124 81.6902C40.6124 81.6902 41.8882 86.2296 41.8882 90.913Z" fill="#82483D"/>
<path d="M41.8882 90.913C41.8882 95.5964 39.9774 99.6343 35.4541 106.667C32.5545 111.163 23.011 120.195 21.8512 119.619C20.6913 119.042 19.8795 119.273 19.8795 118.351C19.8795 112.738 29.939 106.579 30.7522 100.516C32.144 90.2562 28.2302 81.3444 28.2302 81.3444L40.6124 81.6902C40.6124 81.6902 41.8882 86.2296 41.8882 90.913Z" fill="url(#paint19_linear_1_546)"/>
<path d="M27.9335 86.2684C31.8082 90.1812 38.2881 86.6169 46.2267 84.4094C46.2267 84.4094 46.917 84.0609 46.5719 82.7829C46.2267 81.5049 44.8461 76.3928 44.1558 66.982C43.8106 61.9862 45.6514 70.8161 54.0502 67.0982C59.8028 64.5422 64.7501 57.8036 61.6437 55.9447C58.7674 54.2019 58.077 58.733 51.8642 60.4758C45.9966 62.1023 44.0407 46.7662 33.2258 55.8285C29.2643 58.8591 24.0587 82.3555 27.9335 86.2684Z" fill="#30686E"/>
<path d="M27.9335 86.2684C31.8082 90.1812 38.2881 86.6169 46.2267 84.4094C46.2267 84.4094 46.917 84.0609 46.5719 82.7829C46.2267 81.5049 44.8461 76.3928 44.1558 66.982C43.8106 61.9862 45.6514 70.8161 54.0502 67.0982C59.8028 64.5422 64.7501 57.8036 61.6437 55.9447C58.7674 54.2019 58.077 58.733 51.8642 60.4758C45.9966 62.1023 44.0407 46.7662 33.2258 55.8285C29.2643 58.8591 24.0587 82.3555 27.9335 86.2684Z" fill="url(#paint20_linear_1_546)"/>
<path d="M43.9981 65.6368C43.9981 65.6368 41.6841 70.639 29.536 73.4663L28.7261 75.7499C28.7261 75.7499 45.0394 72.9226 43.9981 65.6368Z" fill="#82483D"/>
<path d="M43.9981 65.6368C43.9981 65.6368 41.6841 70.639 29.536 73.4663L28.7261 75.7499C28.7261 75.7499 45.0394 72.9226 43.9981 65.6368Z" fill="url(#paint21_linear_1_546)"/>
<path d="M43.9981 65.6368C43.9981 65.6368 41.6841 70.639 29.536 73.4663L28.7261 75.7499C28.7261 75.7499 45.0394 72.9226 43.9981 65.6368Z" fill="url(#paint22_linear_1_546)"/>
<path d="M40.1622 52.8492C40.1622 52.8492 38.129 51.8209 35.8698 51.3638C33.6107 50.9068 30.6738 47.022 28.3017 47.1362C25.9296 47.2505 27.398 50.7925 26.7203 53.5348C26.0425 56.5055 27.6239 59.2478 31.6904 56.6198C35.7569 53.9918 40.1622 52.8492 40.1622 52.8492Z" fill="#30686E"/>
<path d="M40.1622 52.8492C40.1622 52.8492 38.129 51.8209 35.8698 51.3638C33.6107 50.9068 30.6738 47.022 28.3017 47.1362C25.9296 47.2505 27.398 50.7925 26.7203 53.5348C26.0425 56.5055 27.6239 59.2478 31.6904 56.6198C35.7569 53.9918 40.1622 52.8492 40.1622 52.8492Z" fill="url(#paint23_linear_1_546)"/>
<path d="M33.9044 54.522C33.9044 54.522 29.5366 50.8524 25.8585 52.5097C19.6225 55.1187 18.3969 74.5097 23.4447 77.7232C25.6286 79.1437 28.5021 77.96 29.3067 75.3558C30.801 70.7392 33.2148 62.5714 33.9044 54.522Z" fill="#82483D"/>
<path d="M33.9044 54.522C33.9044 54.522 29.5366 50.8524 25.8585 52.5097C19.6225 55.1187 18.3969 74.5097 23.4447 77.7232C25.6286 79.1437 28.5021 77.96 29.3067 75.3558C30.801 70.7392 33.2148 62.5714 33.9044 54.522Z" fill="url(#paint24_linear_1_546)"/>
<path d="M33.9044 54.522C33.9044 54.522 29.5366 50.8524 25.8585 52.5097C19.6225 55.1187 18.3969 74.5097 23.4447 77.7232C25.6286 79.1437 28.5021 77.96 29.3067 75.3558C30.801 70.7392 33.2148 62.5714 33.9044 54.522Z" fill="url(#paint25_linear_1_546)"/>
<path d="M34.1486 54.6619C34.1486 54.6619 35.1452 53.1709 41.4565 53.0466C41.4565 53.0466 38.5776 50.4373 33.0414 53.7922L34.1486 54.6619Z" fill="#82483D"/>
<path d="M34.1486 54.6619C34.1486 54.6619 35.1452 53.1709 41.4565 53.0466C41.4565 53.0466 38.5776 50.4373 33.0414 53.7922L34.1486 54.6619Z" fill="url(#paint26_linear_1_546)"/>
<path d="M34.1486 54.6619C34.1486 54.6619 35.1452 53.1709 41.4565 53.0466C41.4565 53.0466 38.5776 50.4373 33.0414 53.7922L34.1486 54.6619Z" fill="url(#paint27_linear_1_546)"/>
<path d="M28.6741 120.505H21.6684C20.8591 120.505 20.1062 120.092 19.6731 119.41C19.2614 118.763 19.1918 117.955 19.4864 117.247L19.5253 117.154C20.0101 115.988 21.277 115.351 22.5051 115.656L25.1242 116.306C25.4461 116.386 25.7604 116.494 26.0635 116.628L29.2032 118.022C29.5431 118.172 29.8021 118.461 29.9146 118.815C30.1808 119.652 29.5545 120.505 28.6741 120.505Z" fill="#C4C4C4"/>
<path d="M28.6741 120.505H21.6684C20.8591 120.505 20.1062 120.092 19.6731 119.41C19.2614 118.763 19.1918 117.955 19.4864 117.247L19.5253 117.154C20.0101 115.988 21.277 115.351 22.5051 115.656L25.1242 116.306C25.4461 116.386 25.7604 116.494 26.0635 116.628L29.2032 118.022C29.5431 118.172 29.8021 118.461 29.9146 118.815C30.1808 119.652 29.5545 120.505 28.6741 120.505Z" fill="url(#paint28_linear_1_546)"/>
<path d="M52.8576 120.506H46.6412C45.808 120.506 45.0373 120.066 44.6161 119.349C44.2557 118.735 44.1945 117.992 44.4498 117.328L44.4805 117.248C44.9439 116.043 46.2458 115.382 47.4955 115.717L49.6868 116.306C49.9883 116.387 50.2815 116.495 50.5628 116.63L53.4295 118.006C53.7659 118.168 54.0179 118.464 54.123 118.821C54.3707 119.663 53.7376 120.506 52.8576 120.506Z" fill="#C4C4C4"/>
<path d="M52.8576 120.506H46.6412C45.808 120.506 45.0373 120.066 44.6161 119.349C44.2557 118.735 44.1945 117.992 44.4498 117.328L44.4805 117.248C44.9439 116.043 46.2458 115.382 47.4955 115.717L49.6868 116.306C49.9883 116.387 50.2815 116.495 50.5628 116.63L53.4295 118.006C53.7659 118.168 54.0179 118.464 54.123 118.821C54.3707 119.663 53.7376 120.506 52.8576 120.506Z" fill="url(#paint29_linear_1_546)"/>
<path d="M86.8234 103.723C87.7401 103.723 88.1864 103.394 88.3758 103C88.6395 102.452 88.0127 102.002 87.403 102.002C87.0965 102.002 86.7942 102.098 86.5688 102.305C85.9156 102.905 85.3781 103.723 86.8234 103.723Z" fill="#4B1C3C"/>
<path opacity="0.2" d="M84.1795 103.937C84.1795 104.056 84.0829 104.152 83.9638 104.152C83.8446 104.152 83.748 104.056 83.748 103.937C83.748 103.818 83.8446 103.722 83.9638 103.722C84.0829 103.722 84.1795 103.818 84.1795 103.937Z" fill="url(#paint30_linear_1_546)"/>
<path opacity="0.2" d="M85.4739 104.798C85.4739 104.917 85.2807 105.013 85.0423 105.013C84.804 105.013 84.6108 104.917 84.6108 104.798C84.6108 104.679 84.804 104.583 85.0423 104.583C85.2807 104.583 85.4739 104.679 85.4739 104.798Z" fill="url(#paint31_linear_1_546)"/>
<path opacity="0.2" d="M81.806 104.798C81.806 104.917 81.6128 105.013 81.3745 105.013C81.1361 105.013 80.9429 104.917 80.9429 104.798C80.9429 104.679 81.1361 104.583 81.3745 104.583C81.6128 104.583 81.806 104.679 81.806 104.798Z" fill="url(#paint32_linear_1_546)"/>
<path d="M139.282 37.7426H141.244V92.8157H139.282V37.7426Z" fill="white"/>
<path d="M190.022 37.7426H191.985V92.8157H190.022V37.7426Z" fill="white"/>
<path d="M123.022 20.1276H131.656L144.608 36.9011V39.3053C144.608 41.683 142.675 43.6105 140.291 43.6105V43.6105C137.906 43.6105 135.974 41.683 135.974 39.3053V36.9011L123.022 20.1276Z" fill="#6118C5"/>
<path d="M173.483 20.1276H182.117L195.069 36.9011V39.3053C195.069 41.683 193.136 43.6105 190.751 43.6105V43.6105C188.367 43.6105 186.434 41.683 186.434 39.3053V36.9011L173.483 20.1276Z" fill="#6118C5"/>
<defs>
<linearGradient id="paint0_linear_1_546" x1="117.181" y1="73.1493" x2="134.049" y2="33.4834" gradientUnits="userSpaceOnUse">
<stop stop-color="#FF1C66"/>
<stop offset="1" stop-color="#FF5E88"/>
</linearGradient>
<linearGradient id="paint1_linear_1_546" x1="141.173" y1="41.6978" x2="141.173" y2="79.5697" gradientUnits="userSpaceOnUse">
<stop stop-color="#00D1FF"/>
<stop offset="1" stop-color="#83B4FF"/>
</linearGradient>
<linearGradient id="paint2_linear_1_546" x1="92.5526" y1="41.6533" x2="92.5526" y2="86.3827" gradientUnits="userSpaceOnUse">
<stop stop-color="#00D1FF"/>
<stop offset="1" stop-color="#83B4FF"/>
</linearGradient>
<linearGradient id="paint3_linear_1_546" x1="77.0588" y1="96.0157" x2="77.0588" y2="104.043" gradientUnits="userSpaceOnUse">
<stop stop-color="#D17F6A"/>
<stop offset="1" stop-color="#964651"/>
</linearGradient>
<linearGradient id="paint4_linear_1_546" x1="70.5014" y1="98.6432" x2="70.5014" y2="139.781" gradientUnits="userSpaceOnUse">
<stop stop-color="#D17F6A"/>
<stop offset="1" stop-color="#964651"/>
</linearGradient>
<linearGradient id="paint5_linear_1_546" x1="70.5014" y1="98.6432" x2="70.5014" y2="139.781" gradientUnits="userSpaceOnUse">
<stop stop-color="#D17F6A"/>
<stop offset="1" stop-color="#964651"/>
</linearGradient>
<linearGradient id="paint6_linear_1_546" x1="70.5014" y1="98.6432" x2="70.5014" y2="139.781" gradientUnits="userSpaceOnUse">
<stop stop-color="#D17F6A"/>
<stop offset="1" stop-color="#964651"/>
</linearGradient>
<linearGradient id="paint7_linear_1_546" x1="75.4406" y1="110.73" x2="75.4406" y2="120.506" gradientUnits="userSpaceOnUse">
<stop stop-color="#C27164" stop-opacity="0"/>
<stop offset="0.276042" stop-color="#C27164"/>
<stop offset="1" stop-color="#D17F6A"/>
</linearGradient>
<linearGradient id="paint8_linear_1_546" x1="56.4526" y1="109.7" x2="56.4526" y2="120.507" gradientUnits="userSpaceOnUse">
<stop stop-color="#C27164" stop-opacity="0"/>
<stop offset="0.276042" stop-color="#C27164"/>
<stop offset="1" stop-color="#D17F6A"/>
</linearGradient>
<linearGradient id="paint9_linear_1_546" x1="74.9011" y1="94.0404" x2="74.9011" y2="98.4428" gradientUnits="userSpaceOnUse">
<stop stop-color="#964651"/>
<stop offset="1" stop-color="#964651" stop-opacity="0"/>
</linearGradient>
<linearGradient id="paint10_linear_1_546" x1="70.4314" y1="98.4273" x2="70.4314" y2="140.08" gradientUnits="userSpaceOnUse">
<stop stop-color="#D17F6A"/>
<stop offset="1" stop-color="#964651"/>
</linearGradient>
<linearGradient id="paint11_linear_1_546" x1="70.4314" y1="98.4273" x2="70.4314" y2="140.08" gradientUnits="userSpaceOnUse">
<stop stop-color="#D17F6A"/>
<stop offset="1" stop-color="#964651"/>
</linearGradient>
<linearGradient id="paint12_linear_1_546" x1="70.4314" y1="98.4273" x2="70.4314" y2="140.08" gradientUnits="userSpaceOnUse">
<stop stop-color="#D17F6A"/>
<stop offset="1" stop-color="#964651"/>
</linearGradient>
<linearGradient id="paint13_linear_1_546" x1="40.0053" y1="33.877" x2="34.1411" y2="64.1565" gradientUnits="userSpaceOnUse">
<stop stop-color="#D17F6A"/>
<stop offset="1" stop-color="#964651"/>
</linearGradient>
<linearGradient id="paint14_linear_1_546" x1="40.0053" y1="33.877" x2="34.1411" y2="64.1565" gradientUnits="userSpaceOnUse">
<stop stop-color="#D17F6A"/>
<stop offset="1" stop-color="#964651"/>
</linearGradient>
<linearGradient id="paint15_linear_1_546" x1="43.4152" y1="38.0336" x2="42.7804" y2="41.3118" gradientUnits="userSpaceOnUse">
<stop offset="0.00774316" stop-color="#FFB4AB"/>
<stop offset="1" stop-color="#FFCEC9" stop-opacity="0"/>
</linearGradient>
<linearGradient id="paint16_linear_1_546" x1="39.6365" y1="30.7044" x2="39.0251" y2="33.8613" gradientUnits="userSpaceOnUse">
<stop offset="0.00774316" stop-color="#FFB4AB"/>
<stop offset="1" stop-color="#FFCEC9" stop-opacity="0"/>
</linearGradient>
<linearGradient id="paint17_linear_1_546" x1="33.6924" y1="32.6789" x2="37.7965" y2="38.7783" gradientUnits="userSpaceOnUse">
<stop offset="0.00774316" stop-color="#FFB4AB"/>
<stop offset="1" stop-color="#FFCEC9" stop-opacity="0"/>
</linearGradient>
<linearGradient id="paint18_linear_1_546" x1="37.6962" y1="104.106" x2="57.6694" y2="93.5199" gradientUnits="userSpaceOnUse">
<stop stop-color="#6E14D2"/>
<stop offset="0.6015" stop-color="#9B82FF"/>
<stop offset="0.7664" stop-color="#A18CFF"/>
</linearGradient>
<linearGradient id="paint19_linear_1_546" x1="24.9134" y1="103.89" x2="45.6403" y2="91.8958" gradientUnits="userSpaceOnUse">
<stop stop-color="#6E14D2"/>
<stop offset="0.6015" stop-color="#9B82FF"/>
<stop offset="0.7664" stop-color="#A18CFF"/>
</linearGradient>
<linearGradient id="paint20_linear_1_546" x1="33.0891" y1="82.4061" x2="51.7357" y2="58.4447" gradientUnits="userSpaceOnUse">
<stop stop-color="#FFAD72"/>
<stop offset="0.5" stop-color="#FFC388"/>
<stop offset="1" stop-color="#FFC98E"/>
</linearGradient>
<linearGradient id="paint21_linear_1_546" x1="37.6146" y1="72.7989" x2="34.6479" y2="66.5377" gradientUnits="userSpaceOnUse">
<stop stop-color="#FF1C66"/>
<stop offset="1" stop-color="#FF5E88"/>
</linearGradient>
<linearGradient id="paint22_linear_1_546" x1="37.5496" y1="72.277" x2="34.8957" y2="66.2492" gradientUnits="userSpaceOnUse">
<stop stop-color="#7B22F3"/>
<stop offset="1" stop-color="#AD00FF"/>
</linearGradient>
<linearGradient id="paint23_linear_1_546" x1="28.6854" y1="56.4496" x2="34.1821" y2="47.7629" gradientUnits="userSpaceOnUse">
<stop stop-color="#FFAD72"/>
<stop offset="0.5" stop-color="#FFC388"/>
<stop offset="1" stop-color="#FFC98E"/>
</linearGradient>
<linearGradient id="paint24_linear_1_546" x1="28.083" y1="70.6708" x2="18.5823" y2="63.6787" gradientUnits="userSpaceOnUse">
<stop stop-color="#FF1C66"/>
<stop offset="1" stop-color="#FF5E88"/>
</linearGradient>
<linearGradient id="paint25_linear_1_546" x1="28.1402" y1="69.3159" x2="19.0916" y2="62.2908" gradientUnits="userSpaceOnUse">
<stop stop-color="#7B22F3"/>
<stop offset="1" stop-color="#AD00FF"/>
</linearGradient>
<linearGradient id="paint26_linear_1_546" x1="37.9238" y1="53.9085" x2="37.5126" y2="52.0415" gradientUnits="userSpaceOnUse">
<stop stop-color="#FF1C66"/>
<stop offset="1" stop-color="#FF5E88"/>
</linearGradient>
<linearGradient id="paint27_linear_1_546" x1="37.8881" y1="53.7752" x2="37.5272" y2="52.0117" gradientUnits="userSpaceOnUse">
<stop stop-color="#7B22F3"/>
<stop offset="1" stop-color="#AD00FF"/>
</linearGradient>
<linearGradient id="paint28_linear_1_546" x1="25.3298" y1="119.459" x2="30.1405" y2="113.125" gradientUnits="userSpaceOnUse">
<stop stop-color="#FF1C66"/>
<stop offset="1" stop-color="#FF5E88"/>
</linearGradient>
<linearGradient id="paint29_linear_1_546" x1="49.8827" y1="119.46" x2="54.7816" y2="113.496" gradientUnits="userSpaceOnUse">
<stop stop-color="#FF1C66"/>
<stop offset="1" stop-color="#FF5E88"/>
</linearGradient>
<linearGradient id="paint30_linear_1_546" x1="83.748" y1="103.937" x2="84.3234" y2="103.937" gradientUnits="userSpaceOnUse">
<stop stop-color="#4B1C3C"/>
<stop offset="1" stop-color="#4B1C3C" stop-opacity="0"/>
</linearGradient>
<linearGradient id="paint31_linear_1_546" x1="84.6108" y1="104.798" x2="85.6896" y2="104.798" gradientUnits="userSpaceOnUse">
<stop stop-color="#4B1C3C"/>
<stop offset="1" stop-color="#4B1C3C" stop-opacity="0"/>
</linearGradient>
<linearGradient id="paint32_linear_1_546" x1="80.7272" y1="104.798" x2="82.6691" y2="104.798" gradientUnits="userSpaceOnUse">
<stop stop-color="#4B1C3C"/>
<stop offset="1" stop-color="#4B1C3C" stop-opacity="0"/>
</linearGradient>
</defs>
</svg>
