<svg width="18" height="17" viewBox="0 0 18 17" fill="none" xmlns="http://www.w3.org/2000/svg">
<path d="M1.5 1H2.47962C2.66414 1 2.75639 1 2.83064 1.03393C2.89606 1.06383 2.95151 1.11192 2.99036 1.17246C3.03445 1.24116 3.0475 1.33249 3.07359 1.51515L3.42857 4M3.42857 4L4.21749 9.79855C4.3176 10.5344 4.36766 10.9023 4.54357 11.1793C4.69858 11.4233 4.92081 11.6173 5.18352 11.738C5.48165 11.875 5.85296 11.875 6.59558 11.875H13.014C13.7209 11.875 14.0744 11.875 14.3632 11.7478C14.6179 11.6357 14.8364 11.4549 14.9942 11.2257C15.1732 10.9657 15.2393 10.6185 15.3716 9.92407L16.3643 4.71227C16.4109 4.46786 16.4342 4.34565 16.4004 4.25012C16.3708 4.16633 16.3124 4.09576 16.2357 4.05101C16.1481 4 16.0237 4 15.7749 4H3.42857ZM7.5 15.25C7.5 15.6642 7.16421 16 6.75 16C6.33579 16 6 15.6642 6 15.25C6 14.8358 6.33579 14.5 6.75 14.5C7.16421 14.5 7.5 14.8358 7.5 15.25ZM13.5 15.25C13.5 15.6642 13.1642 16 12.75 16C12.3358 16 12 15.6642 12 15.25C12 14.8358 12.3358 14.5 12.75 14.5C13.1642 14.5 13.5 14.8358 13.5 15.25Z" stroke="#333333" stroke-width="1.5" stroke-linecap="round" stroke-linejoin="round"/>
</svg>
